<svg width="40" height="40" viewBox="0 0 40 40" fill="none" xmlns="http://www.w3.org/2000/svg">
<g clip-path="url(#clip0_366_3146)">
<path d="M40.001 20C40.001 31.0453 31.0463 40 20 40H19.9625C8.93401 39.9793 0 31.0305 0 20C0 8.96949 8.93401 0.0197132 19.9625 0H20C31.0463 0 40.001 8.95175 40.001 20Z" fill="black"/>
<path d="M19.9625 0V40C8.93401 39.9793 0 31.0305 0 20C0 8.96949 8.93401 0.0197132 19.9625 0Z" fill="#0C0C0C"/>
<path d="M30.8834 14.4636L30.8587 18.5609C30.0603 18.5512 29.266 18.4446 28.4932 18.2436C27.3009 17.9321 26.1765 17.4031 25.1764 16.6833C25.1764 17.1022 25.1823 17.7271 25.1823 18.487C25.1823 19.4983 25.1823 20.0729 25.1764 20.6831C25.1587 24.4522 25.2523 25.1816 24.9211 26.6719C24.8522 27.0313 24.758 27.3854 24.6392 27.7315C24.0025 29.5057 22.6147 30.927 21.2003 31.683C20.8056 31.8929 20.3913 32.0635 19.9633 32.1926C17.2902 33.0028 14.0779 32.2912 12.42 30.3199L12.4092 30.308L12.3964 30.2913C10.9879 28.592 10.6803 25.9425 10.6508 25.2644C10.6508 25.1777 10.6449 25.0929 10.6449 25.0929C10.6232 24.1666 10.7564 23.2431 11.0391 22.3607C11.325 21.4479 12.2663 19.5427 14.3805 18.3855C15.6991 17.6752 17.2041 17.3872 18.6918 17.5605L18.6435 21.7072C18.5597 21.6855 16.5342 21.2055 15.2045 22.5854C14 23.8352 14.0779 25.8489 14.9325 26.9893C14.9778 27.0504 15.0261 27.1096 15.0764 27.1648C15.5544 27.698 16.1606 27.8981 16.5697 28.0381C17.112 28.2168 17.6813 28.3001 18.2522 28.2845C18.8637 28.2749 19.4586 28.0838 19.9613 27.7355C21.3511 26.7912 21.5384 25.1097 21.5453 25.0141C21.5282 19.6008 21.5121 14.1876 21.497 8.77434V8.76941L24.1021 8.72309H24.1444L24.5219 8.71619C24.8003 9.71796 25.2721 10.6555 25.9107 11.476C26.112 11.7327 26.3292 11.9763 26.5613 12.2054C27.438 13.0587 28.4911 13.7094 29.6464 14.1117H29.6543C30.0551 14.2581 30.4658 14.3757 30.8834 14.4636Z" fill="#FD2854"/>
<path d="M29.705 16.3176H29.6971C28.2942 16.5423 26.858 16.4333 25.5051 15.9992C24.5604 15.692 23.6736 15.2293 22.8813 14.6301C23.3564 17.5019 23.3564 20.4322 22.8813 23.3039C22.3185 26.6788 21.9656 28.794 20.082 30.1474C20.0426 30.1759 20.0022 30.2045 19.9618 30.2311C17.3606 31.9925 13.7265 31.1182 12.3949 30.2893L12.3752 30.2775L12.3377 30.2538C11.8988 29.963 11.4871 29.6331 11.1076 29.2681C10.4274 28.6083 9.88461 27.8203 9.51056 26.9495C9.13652 26.0788 8.93864 25.1426 8.92834 24.195C8.90302 23.2134 9.06596 22.2361 9.40835 21.3159C9.63013 20.7245 10.4541 18.6211 12.7497 17.3407C14.2197 16.5347 15.9183 16.2472 17.5716 16.5246C17.565 16.8531 17.5588 17.1817 17.5528 17.5102V17.5171L17.5144 19.5969C16.7949 19.4273 16.0512 19.3859 15.3174 19.4746C14.726 19.5476 14.1464 19.6156 13.5304 20.003C12.7414 20.5108 12.183 21.3077 11.975 22.2227C11.8434 22.6658 11.8164 23.1334 11.8962 23.5888C11.9198 23.7189 12.0933 24.6227 12.8227 25.2713C13.0681 25.4891 13.1726 25.498 13.5304 25.8321C13.8458 26.1278 13.9246 26.2698 14.2134 26.5152C14.2134 26.5152 14.2844 26.5753 14.4007 26.6601C14.4082 26.6666 14.4161 26.6725 14.4244 26.6778C14.5834 26.7942 14.7504 26.8992 14.9241 26.9923C15.6466 27.3708 16.9398 27.4112 17.888 26.9509C19.1999 26.3131 19.9155 24.8465 19.9125 23.9752C19.8967 18.56 19.8806 13.1451 19.8642 7.73052H19.9549L23.9784 7.70686C23.9755 8.0207 24.019 8.33325 24.1075 8.63437C24.1173 8.66689 24.1272 8.69745 24.138 8.73293C24.1489 8.76842 24.1558 8.78517 24.1646 8.80981C24.2271 8.97362 24.2992 9.13357 24.3805 9.28885L24.4367 9.4022V9.41107C24.4358 9.41362 24.4358 9.4164 24.4367 9.41895L24.4456 9.43768L24.4544 9.45542C24.4598 9.46689 24.4657 9.47807 24.4722 9.48893C24.4781 9.50175 24.485 9.51456 24.4919 9.52737C24.5293 9.59933 24.5806 9.69395 24.6387 9.8004C24.6752 9.86644 24.7137 9.93248 24.7531 9.99753L24.7955 10.0675C24.8162 10.103 24.8379 10.1385 24.8595 10.173L24.9384 10.2982C25.2449 10.7821 25.7831 11.5973 26.546 12.2133C27.6184 13.0787 28.8505 13.3231 29.6232 13.3961C29.6282 13.6386 29.6341 13.881 29.639 14.1235C29.6679 14.8555 29.6899 15.5869 29.705 16.3176Z" fill="#24F6FA"/>
<path d="M29.7184 17.4757C27.6875 17.5502 25.6934 16.9188 24.0755 15.6887V24.3625C24.0558 24.6947 23.7651 28.3584 20.4552 30.375C20.2916 30.4736 20.127 30.5653 19.9624 30.65C16.8487 32.2389 13.806 30.994 13.5053 30.8649C13.2064 30.7672 12.9199 30.6349 12.6518 30.4706C12.568 30.4184 12.4862 30.3642 12.4083 30.308L12.3383 30.2558C10.3079 28.7142 10.2241 25.5739 10.2113 25.1106C10.1896 24.1843 10.3228 23.2608 10.6055 22.3784C10.9407 21.3089 11.9411 19.5062 13.9469 18.4032C15.0537 17.8009 16.2975 17.4953 17.5574 17.5161V17.523L17.5081 20.6486C17.2962 20.5914 15.9971 20.2642 14.7276 21.0635C13.9386 21.5714 13.3802 22.3683 13.1722 23.2832C13.0477 23.7273 13.0208 24.193 13.0933 24.6484C13.2059 25.2107 13.4712 25.7311 13.8602 26.1525C14.0237 26.3408 14.2064 26.5116 14.4052 26.6621C14.4127 26.6685 14.4206 26.6744 14.4289 26.6798C14.5851 26.8003 14.7524 26.9056 14.9286 26.9942L14.9345 26.9992C15.2868 27.531 15.7948 27.941 16.3891 28.1728C16.9834 28.4047 17.6349 28.4471 18.2542 28.2943C18.5428 28.2341 18.8231 28.1394 19.0891 28.0124C19.4113 27.8592 19.7065 27.6548 19.9634 27.4072C20.9609 26.4482 21.1067 25.1215 21.1136 25.0416L21.0703 8.78911L21.504 8.78024L24.109 8.72899H24.1465C24.2229 8.91693 24.3054 9.10233 24.3939 9.2849L24.4501 9.39825V9.40712C24.4492 9.40967 24.4492 9.41246 24.4501 9.41501L24.459 9.43373L24.4678 9.45148C24.4732 9.46294 24.4791 9.47413 24.4856 9.48499C24.4915 9.4978 24.4984 9.51062 24.5053 9.52343C24.5506 9.61214 24.6039 9.70381 24.6521 9.79646C24.6886 9.8625 24.7271 9.92854 24.7665 9.99359L24.8089 10.0636L24.8729 10.169L24.9518 10.2942C25.4027 10.9994 25.943 11.6431 26.5594 12.2093C27.4589 13.0329 28.5055 13.6796 29.6445 14.1156H29.6524C29.6652 14.846 29.678 15.5783 29.6898 16.3087L29.7184 17.4757Z" fill="white"/>
<path d="M30.883 14.4636L30.8584 18.5609C30.0599 18.5512 29.2656 18.4446 28.4928 18.2436C27.3006 17.9321 26.1761 17.4031 25.176 16.6833C25.176 17.1022 25.182 17.7271 25.182 18.487C25.182 19.4983 25.182 20.0729 25.176 20.6831C25.1583 24.4522 25.2519 25.1816 24.9208 26.6719C24.8519 27.0313 24.7577 27.3854 24.6389 27.7315C24.0021 29.5057 22.6143 30.927 21.1999 31.683C20.8052 31.8928 20.3909 32.0635 19.9629 32.1926V7.73052L23.9864 7.70686C23.9835 8.0207 24.027 8.33325 24.1155 8.63437C24.1253 8.66689 24.1352 8.69745 24.146 8.73293L24.5235 8.72603C24.8019 9.72781 25.2737 10.6654 25.9123 11.4859C26.1135 11.7425 26.3308 11.9861 26.5629 12.2153C27.6353 13.0807 28.8673 13.3251 29.6401 13.3981C29.645 13.6405 29.6509 13.883 29.6559 14.1255C30.0564 14.2672 30.4664 14.3801 30.883 14.4636Z" fill="black" fill-opacity="0.0901961"/>
</g>
<defs>
<clipPath id="clip0_366_3146">
<rect width="40" height="40" fill="white"/>
</clipPath>
</defs>
</svg>
