<svg width="40" height="40" viewBox="0 0 40 40" fill="none" xmlns="http://www.w3.org/2000/svg">
<g clip-path="url(#clip0_931_29432)">
<path d="M10.168 0H9.09294C8.19709 0.0447928 7.03247 0.0895857 6.53975 0.223964C5.73348 0.403135 4.972 0.6271 4.3449 0.940649C3.62822 1.29899 2.95633 1.79171 2.37402 2.37402C1.79171 2.95633 1.34379 3.58343 0.94065 4.3449C0.6271 4.972 0.358343 5.73348 0.223964 6.49496C0.134378 7.03247 0.0447928 8.19709 0 9.09294V30.9071C0.0447928 31.8029 0.0895857 32.9675 0.223964 33.4602C0.403135 34.2665 0.6271 35.028 0.94065 35.6551C1.29899 36.3718 1.79171 37.0437 2.37402 37.626C2.95633 38.2083 3.58343 38.6562 4.3449 39.0593C4.972 39.3729 5.73348 39.6417 6.49496 39.776C7.03247 39.8656 8.19709 39.9552 9.09294 40H30.9071C31.8029 39.9552 32.9675 39.9104 33.4602 39.776C34.2665 39.5969 35.028 39.3729 35.6551 39.0593C36.3718 38.701 37.0437 38.2083 37.626 37.626C38.2083 37.0437 38.6562 36.4166 39.0593 35.6551C39.3729 35.028 39.6417 34.2665 39.776 33.505C39.8656 32.9675 39.9552 31.8029 40 30.9071V9.09294C39.9552 8.19709 39.9104 7.03247 39.776 6.53975C39.5969 5.73348 39.3729 4.972 39.0593 4.3449C38.701 3.62822 38.2083 2.95633 37.626 2.37402C37.0437 1.79171 36.4166 1.34378 35.6551 0.940649C35.028 0.6271 34.2665 0.358343 33.505 0.223964C32.9675 0.134378 31.8029 0.0447928 30.9071 0H29.832H10.168Z" fill="url(#paint0_linear_931_29432)"/>
<path d="M27.2787 22.1277C26.9203 21.9485 25.1286 21.0974 24.8151 20.9631C24.5015 20.8287 24.2328 20.7839 24.0088 21.1422C23.7848 21.5006 23.0681 22.3068 22.889 22.5308C22.665 22.7548 22.4858 22.7996 22.1275 22.6204C21.7692 22.4412 20.6045 22.0829 19.216 20.8735C18.1409 19.9328 17.4243 18.7682 17.2003 18.4099C16.9763 18.0515 17.2003 17.8723 17.3795 17.6932C17.5586 17.514 17.7378 17.29 17.917 17.0661C18.0961 16.8421 18.1409 16.7077 18.2753 16.4838C18.4097 16.2598 18.3201 16.0358 18.2305 15.8567C18.1409 15.6775 17.4243 13.9306 17.1107 13.2139C16.7972 12.542 16.5284 12.6316 16.3044 12.5868H15.6325C15.4086 12.5868 15.0054 12.6764 14.6919 13.0347C14.3783 13.3931 13.4377 14.2441 13.4377 15.991C13.4377 17.738 14.7367 19.3953 14.9159 19.6641C15.095 19.888 17.469 23.4715 21.0525 24.9944C21.9035 25.3527 22.5754 25.5767 23.1129 25.7559C23.964 26.0246 24.7703 25.9798 25.3974 25.8903C26.0693 25.8007 27.5474 25.0392 27.8162 24.2329C28.1297 23.4267 28.1297 22.71 28.0402 22.5756C27.861 22.3964 27.637 22.3068 27.2787 22.1277ZM20.4254 31.355C18.2753 31.355 16.2148 30.7727 14.3783 29.6977L13.9304 29.4289L9.45113 30.5935L10.6605 26.2486L10.3918 25.8007C9.22717 23.9194 8.60007 21.7693 8.60007 19.5297C8.60007 13.0347 13.9304 7.74917 20.4702 7.74917C23.5609 7.74917 26.562 8.95857 28.8016 11.1982C31.0413 13.4379 32.2507 16.3942 32.2507 19.5297C32.2507 26.0246 26.9203 31.355 20.4254 31.355ZM30.5038 9.49609C27.8162 6.80852 24.2328 5.33035 20.4254 5.33035C12.5866 5.33035 6.18125 11.6909 6.18125 19.5297C6.18125 22.0381 6.85315 24.4569 8.06255 26.6069L6.04688 33.953L13.5721 31.9821C15.6325 33.1019 18.0066 33.729 20.3806 33.729C28.2193 33.729 34.6247 27.3684 34.6247 19.5297C34.6695 15.7671 33.1913 12.1837 30.5038 9.49609Z" fill="white"/>
</g>
<defs>
<linearGradient id="paint0_linear_931_29432" x1="20.0134" y1="0.00895857" x2="20.0134" y2="39.9731" gradientUnits="userSpaceOnUse">
<stop stop-color="#62FA7F"/>
<stop offset="0.686" stop-color="#22CC40"/>
<stop offset="1" stop-color="#05B723"/>
</linearGradient>
<clipPath id="clip0_931_29432">
<rect width="40" height="40" fill="white"/>
</clipPath>
</defs>
</svg>
