<svg width="20" height="20" viewBox="0 0 20 20" fill="none" xmlns="http://www.w3.org/2000/svg">
<path d="M9.99863 18C9.89255 18 9.7908 17.9579 9.71579 17.8829C9.64078 17.8078 9.59863 17.7061 9.59863 17.6V9.60004C9.59863 9.49396 9.64078 9.39221 9.71579 9.3172C9.7908 9.24219 9.89255 9.20004 9.99863 9.20004C10.1047 9.20004 10.2065 9.24219 10.2815 9.3172C10.3565 9.39221 10.3986 9.49396 10.3986 9.60004V17.6C10.3986 17.7061 10.3565 17.8078 10.2815 17.8829C10.2065 17.9579 10.1047 18 9.99863 18Z" fill="url(#paint0_linear_215_2098)"/>
<path d="M14 5.99999C14 7.06085 13.5786 8.07826 12.8284 8.8284C12.0783 9.57855 11.0609 9.99997 10 9.99997C8.93913 9.99997 7.92172 9.57855 7.17157 8.8284C6.42143 8.07826 6 7.06085 6 5.99999C6 4.93912 6.42143 3.92171 7.17157 3.17157C7.92172 2.42143 8.93913 2 10 2C11.0609 2 12.0783 2.42143 12.8284 3.17157C13.5786 3.92171 14 4.93912 14 5.99999Z" fill="url(#paint1_linear_215_2098)"/>
<path d="M9.20137 4C9.41354 4 9.61702 4.08429 9.76705 4.23431C9.91708 4.38434 10.0014 4.58782 10.0014 4.8C10.0014 5.01217 9.91708 5.21565 9.76705 5.36568C9.61702 5.51571 9.41354 5.59999 9.20137 5.59999C8.98919 5.59999 8.78571 5.51571 8.63568 5.36568C8.48565 5.21565 8.40137 5.01217 8.40137 4.8C8.40137 4.58782 8.48565 4.38434 8.63568 4.23431C8.78571 4.08429 8.98919 4 9.20137 4Z" fill="url(#paint2_linear_215_2098)"/>
<defs>
<linearGradient id="paint0_linear_215_2098" x1="9.99863" y1="9.20004" x2="9.99863" y2="18" gradientUnits="userSpaceOnUse">
<stop stop-color="#464A4E"/>
<stop offset="1" stop-color="#222222"/>
</linearGradient>
<linearGradient id="paint1_linear_215_2098" x1="10" y1="2" x2="10" y2="9.99997" gradientUnits="userSpaceOnUse">
<stop stop-color="#F44E59"/>
<stop offset="1" stop-color="#E62232"/>
</linearGradient>
<linearGradient id="paint2_linear_215_2098" x1="9.20137" y1="4" x2="9.20137" y2="5.59999" gradientUnits="userSpaceOnUse">
<stop stop-color="white"/>
<stop offset="1" stop-color="#DEE2E4"/>
</linearGradient>
</defs>
</svg>
