<svg width="24" height="24" viewBox="0 0 24 24" fill="none" xmlns="http://www.w3.org/2000/svg">
<path fill-rule="evenodd" clip-rule="evenodd" d="M11.592 9.168C10.936 9.168 9.91398 8.404 8.85198 8.404C7.43998 8.404 6.14798 9.267 5.41998 10.533C3.95598 13.075 5.04298 16.831 6.47098 18.897C7.17198 19.903 7.99798 21.035 9.09398 20.999C10.145 20.954 10.54 20.316 11.816 20.316C13.083 20.316 13.442 20.999 14.556 20.972C15.688 20.954 16.407 19.948 17.098 18.933C17.898 17.765 18.23 16.633 18.248 16.57C18.221 16.561 16.047 15.726 16.02 13.21C16.002 11.108 17.736 10.102 17.817 10.057C16.829 8.611 15.311 8.449 14.781 8.413C13.397 8.305 12.239 9.168 11.592 9.168V9.168Z" stroke="#2A2522" stroke-width="1.5" stroke-linecap="round" stroke-linejoin="round"/>
<path d="M13.6507 2.95437C14.5197 2.63085 15.0881 3.10785 14.9203 4.01979C14.7525 4.93172 13.9121 5.93325 13.0431 6.25677C12.1741 6.5803 11.6057 6.1033 11.7735 5.19136C11.9413 4.27943 12.7817 3.27789 13.6507 2.95437" stroke="#2A2522" stroke-width="1.49996" stroke-linecap="round" stroke-linejoin="round"/>
</svg>
