<svg width="20" height="20" viewBox="0 0 20 20" fill="none" xmlns="http://www.w3.org/2000/svg">
<path d="M13.3332 14.1667V16.25C13.3332 16.9404 12.7735 17.5 12.0832 17.5H4.58317C3.89281 17.5 3.33317 16.9404 3.33317 16.25V11.6247C2.28509 11.4109 1.56918 10.4382 1.67668 9.37394C1.78419 8.30971 2.68018 7.49981 3.74984 7.5H6.6665" stroke="#2A2522" stroke-opacity="0.8" stroke-width="1.2" stroke-linecap="round" stroke-linejoin="round"/>
<path fill-rule="evenodd" clip-rule="evenodd" d="M7.08382 2.5H16.2505C17.3201 2.49981 18.2161 3.30971 18.3236 4.37394C18.4311 5.43818 17.7152 6.41091 16.6672 6.62465V13.3333C16.6672 13.7936 16.2941 14.1667 15.8338 14.1667H7.50049C7.04025 14.1667 6.66715 13.7936 6.66715 13.3333V6.62465C5.61907 6.41091 4.90316 5.43818 5.01067 4.37394C5.11818 3.30971 6.01417 2.49981 7.08382 2.5Z" stroke="#2A2522" stroke-opacity="0.8" stroke-width="1.2" stroke-linecap="round" stroke-linejoin="round"/>
</svg>
