<svg width="32" height="32" viewBox="0 0 32 32" fill="none" xmlns="http://www.w3.org/2000/svg">
<path d="M27.9998 15.0547C27.9998 21.1067 22.6025 25.964 15.9998 25.964C15.1451 25.964 14.3131 25.88 13.5078 25.7254" stroke="#323232" stroke-width="1.5" stroke-linecap="round" stroke-linejoin="round"/>
<path d="M8.79867 23.768C5.89333 21.7814 4 18.632 4 15.0547" stroke="#323232" stroke-width="1.5" stroke-linecap="round" stroke-linejoin="round"/>
<path d="M8.79851 23.768C8.79718 24.9067 8.79984 26.4427 8.79984 28.0547" stroke="#323232" stroke-width="1.5" stroke-linecap="round" stroke-linejoin="round"/>
<path d="M4 15.0547C4 9.00267 9.39733 4.14667 16 4.14667C22.6027 4.14667 28 9.004 28 15.056" stroke="#323232" stroke-width="1.5" stroke-linecap="round" stroke-linejoin="round"/>
<path d="M13.5065 25.72L8.7998 28.0534" stroke="#323232" stroke-width="1.5" stroke-linecap="round" stroke-linejoin="round"/>
<path d="M16.2359 15.0976C16.366 15.2278 16.366 15.4388 16.2359 15.569C16.1057 15.6992 15.8946 15.6992 15.7645 15.569C15.6343 15.4388 15.6343 15.2278 15.7645 15.0976C15.8946 14.9674 16.1057 14.9674 16.2359 15.0976" stroke="#323232" stroke-width="1.5" stroke-linecap="round" stroke-linejoin="round"/>
<path d="M21.5689 15.0976C21.699 15.2278 21.699 15.4388 21.5689 15.569C21.4387 15.6992 21.2276 15.6992 21.0975 15.569C20.9673 15.4388 20.9673 15.2278 21.0975 15.0976C21.2276 14.9674 21.4387 14.9674 21.5689 15.0976" stroke="#323232" stroke-width="1.5" stroke-linecap="round" stroke-linejoin="round"/>
<path d="M10.9024 15.0976C11.0325 15.2278 11.0325 15.4388 10.9024 15.569C10.7722 15.6992 10.5611 15.6992 10.431 15.569C10.3008 15.4388 10.3008 15.2278 10.431 15.0976C10.5611 14.9674 10.7722 14.9674 10.9024 15.0976" stroke="#323232" stroke-width="1.5" stroke-linecap="round" stroke-linejoin="round"/>
</svg>
