<svg width="16" height="21" viewBox="0 0 16 21" fill="none" xmlns="http://www.w3.org/2000/svg">
<path fill-rule="evenodd" clip-rule="evenodd" d="M5.75 3.75H9.75C12.5114 3.75 14.75 5.98858 14.75 8.75V17.75C14.75 18.8546 13.8546 19.75 12.75 19.75H2.75C1.64543 19.75 0.75 18.8546 0.75 17.75V8.75C0.75 5.98858 2.98858 3.75 5.75 3.75Z" stroke="#2A2522" stroke-opacity="0.8" stroke-width="1.5" stroke-linecap="round" stroke-linejoin="round"/>
<path d="M10.75 3.75V2.75C10.75 1.64543 9.85457 0.75 8.75 0.75H6.75C5.64543 0.75 4.75 1.64543 4.75 2.75V3.75" stroke="#2A2522" stroke-opacity="0.8" stroke-width="1.5" stroke-linecap="round" stroke-linejoin="round"/>
<path d="M11.75 19.75V13.75C11.75 12.6454 10.8546 11.75 9.75 11.75H5.75C4.64543 11.75 3.75 12.6454 3.75 13.75V19.75" stroke="#2A2522" stroke-opacity="0.8" stroke-width="1.5" stroke-linecap="round" stroke-linejoin="round"/>
<path d="M9.75 7.75H5.75" stroke="#2A2522" stroke-opacity="0.8" stroke-width="1.5" stroke-linecap="round" stroke-linejoin="round"/>
</svg>
