<svg width="20" height="20" viewBox="0 0 20 20" fill="none" xmlns="http://www.w3.org/2000/svg">
<path fill-rule="evenodd" clip-rule="evenodd" d="M2.59813 10.3891C2.46729 10.1466 2.46729 9.85246 2.59813 9.60996C4.17479 6.69413 7.08729 4.16663 9.99979 4.16663C12.9123 4.16663 15.8248 6.69413 17.4015 9.61079C17.5323 9.85329 17.5323 10.1475 17.4015 10.39C15.8248 13.3058 12.9123 15.8333 9.99979 15.8333C7.08729 15.8333 4.17479 13.3058 2.59813 10.3891Z" stroke="white" stroke-width="1.5" stroke-linecap="round" stroke-linejoin="round"/>
<path d="M11.7678 8.23223C12.7441 9.20854 12.7441 10.7915 11.7678 11.7678C10.7915 12.7441 9.20854 12.7441 8.23223 11.7678C7.25592 10.7915 7.25592 9.20854 8.23223 8.23223C9.20854 7.25592 10.7915 7.25592 11.7678 8.23223" stroke="white" stroke-width="1.4286" stroke-linecap="round" stroke-linejoin="round"/>
</svg>
