<svg width="40" height="40" viewBox="0 0 40 40" fill="none" xmlns="http://www.w3.org/2000/svg">
<path d="M28.125 1.25039C21.5771 1.25039 16.25 6.5775 16.25 13.1254C16.25 19.6733 21.5771 25.0004 28.125 25.0004C34.6729 25.0004 40 19.6733 40 13.1254C40 6.5775 34.6729 1.25039 28.125 1.25039Z" fill="#AE85CC"/>
<path d="M35.1875 15.0628L34.1196 14.2619C34.4798 13.5623 34.6875 12.7464 34.6875 11.8753C34.6875 9.29063 32.8651 7.18781 30.625 7.18781C28.3849 7.18781 26.5625 9.29063 26.5625 11.8753C26.5625 14.46 28.3849 16.5628 30.625 16.5628C31.4858 16.5628 32.2843 16.2514 32.942 15.7224L34.0625 16.5629C34.1951 16.6623 34.3618 16.7051 34.5259 16.6816C34.69 16.6582 34.838 16.5705 34.9375 16.4379L35.3125 15.9379C35.4119 15.8053 35.4546 15.6386 35.4312 15.4745C35.4078 15.3104 35.3201 15.1623 35.1875 15.0628ZM30.625 14.6879C29.4188 14.6879 28.4375 13.4263 28.4375 11.8754C28.4375 10.3245 29.4188 9.06289 30.625 9.06289C31.8312 9.06289 32.8125 10.3245 32.8125 11.8754C32.8125 12.3195 32.7317 12.7398 32.5885 13.1137L32.1875 12.8129C32.0549 12.7134 31.8882 12.6707 31.7241 12.6942C31.56 12.7176 31.412 12.8053 31.3125 12.9379L30.9375 13.4379C30.838 13.5705 30.7953 13.7372 30.8188 13.9013C30.8422 14.0654 30.9299 14.2134 31.0625 14.3129L31.3499 14.5284C31.1229 14.6313 30.8791 14.6879 30.625 14.6879Z" fill="#F3F1F1"/>
<path d="M11.875 1.25039C5.32711 1.25039 0 6.5775 0 13.1254C0 19.6733 5.32711 25.0004 11.875 25.0004C18.4229 25.0004 23.75 19.6733 23.75 13.1254C23.75 6.5775 18.4229 1.25039 11.875 1.25039Z" fill="#9CC445"/>
<path d="M13.75 24.3754C7.20211 24.3754 1.875 19.0483 1.875 12.5004C1.875 7.61078 4.84578 3.4025 9.07695 1.58422C3.87492 2.84555 0 7.54102 0 13.1254C0 19.6733 5.32711 25.0004 11.875 25.0004C13.5333 25.0004 15.113 24.6582 16.548 24.0416C15.6319 24.2636 14.6926 24.3757 13.75 24.3754Z" fill="#86AD32"/>
<path d="M14.0625 9.06289V8.43789C14.0625 8.27213 13.9967 8.11316 13.8794 7.99595C13.7622 7.87874 13.6033 7.81289 13.4375 7.81289H8.125C7.60727 7.81289 7.1875 8.23265 7.1875 8.75039V16.2504C7.1875 16.4162 7.25335 16.5751 7.37056 16.6923C7.48777 16.8095 7.64674 16.8754 7.8125 16.8754H8.4375C8.60326 16.8754 8.76223 16.8095 8.87944 16.6923C8.99665 16.5751 9.0625 16.4162 9.0625 16.2504V13.4379H12.1875C12.3533 13.4379 12.5122 13.372 12.6294 13.2548C12.7467 13.1376 12.8125 12.9787 12.8125 12.8129V12.1879C12.8125 12.0221 12.7467 11.8632 12.6294 11.7459C12.5122 11.6287 12.3533 11.5629 12.1875 11.5629H9.0625V9.68789H13.4375C13.6033 9.68789 13.7622 9.62204 13.8794 9.50483C13.9967 9.38762 14.0625 9.22865 14.0625 9.06289Z" fill="#F3F1F1"/>
<path d="M20 13.7504C13.4521 13.7504 8.125 19.0775 8.125 25.6254C8.125 28.9089 9.4857 32.0404 11.8722 34.2823L10.657 37.9277C10.4882 38.4341 11.021 38.9158 11.5086 38.6944L15.8101 36.7391C17.1486 37.2444 18.5567 37.5004 20 37.5004C26.5479 37.5004 31.875 32.1733 31.875 25.6254C31.875 19.0775 26.5479 13.7504 20 13.7504Z" fill="#FFC44F"/>
<path d="M12.5321 37.9277L13.7473 34.2823C11.3607 32.0404 10 28.9089 10 25.6254C10 19.393 14.8262 14.2669 20.9375 13.7873C20.6281 13.763 20.3155 13.7504 20 13.7504C13.4521 13.7504 8.125 19.0775 8.125 25.6254C8.125 28.9089 9.4857 32.0404 11.8722 34.2823L10.657 37.9277C10.4882 38.4341 11.021 38.9157 11.5086 38.6944L12.5133 38.2377C12.4921 38.1345 12.4986 38.0275 12.5321 37.9277Z" fill="#FFB357"/>
<path d="M23.8891 29.7286L24.4481 29.4491C24.5963 29.3749 24.7091 29.2449 24.7615 29.0877C24.8139 28.9304 24.8017 28.7588 24.7276 28.6105L23.4368 25.9379H23.3913L20.8379 20.8312C20.7474 20.6503 20.6009 20.5034 20.4201 20.4126C20.2393 20.3218 20.0341 20.2919 19.8349 20.3273C19.5357 20.3797 19.2846 20.5837 19.1488 20.8553L16.5618 25.9379V26.0291L15.2711 28.6105C15.1969 28.7588 15.1847 28.9304 15.2372 29.0877C15.2896 29.2449 15.4023 29.3749 15.5506 29.4491L16.1096 29.7286C16.2579 29.8027 16.4295 29.8149 16.5868 29.7625C16.744 29.7101 16.874 29.5973 16.9482 29.4491L17.7663 27.8128H22.2325L23.0506 29.4491C23.0873 29.5225 23.1381 29.5879 23.2001 29.6417C23.2621 29.6955 23.3341 29.7366 23.4119 29.7625C23.4898 29.7885 23.572 29.7988 23.6539 29.793C23.7358 29.7872 23.8157 29.7653 23.8891 29.7286ZM18.7038 25.9379L19.9993 23.3467L21.295 25.9379H18.7038Z" fill="#F3F1F1"/>
</svg>
