<svg width="24" height="24" viewBox="0 0 24 24" fill="none" xmlns="http://www.w3.org/2000/svg">
<path fill-rule="evenodd" clip-rule="evenodd" d="M20.1998 6.60001L16.8998 9.90001L18.6998 18.8C18.7998 19.1 18.6998 19.5 18.3998 19.7L17.6998 20.4C17.1998 20.9 16.2998 20.7 16.0998 20.1L13.4998 13.4L10.0998 16.8L10.2998 19C10.2998 19.3 10.1998 19.6 9.9998 19.8L8.8998 20.9L6.7998 17.4L3.2998 15.3L4.2998 14C4.4998 13.8 4.7998 13.7 5.0998 13.7L7.2998 13.9L10.6998 10.5L3.8998 7.90001C3.2998 7.60001 3.0998 6.80001 3.5998 6.30001L4.2998 5.60001C4.4998 5.40001 4.8998 5.30001 5.1998 5.30001L14.0998 7.10001L17.3998 3.80001C18.1998 3.00001 19.3998 3.00001 20.1998 3.80001V3.80001C20.9998 4.60001 20.9998 5.80001 20.1998 6.60001V6.60001Z" stroke="#2A2522" stroke-opacity="0.8" stroke-width="1.5" stroke-linecap="round" stroke-linejoin="round"/>
</svg>
