<svg width="142" height="53" viewBox="0 0 142 53" fill="none" xmlns="http://www.w3.org/2000/svg">
<path d="M21.8836 11.9681C21.9914 11.8831 22.061 11.7537 22.061 11.6067C22.061 11.3532 21.8522 11.1469 21.5957 11.1469C21.3391 11.1469 21.1304 11.3532 21.1304 11.6067C21.1304 11.7537 21.1986 11.8831 21.3064 11.9681C21.3965 11.9312 21.4929 11.9124 21.5957 11.9115C21.6985 11.9124 21.7945 11.9312 21.8836 11.9681Z" fill="url(#paint0_linear_475_4625)"/>
<path d="M22.2683 12.6653C22.2683 12.2985 21.9667 12.0005 21.5956 12.0005C21.2244 12.0005 20.9229 12.2985 20.9229 12.6653C20.9229 12.7826 20.9529 12.8918 21.0061 12.9862H22.1851C22.2383 12.8918 22.2683 12.7826 22.2683 12.6653Z" fill="url(#paint1_linear_475_4625)"/>
<path d="M23.0311 13.3975H20.1587V13.1022H23.0311V13.3975Z" fill="url(#paint2_linear_475_4625)"/>
<path d="M22.7908 15.6563H20.3892V13.4933H22.7908V15.6563Z" fill="url(#paint3_linear_475_4625)"/>
<path d="M22.6392 23.3995H20.5405V15.8491H22.6392V23.3995Z" fill="url(#paint4_linear_475_4625)"/>
<path d="M21.8673 10.1813C21.8673 10.091 21.8196 10.01 21.75 9.96284C21.7827 9.99791 21.8018 10.0451 21.8018 10.0963C21.8018 10.2083 21.7118 10.2973 21.5985 10.2973C21.4866 10.2973 21.3952 10.2083 21.3952 10.0963C21.3952 10.0451 21.4157 9.99791 21.447 9.96284C21.3775 10.01 21.3311 10.091 21.3311 10.1813C21.3311 10.3054 21.4184 10.4092 21.5344 10.4375V11.0417H21.6626V10.4375C21.78 10.4092 21.8673 10.3054 21.8673 10.1813Z" fill="url(#paint5_linear_475_4625)"/>
<path d="M29.9537 3.02067C30.1161 2.89391 30.2198 2.69838 30.2198 2.47722C30.2198 2.09559 29.9073 1.78543 29.5197 1.78543C29.1322 1.78543 28.8184 2.09559 28.8184 2.47722C28.8184 2.69838 28.9221 2.89391 29.0844 3.02067C29.2191 2.96583 29.3642 2.93751 29.5197 2.93572C29.6744 2.93751 29.819 2.96583 29.9537 3.02067Z" fill="url(#paint6_linear_475_4625)"/>
<path d="M30.5336 4.07252C30.5336 3.51963 30.0792 3.07057 29.5197 3.07057C28.9589 3.07057 28.5059 3.51963 28.5059 4.07252C28.5059 4.24783 28.5509 4.41235 28.6314 4.55664H30.4081C30.4872 4.41235 30.5336 4.24783 30.5336 4.07252Z" fill="url(#paint7_linear_475_4625)"/>
<path d="M31.6825 5.17425H27.3555V4.73059H31.6825V5.17425Z" fill="url(#paint8_linear_475_4625)"/>
<path d="M31.6825 20.8386H27.3555V20.395H31.6825V20.8386Z" fill="url(#paint9_linear_475_4625)"/>
<path d="M31.3197 8.57791H27.7036V5.31854H31.3197V8.57791Z" fill="url(#paint10_linear_475_4625)"/>
<path d="M31.4967 24.5686H27.5259V20.9897H31.4967V24.5686Z" fill="url(#paint11_linear_475_4625)"/>
<path d="M31.0932 20.2426H27.9302V8.86784H31.0932V20.2426Z" fill="url(#paint12_linear_475_4625)"/>
<path d="M29.9274 0.329038C29.9274 0.192838 29.8579 0.0728199 29.7514 0C29.8005 0.0539407 29.8306 0.124064 29.8306 0.202278C29.8306 0.369494 29.6941 0.505694 29.5235 0.505694C29.3557 0.505694 29.2179 0.369494 29.2179 0.202278C29.2179 0.124064 29.2479 0.0539407 29.297 0C29.1892 0.0728199 29.1196 0.192838 29.1196 0.329038C29.1196 0.51783 29.252 0.67291 29.428 0.716063V1.62496H29.6204V0.716063C29.7965 0.67291 29.9274 0.51783 29.9274 0.329038Z" fill="url(#paint13_linear_475_4625)"/>
<path d="M31.4739 23.0246V33.957L31.2801 34.0501C30.8235 34.1292 30.4141 34.1687 30.052 34.1687C30.4023 33.6931 30.6543 33.1852 30.808 32.6449C30.9599 32.1055 31.0363 31.504 31.0372 30.8406C31.0372 30.1771 30.9495 29.5289 30.7739 28.896C29.9424 30.5097 29.1182 32.1158 28.3013 33.7143C28.1703 33.7439 28.0143 33.7732 27.8333 33.8019C27.6504 33.8307 27.493 33.8451 27.3611 33.8451C27.1583 33.8451 26.954 33.8091 26.7484 33.7372C26.5456 33.6644 26.4 33.5381 26.3118 33.3583C26.2244 33.1785 26.1808 32.9519 26.1808 32.6786C26.1799 32.5339 26.1944 32.3388 26.2244 32.0934C26.2536 31.8488 26.2681 31.6834 26.2681 31.5971C24.6488 32.4044 23.6723 32.8795 23.3384 33.0225C23.1883 33.0899 23.04 33.1546 22.8936 33.2167V20.0821L31.4739 23.0246Z" fill="#231F20"/>
<path d="M22.6096 20.0821V33.3353C21.7627 33.6868 20.9922 33.9575 20.2981 34.1471C19.16 34.4501 18.0365 34.6016 16.9276 34.6016C15.7032 34.6016 14.7703 34.2128 14.1289 33.4351C14.0953 33.3947 14.062 33.3524 14.0293 33.3084V23.0246L22.6096 20.0821Z" fill="url(#paint14_linear_475_4625)"/>
<path d="M14.0293 26.5064V28.1759L22.6096 25.4007V23.5626L14.0293 26.5064Z" fill="url(#paint15_linear_475_4625)"/>
<path d="M31.4739 26.5064V28.1759L22.8936 25.4007V23.5626L31.4739 26.5064Z" fill="url(#paint16_linear_475_4625)"/>
<path d="M34.7839 25.0554L33.4248 26.3986L34.7839 27.7417L36.1444 26.3986L34.7839 25.0554ZM37.045 24.3286L35.6859 25.6704L37.045 27.0135L38.4041 25.6704L37.045 24.3286Z" fill="url(#paint17_linear_475_4625)"/>
<path d="M23.768 37.3795L23.3259 37.8178L22.4089 38.7227L21.0498 37.3795L21.1153 37.3148L22.4089 36.0351L22.6095 36.2346L22.8933 36.5138L23.768 37.3795Z" fill="url(#paint18_linear_475_4625)"/>
<path d="M26.4864 37.3795L25.1286 38.7227L23.9237 37.5346L23.7695 37.3795L25.1286 36.0351L25.7618 36.6635L26.4864 37.3795Z" fill="url(#paint19_linear_475_4625)"/>
<path fill-rule="evenodd" clip-rule="evenodd" d="M29.9072 39.2755L29.8936 39.2742C29.6088 39.2436 29.3623 39.1888 29.154 39.1097C28.9293 39.0225 28.7255 38.8885 28.5427 38.7078L28.5317 38.697L28.5222 38.6835C28.1606 38.2183 27.9341 37.5912 27.8481 36.8226C27.7826 36.2171 27.7471 35.8732 27.7267 35.6386C27.7257 35.6332 27.7248 35.6278 27.7239 35.6224C27.3337 35.6184 27.058 35.6035 26.867 35.5779C26.6173 35.5455 26.3553 35.4471 26.0946 35.2866L26.081 35.2785L26.0701 35.2691C25.8845 35.1217 25.7553 34.9347 25.6825 34.7081C25.6157 34.5018 25.5829 34.282 25.5829 34.0379C25.5884 33.9058 25.5929 33.7934 25.5966 33.7008L22.9903 34.7971L22.8593 34.8524C22.8092 34.874 22.7592 34.8956 22.7092 34.9171C21.9068 35.2543 21.1054 35.5914 20.3048 35.9285L20.2953 35.9326L20.2844 35.9366C19.8245 36.0823 19.3073 36.209 18.7451 36.3115C18.6942 36.3214 18.6414 36.3304 18.5868 36.3385C18.071 36.4234 17.5634 36.4679 17.0804 36.4679C16.4963 36.4679 15.9328 36.4073 15.4074 36.2886C14.8671 36.1645 14.3744 35.9555 13.9446 35.6683L13.9214 35.6521L13.9023 35.6319C13.4902 35.1949 13.145 34.6636 12.8734 34.05C12.767 33.8109 12.6519 33.4855 12.5282 33.0737C12.1325 33.9678 11.4557 34.7499 10.5087 35.4067C9.42656 36.1483 8.19573 36.5987 6.84891 36.7457L6.83663 36.7471H6.82298C6.60556 36.7471 6.40816 36.7179 6.23076 36.6594C6.03245 36.5947 5.85915 36.4715 5.71087 36.2899L5.69449 36.2697L5.68221 36.2454C5.47616 35.8382 5.37109 35.3932 5.37109 34.9252C5.37109 34.4425 5.47889 33.8909 5.69313 33.2881C5.79138 32.9928 5.9947 32.5114 6.33311 31.7778L6.66606 31.055L6.80251 31.8371C6.85573 32.1459 6.7684 32.5559 6.53506 33.0886C6.27852 33.6779 6.23895 33.9246 6.23895 34.019C6.23895 34.1323 6.27397 34.2438 6.34402 34.3535C6.40679 34.4559 6.50868 34.5508 6.64968 34.638C7.76999 34.6272 8.83025 34.3292 9.80045 33.7547C10.7693 33.1829 11.5635 32.3981 12.1611 31.4218C11.8282 29.7024 11.2401 28.0936 10.4131 26.6372L10.3695 26.5617L10.3845 26.4754C10.4391 26.1599 10.4977 25.8875 10.5523 25.6852C10.6055 25.4991 10.7011 25.2631 10.843 24.9651L11.0013 24.6307L11.251 24.9057C11.9046 25.6286 12.4095 26.8153 12.7506 28.4335L13.2337 30.7273C13.4929 31.8048 13.8286 32.6274 14.2284 33.1627C14.2585 33.2032 14.2889 33.2423 14.3199 33.28C14.9175 34.0055 15.7704 34.3575 16.9275 34.3575C18.0096 34.3575 19.1217 34.2078 20.2325 33.9111C20.9202 33.7237 21.6885 33.4527 22.514 33.1101C22.6068 33.0715 22.7005 33.0324 22.7951 32.9928C22.9407 32.9308 23.0876 32.8665 23.2359 32.8C23.5688 32.6584 24.55 32.181 26.156 31.3786L26.5149 31.2006V31.5971C26.5149 31.6928 26.5013 31.8601 26.4699 32.1217C26.4417 32.3464 26.4276 32.5321 26.4276 32.6786C26.4276 32.9141 26.4631 33.1052 26.534 33.2517C26.5941 33.3744 26.6882 33.4553 26.8329 33.5079C27.0112 33.57 27.1872 33.601 27.361 33.601C27.4765 33.601 27.6211 33.5875 27.7949 33.5605C27.9186 33.5408 28.0319 33.5205 28.1347 33.4998C28.8579 32.0866 29.7039 30.4306 30.554 28.7841L30.8447 28.2204L31.0125 28.8313C31.1926 29.4867 31.2841 30.1623 31.2841 30.8406C31.2841 31.5135 31.2049 32.1419 31.0453 32.711C30.927 33.1272 30.7537 33.5246 30.5254 33.9031C30.7492 33.8842 30.9861 33.8532 31.2363 33.81C31.6143 33.7426 32.0114 33.6536 32.4153 33.5457C32.8069 33.4405 33.2299 33.3205 33.7021 33.1802C33.8085 32.4736 33.8876 32.0016 33.9449 31.74C34.08 31.1602 34.2561 30.61 34.4703 30.0989C34.6941 29.5662 34.9943 29.0983 35.3627 28.7072C35.7298 28.3094 36.2101 27.9979 36.7887 27.7808L36.831 27.766H36.876C37.5078 27.766 38.0263 28.2218 38.4166 29.1226L38.4371 29.1711L38.4098 31.6483L38.04 31.4312C37.7603 31.2667 37.5406 31.0968 37.2717 30.4063C36.9906 29.6795 36.7655 29.6795 36.6577 29.6795C36.5772 29.6795 36.423 29.7078 36.1501 29.8413C35.7434 30.1232 35.435 30.3942 35.2331 30.6464C34.9452 30.997 34.806 31.3422 34.806 31.7063V31.7185L34.8046 31.7319C34.7841 31.9207 34.7828 32.0084 34.7828 32.03C34.7828 32.2268 34.7955 32.3765 34.821 32.479C34.8374 32.5509 34.8665 32.6624 34.9083 32.8135C35.0857 32.7748 35.3327 32.7029 35.6493 32.5977C36.1555 32.4291 36.5281 32.3469 36.7887 32.3469C37.0079 32.3469 37.2026 32.3765 37.3727 32.4359C37.5542 32.5006 37.7248 32.6125 37.894 32.777C38.1478 32.9802 38.3138 33.2122 38.392 33.4729C38.4657 33.7129 38.5012 33.9974 38.5012 34.3427V34.3885L38.4848 34.4303C38.2774 34.9657 38.085 35.4835 37.939 35.8732L37.9322 35.8921C37.6634 36.4666 37.3263 36.8941 36.9265 37.1597L36.8747 37.1948L36.8119 37.2002C36.7437 37.2065 36.6759 37.2096 36.6086 37.2096C36.1446 37.2096 35.7107 37.0599 35.3163 36.7646C34.8865 36.4383 34.5426 36.0243 34.2929 35.5334L34.2752 35.4984L34.2697 35.4592C34.2643 35.4201 34.2383 35.3284 34.1374 35.1585C34.0928 35.0839 34.0568 35.0151 34.0296 34.9522C33.2286 35.1181 32.4221 35.3257 31.6252 35.5712C31.6907 35.6494 31.7462 35.7321 31.7917 35.8193C31.9045 36.0351 31.9613 36.2486 31.9622 36.4598C31.9622 36.7268 31.8517 37.1085 31.6252 37.6263C31.3755 38.194 31.3127 38.4651 31.3059 38.5932L31.3004 38.6755L31.2459 38.7375C30.9361 39.0948 30.4899 39.2755 29.9209 39.2755H29.9072ZM29.3887 36.828C29.4869 36.9548 29.6143 37.0482 29.7708 37.1085C29.9454 37.1759 30.1269 37.2096 30.3234 37.211C30.1678 37.0464 29.9855 36.8972 29.7762 36.7633C29.5915 36.6455 29.401 36.5457 29.2045 36.4639L29.3887 36.828ZM35.7257 34.3966C35.8558 34.5773 36.0077 34.7382 36.1815 34.8794C36.4298 35.0817 36.6863 35.1801 36.9647 35.1801H36.992L37.0193 35.1868C37.0402 35.1913 37.0598 35.1936 37.078 35.1936C37.1053 35.1936 37.1294 35.1877 37.1503 35.1761C37.1494 35.1716 37.148 35.1662 37.1462 35.1599C37.0616 34.8942 36.9129 34.7108 36.6918 34.5908C36.4507 34.4595 36.1696 34.3939 35.8485 34.3939C35.8076 34.3939 35.7666 34.3948 35.7257 34.3966ZM30.1337 31.4016C29.8704 31.9423 29.7257 32.2471 29.6671 32.3846C29.6061 32.5249 29.5465 32.6795 29.4883 32.8485L29.5483 32.8148L29.5893 32.8067C29.8313 32.7609 29.9945 32.6786 30.0792 32.5599C30.1729 32.4278 30.2197 32.2588 30.2197 32.0529C30.2197 31.8708 30.1938 31.6659 30.1392 31.4258C30.1374 31.4177 30.1356 31.4096 30.1337 31.4016Z" fill="#1D4380"/>
<path fill-rule="evenodd" clip-rule="evenodd" d="M11.4351 24.7426C12.1283 25.5085 12.6373 26.6993 12.9934 28.3836C13.088 28.8331 13.1822 29.2821 13.2759 29.7307L13.4738 30.6707C13.7276 31.7198 14.0482 32.51 14.4262 33.0171C14.4544 33.0548 14.4826 33.0912 14.5108 33.1263C15.0594 33.7898 15.8495 34.1134 16.9275 34.1134C17.9877 34.1134 19.078 33.9664 20.1642 33.6765C20.8437 33.4904 21.6024 33.2234 22.4184 32.8849C22.5103 32.8472 22.6036 32.8081 22.6982 32.7676C22.8292 32.7123 22.9724 32.6503 23.1335 32.5775L23.1376 32.5761L23.1417 32.5748C23.4651 32.4359 24.4421 31.9598 26.0441 31.1615L26.7618 30.8028V31.5971C26.7618 31.7036 26.7482 31.8735 26.7154 32.154C26.6813 32.4183 26.6745 32.5855 26.6745 32.6786C26.6745 32.8741 26.7031 33.036 26.7577 33.1465C26.7796 33.1937 26.815 33.2409 26.9119 33.276C27.0675 33.3299 27.2149 33.3569 27.3609 33.3569C27.4646 33.356 27.5956 33.3439 27.7539 33.3205C27.8294 33.3079 27.9008 33.2953 27.9681 33.2827C28.679 31.8924 29.506 30.2782 30.3329 28.6735L30.9155 27.5461L31.2512 28.7666C31.4368 29.4435 31.5323 30.1407 31.5323 30.8406C31.5323 31.5351 31.4491 32.1864 31.2826 32.777C31.2026 33.0611 31.0975 33.3371 30.9674 33.605C31.0411 33.5942 31.1161 33.5821 31.1925 33.5686C31.5637 33.5039 31.9526 33.4162 32.3497 33.3097C32.6977 33.2167 33.0702 33.1115 33.4809 32.9901C33.5764 32.363 33.6487 31.9356 33.7033 31.6888V31.6847L33.7047 31.6807C33.8425 31.0927 34.0226 30.5291 34.2423 30.0045C34.477 29.4449 34.7936 28.9526 35.1784 28.5454C35.5741 28.1166 36.0859 27.7821 36.7013 27.5529L36.7859 27.5205H36.8759C37.6155 27.5205 38.2105 28.0276 38.643 29.0268L38.684 29.1212L38.6826 29.225L38.6608 31.2262L38.6512 32.0758L37.913 31.6416C37.6005 31.4568 37.3385 31.2559 37.0397 30.4927C36.9578 30.2796 36.7995 29.9249 36.6576 29.9249C36.6385 29.9249 36.5293 29.9303 36.2769 30.053C35.8975 30.316 35.6123 30.5668 35.4268 30.7974L35.4254 30.8015L35.4227 30.8042C35.1743 31.1049 35.0529 31.4002 35.0529 31.7063V31.7319L35.0502 31.7562C35.031 31.9383 35.0297 32.0165 35.0297 32.03C35.0297 32.2619 35.0488 32.3752 35.0611 32.4224C35.0674 32.4485 35.0752 32.4799 35.0843 32.5168C35.2084 32.4817 35.3667 32.4332 35.57 32.3657C36.1104 32.1864 36.4966 32.1028 36.7886 32.1028C37.0351 32.1028 37.2585 32.1374 37.4586 32.2066C37.6701 32.2821 37.8666 32.4089 38.059 32.595C38.3456 32.8269 38.538 33.098 38.6294 33.4014C38.7099 33.6657 38.7481 33.9732 38.7481 34.3427V34.433L38.7154 34.518C38.5093 35.052 38.3169 35.5685 38.1723 35.9582L38.1654 35.9757L38.1559 35.9946C37.8693 36.6109 37.5023 37.0707 37.0656 37.362L36.9605 37.4321L36.8336 37.4429C36.7581 37.4501 36.6831 37.4537 36.6085 37.4537C36.0899 37.4537 35.6042 37.2878 35.1661 36.9574C34.7063 36.6095 34.3379 36.1672 34.0718 35.6426L34.0363 35.5725L34.0254 35.4957C34.024 35.493 34.0131 35.4323 33.9258 35.2826C33.9148 35.2655 33.9044 35.248 33.8944 35.23C33.2667 35.3657 32.6394 35.5258 32.0126 35.7101C32.1436 35.96 32.2091 36.2099 32.2091 36.4598C32.2091 36.7646 32.0959 37.1665 31.8516 37.7247C31.5951 38.3087 31.5569 38.5366 31.5528 38.608L31.5419 38.7712L31.4341 38.8953C31.0752 39.3106 30.5662 39.521 29.9208 39.521H29.8935L29.8676 39.5169C29.561 39.4846 29.2922 39.4243 29.0611 39.3362C28.8055 39.2373 28.5744 39.0854 28.3679 38.8804L28.3461 38.8575L28.3256 38.8332C27.9367 38.3316 27.6925 37.6627 27.6024 36.8482C27.5533 36.3951 27.5205 36.0876 27.4987 35.8638C27.2108 35.857 26.9965 35.8422 26.8382 35.8206C26.549 35.7829 26.2556 35.6737 25.9636 35.493L25.9376 35.4781L25.9144 35.4592C25.6906 35.2826 25.5337 35.0533 25.4478 34.785C25.3754 34.5638 25.3386 34.3319 25.3359 34.0757L25.0711 34.1876L23.0912 35.0196C23.0466 35.0394 23.002 35.0587 22.9574 35.0776C22.9083 35.0983 22.8592 35.119 22.8101 35.1396L22.806 35.141L22.8032 35.1423C22.0027 35.4795 21.2026 35.8166 20.403 36.1537L20.3812 36.1618L20.3607 36.1686C19.8913 36.3182 19.3646 36.4464 18.7928 36.5515C18.7373 36.5614 18.6823 36.5709 18.6277 36.5799C18.0982 36.6675 17.577 36.712 17.0803 36.712C16.4772 36.712 15.8958 36.65 15.35 36.5259C14.781 36.3965 14.2611 36.1753 13.8067 35.8705L13.7603 35.8395L13.7221 35.7991C13.2909 35.3419 12.9293 34.7863 12.6468 34.1485C12.5913 34.0235 12.5345 33.8783 12.4763 33.7129C12.0519 34.4249 11.4406 35.0587 10.6478 35.6089C9.53291 36.3722 8.26388 36.8361 6.87612 36.9885L6.85019 36.9912H6.8229C6.5791 36.9912 6.35577 36.9579 6.1529 36.8914C5.9091 36.8114 5.69759 36.6621 5.51838 36.4437L5.48427 36.4019L5.46107 36.3547C5.23728 35.9123 5.12402 35.4323 5.12402 34.9252C5.12402 34.4155 5.23592 33.8397 5.45698 33.2126C5.56068 32.9024 5.7681 32.4143 6.10787 31.6767L6.77514 30.2324L7.04532 31.7967C7.10673 32.1527 7.0153 32.6071 6.76149 33.1856C6.4995 33.7857 6.48722 33.9853 6.48722 34.019C6.48722 34.0864 6.50769 34.1525 6.55681 34.2294C6.59047 34.2833 6.64596 34.3377 6.72329 34.3926C7.77127 34.3696 8.7633 34.0838 9.67346 33.5443C10.5809 33.009 11.3287 32.2794 11.9004 31.3746C11.5702 29.7173 10.9971 28.1638 10.1975 26.7573L10.1101 26.6049L10.1401 26.4336C10.1975 26.1064 10.2557 25.834 10.3148 25.6164C10.3721 25.4168 10.469 25.1768 10.6191 24.8612L10.937 24.1924L11.4351 24.7426ZM10.791 25.7486C10.741 25.9293 10.6864 26.1855 10.6273 26.5172C11.487 28.0294 12.0851 29.679 12.4217 31.4663C11.7949 32.519 10.9634 33.3515 9.92727 33.9637C8.89203 34.5769 7.77673 34.883 6.58137 34.8821C6.3776 34.767 6.22841 34.6335 6.1338 34.4816C6.03828 34.3305 5.99097 34.1763 5.99188 34.019C5.99188 33.8167 6.09741 33.4742 6.30846 32.9915C6.51951 32.5078 6.60275 32.1369 6.55818 31.8789C6.23796 32.5703 6.02736 33.067 5.92638 33.369C5.7217 33.9453 5.61891 34.464 5.618 34.9252C5.618 35.3577 5.71306 35.7613 5.90319 36.1362C6.01963 36.28 6.15472 36.3771 6.30846 36.4275C6.46129 36.4778 6.63232 36.503 6.82153 36.503C8.13424 36.3583 9.31595 35.9258 10.3667 35.2057C11.5311 34.3993 12.2598 33.4122 12.5527 32.2444C12.7574 33.0229 12.9398 33.592 13.0999 33.9516C13.3628 34.544 13.6907 35.0484 14.0837 35.4646C14.4922 35.7379 14.9516 35.933 15.4619 36.0499C15.9732 36.165 16.5126 36.2225 17.0803 36.2225C17.5579 36.2216 18.0464 36.1798 18.5458 36.0971C18.5977 36.089 18.6491 36.08 18.7 36.0701C19.2531 35.9694 19.7557 35.8472 20.2079 35.7033C21.0084 35.3662 21.8089 35.0295 22.6095 34.6933C22.7041 34.6528 22.7987 34.6124 22.8933 34.5719C23.8794 34.1566 24.866 33.7417 25.853 33.3272C25.853 33.4702 25.8453 33.7071 25.8298 34.0379C25.8298 34.2555 25.8594 34.4541 25.9185 34.6339C25.9749 34.8137 26.0768 34.9621 26.2242 35.079C26.4571 35.2219 26.6827 35.3073 26.901 35.3352C27.1221 35.3662 27.47 35.3783 27.9517 35.3783C27.9554 35.4377 27.9622 35.5172 27.9722 35.617C27.9958 35.875 28.0363 36.2679 28.0936 36.7956C28.1737 37.522 28.382 38.1019 28.7186 38.5352C28.8787 38.6934 29.0534 38.809 29.2426 38.8818C29.4318 38.9537 29.6579 39.0036 29.9208 39.0315C30.4157 39.0324 30.795 38.8809 31.0588 38.577C31.0725 38.3621 31.1857 38.0129 31.3986 37.5292C31.6087 37.0482 31.7138 36.6918 31.7138 36.4598C31.7138 36.2863 31.6665 36.1101 31.5719 35.9312C31.4764 35.7505 31.3345 35.595 31.1462 35.4646C32.1659 35.1338 33.1862 34.8677 34.2069 34.6663C34.2078 34.7526 34.2555 34.8753 34.3501 35.0345C34.4447 35.1927 34.4993 35.3221 34.5139 35.4228C34.7468 35.8831 35.0643 36.2652 35.4663 36.5691C35.8166 36.8325 36.1973 36.9642 36.6085 36.9642C36.6676 36.9642 36.7276 36.9615 36.7886 36.9561C37.1534 36.7125 37.4595 36.3236 37.7069 35.7896C37.8825 35.314 38.0649 34.8317 38.2541 34.3427C38.2541 34.0253 38.2214 33.7583 38.1559 33.5416C38.0904 33.3268 37.948 33.1326 37.7288 32.9591C37.5823 32.8152 37.4363 32.7177 37.2908 32.6665C37.1452 32.6161 36.9778 32.5909 36.7886 32.5909C36.5557 32.5918 36.2023 32.671 35.7283 32.8283C35.2535 32.9874 34.921 33.0737 34.7308 33.0872C34.659 32.8436 34.6085 32.6597 34.5794 32.5357C34.5503 32.4134 34.5357 32.2448 34.5357 32.03C34.5348 31.9715 34.5425 31.8632 34.5589 31.705C34.558 31.2869 34.7181 30.8833 35.0392 30.494C35.2585 30.2189 35.5869 29.9312 36.0244 29.6309C36.2855 29.5006 36.4966 29.4354 36.6576 29.4354C36.9919 29.4354 37.2485 29.662 37.5009 30.3173C37.7588 30.9727 37.9485 31.0914 38.1668 31.2209L38.1886 29.2183C37.8393 28.4119 37.4017 28.0087 36.8759 28.0087C36.3347 28.2101 35.8903 28.4982 35.5428 28.8731C35.1916 29.248 34.9101 29.6876 34.6981 30.1919C34.488 30.6954 34.3174 31.228 34.1864 31.7899C34.1263 32.065 34.039 32.5914 33.9244 33.369C33.4441 33.5129 32.9624 33.65 32.4793 33.7803C32.0499 33.8954 31.6501 33.9853 31.2799 34.05C30.8232 34.1292 30.4138 34.1687 30.0518 34.1687C30.402 33.6931 30.654 33.1852 30.8077 32.6449C30.9597 32.1046 31.0361 31.5027 31.037 30.8392C31.037 30.1767 30.9492 29.5285 30.7736 28.8947C29.9422 30.5084 29.118 32.1149 28.301 33.7143C28.17 33.7439 28.0136 33.7731 27.8316 33.8019C27.6497 33.8298 27.4928 33.8442 27.3609 33.8451C27.158 33.8442 26.9538 33.8082 26.7482 33.7372C26.5453 33.6644 26.3998 33.5381 26.3115 33.3583C26.2242 33.1784 26.1805 32.9514 26.1805 32.6773C26.1796 32.5325 26.1942 32.3379 26.2242 32.0933C26.2524 31.8488 26.2669 31.6834 26.2679 31.5971C24.6486 32.4044 23.672 32.8795 23.3381 33.0225C23.188 33.0899 23.0398 33.1546 22.8933 33.2167C22.7978 33.2571 22.7032 33.2967 22.6095 33.3353C21.7625 33.6859 20.9916 33.9565 20.2965 34.1471C19.1594 34.4501 18.0364 34.6016 16.9275 34.6016C15.703 34.6016 14.7696 34.2123 14.1274 33.4338C14.0946 33.3933 14.0619 33.3511 14.0291 33.307C13.6079 32.7415 13.2618 31.8978 12.9907 30.7758C12.8306 30.0117 12.67 29.2475 12.509 28.4834C12.1733 26.8993 11.6926 25.7612 11.0667 25.0689C10.9357 25.3422 10.8438 25.5688 10.791 25.7486ZM36.9646 35.4228C36.6289 35.4228 36.3156 35.3042 36.0244 35.0668C35.7315 34.8286 35.4982 34.5436 35.3244 34.2119C35.4991 34.1687 35.6738 34.1471 35.8484 34.1471C36.2132 34.1471 36.5334 34.2231 36.8091 34.375C37.0874 34.5252 37.2776 34.7598 37.3795 35.079C37.424 35.2075 37.3981 35.3037 37.3017 35.3675C37.2362 35.4134 37.1616 35.4363 37.0779 35.4363C37.0415 35.4363 37.0037 35.4318 36.9646 35.4228ZM29.6792 37.335C29.4755 37.2559 29.3081 37.1296 29.1771 36.9561L28.7186 36.0499C29.1398 36.1497 29.5373 36.3191 29.9112 36.5583C30.2824 36.7947 30.5771 37.0788 30.7955 37.4105C30.5908 37.4393 30.4375 37.4537 30.3356 37.4537C30.1027 37.4537 29.8839 37.4141 29.6792 37.335ZM29.4391 32.2889C29.5255 32.0866 29.788 31.5391 30.2264 30.6464C30.2692 30.8765 30.3201 31.1179 30.3793 31.3705C30.4375 31.6223 30.4671 31.8488 30.468 32.0502C30.4671 32.3091 30.4047 32.5253 30.281 32.6988C30.1573 32.8723 29.9422 32.9879 29.6356 33.0454L29.0679 33.369C29.1844 32.951 29.3081 32.5909 29.4391 32.2889ZM36.5689 34.8025C36.507 34.7683 36.4406 34.7391 36.3697 34.7149C36.4798 34.7985 36.5907 34.8582 36.7026 34.8942C36.6635 34.8591 36.6189 34.8286 36.5689 34.8025Z" fill="white"/>
<path d="M23.323 49.5539C11.8635 49.5539 2.57356 40.3732 2.57356 29.0484C2.57356 17.9312 11.5251 8.88268 22.6912 8.55229C22.4738 8.5451 22.2555 8.5415 22.0362 8.5415C9.86575 8.5415 0 18.2913 0 30.32C0 42.3475 9.86575 52.0972 22.0362 52.0972C34.2081 52.0972 44.0739 42.3475 44.0739 30.32C44.0739 30.1034 44.0702 29.8876 44.0629 29.6728C43.7286 40.709 34.5724 49.5539 23.323 49.5539Z" fill="#1D4380"/>
<path fill-rule="evenodd" clip-rule="evenodd" d="M13.0627 43.9077H11.6681C11.5353 43.9077 11.3843 43.8691 11.2151 43.7917C11.045 43.7135 10.9121 43.6218 10.8166 43.5166C10.5883 43.2676 10.4741 42.9377 10.4741 42.5268C10.4741 42.1385 10.5869 41.8112 10.8125 41.5451C11.0381 41.279 11.337 41.1459 11.709 41.1459C12.0593 41.1459 12.3458 41.2763 12.5687 41.537C12.7652 41.7699 12.8635 42.0998 12.8635 42.5268C12.8635 42.5772 12.8635 42.6522 12.8635 42.752C12.858 42.8518 12.8553 42.9264 12.8553 42.9759C12.8553 43.3643 12.9244 43.6749 13.0627 43.9077ZM12.3927 43.5504L12.3859 42.6023C12.3804 41.8697 12.1412 41.5033 11.6681 41.5033C11.2169 41.5033 10.9913 41.8225 10.9913 42.4608C10.9913 42.7547 11.0395 42.9961 11.1359 43.1849C11.2624 43.4285 11.4534 43.5504 11.709 43.5504H12.3927ZM11.5958 40.4717C11.5958 40.5382 11.5721 40.5967 11.5248 40.647C11.4766 40.6964 11.4207 40.7212 11.357 40.7212C11.2933 40.7212 11.2378 40.6964 11.1905 40.647C11.1423 40.5967 11.1182 40.5382 11.1182 40.4717C11.1182 40.3054 11.1978 40.2222 11.357 40.2222C11.4207 40.2222 11.4766 40.2474 11.5248 40.2977C11.5721 40.3472 11.5958 40.4052 11.5958 40.4717ZM12.1375 40.4717C12.1375 40.5382 12.1134 40.5967 12.0652 40.647C12.0179 40.6964 11.9624 40.7212 11.8987 40.7212C11.835 40.7212 11.7791 40.6964 11.7309 40.647C11.6836 40.5967 11.6599 40.5382 11.6599 40.4717C11.6599 40.4052 11.6836 40.3472 11.7309 40.2977C11.7791 40.2474 11.835 40.2222 11.8987 40.2222C12.0579 40.2222 12.1375 40.3054 12.1375 40.4717Z" fill="url(#paint20_linear_475_4625)"/>
<path d="M14.7343 43.9077H14.3113V44.0992C14.3122 44.4094 14.2076 44.6854 13.9974 44.9272C13.7873 45.1681 13.5207 45.2886 13.1978 45.2886H13.165V44.6898C13.3988 44.6898 13.574 44.5734 13.6904 44.3406C13.7868 44.1626 13.835 43.9378 13.835 43.6663L13.8419 41.9524C13.8419 41.6593 13.7755 41.3905 13.6426 41.1459H14.5119C14.3781 41.3626 14.3113 41.6314 14.3113 41.9524V43.5503H14.7343V43.9077Z" fill="url(#paint21_linear_475_4625)"/>
<path fill-rule="evenodd" clip-rule="evenodd" d="M17.5534 43.9077H17.1154C17.0298 44.1352 16.8825 44.3239 16.6732 44.4741C16.4631 44.6233 16.2439 44.6979 16.0155 44.6979H14.8297V43.9077H14.4395V43.5584H14.8297V42.4189C14.8297 42.053 14.928 41.7591 15.1245 41.537C15.3528 41.2763 15.6394 41.1459 15.9841 41.1459C16.3398 41.1459 16.6346 41.2763 16.8684 41.537C17.1013 41.7977 17.2181 42.1169 17.2191 42.4945V43.0433C17.2181 43.2699 17.2127 43.4416 17.2027 43.5584H17.5534V43.9077ZM16.7005 43.2429V42.4109C16.7005 42.1609 16.65 41.9528 16.5491 41.7865C16.4272 41.5923 16.252 41.4952 16.0237 41.4952C15.769 41.4952 15.5807 41.6202 15.4588 41.8701C15.3578 42.0643 15.3073 42.3057 15.3073 42.5942V44.3325H15.9841C16.2389 44.3325 16.4299 44.2102 16.5572 43.9657C16.6528 43.7778 16.7005 43.5369 16.7005 43.2429Z" fill="url(#paint22_linear_475_4625)"/>
<path fill-rule="evenodd" clip-rule="evenodd" d="M20.0616 43.9077H17.2656V43.5503H18.0939L17.4485 42.5268C17.4485 42.1331 17.5654 41.8058 17.7992 41.5451C18.033 41.2844 18.3277 41.154 18.6834 41.154C19.0227 41.154 19.3066 41.2857 19.5349 41.5492C19.7632 41.8126 19.8774 42.1385 19.8774 42.5268L19.1378 43.5503H20.0616V43.9077ZM19.3602 42.4608C19.3602 42.2324 19.2979 42.0157 19.1733 41.8108C19.0486 41.6058 18.8722 41.5033 18.6438 41.5033C18.1926 41.5033 17.967 41.8225 17.967 42.4608L18.5961 43.5503L19.3602 42.4608Z" fill="url(#paint23_linear_475_4625)"/>
<path d="M21.1355 43.9077H19.8691V43.5503H20.4668V40.5229C20.4668 40.2173 20.4004 39.948 20.2676 39.7152H21.1355C21.0081 39.9651 20.9444 40.2343 20.9444 40.5229V43.1013C20.9444 43.3899 21.0081 43.6587 21.1355 43.9077Z" fill="url(#paint24_linear_475_4625)"/>
<path d="M22.362 43.9077H21.4941C21.6215 43.6587 21.6852 43.4011 21.6852 43.135V40.4973C21.6852 40.2312 21.6215 39.9732 21.4941 39.7233H22.362C22.2292 39.9507 22.1628 40.22 22.1628 40.531V43.1013C22.1628 43.4115 22.2292 43.6803 22.362 43.9077Z" fill="url(#paint25_linear_475_4625)"/>
<path fill-rule="evenodd" clip-rule="evenodd" d="M25.1171 43.8996C25.1171 44.2763 25.0084 44.6008 24.791 44.8732C24.5727 45.1447 24.2993 45.2805 23.9709 45.2805C23.5834 45.2805 23.2595 45.1447 22.9993 44.8732C22.8765 44.7456 22.7783 44.5959 22.7046 44.4242H23.2613C23.3095 44.4736 23.3682 44.5177 23.4374 44.5563C23.6229 44.6678 23.8008 44.7123 23.9709 44.6898C24.1774 44.6898 24.3393 44.5986 24.4567 44.4161C24.4985 44.355 24.5595 44.1855 24.6395 43.9077H23.9231C23.6311 43.9248 23.3441 43.7944 23.0621 43.5166C22.8392 43.2784 22.7278 42.9485 22.7278 42.5268C22.7278 42.1277 22.8447 41.7977 23.0785 41.537C23.3123 41.2763 23.607 41.1459 23.9627 41.1459C24.302 41.1459 24.579 41.2682 24.7937 41.5127C25.0093 41.7564 25.1171 42.0584 25.1171 42.4189V43.8996ZM24.6395 43.5503V42.6023C24.6395 42.3084 24.5918 42.0643 24.4963 41.8701C24.3689 41.6256 24.1779 41.5033 23.9231 41.5033C23.4719 41.5033 23.2463 41.8224 23.2463 42.4607C23.2463 42.7547 23.2968 42.9961 23.3978 43.1849C23.5197 43.4285 23.708 43.5503 23.9627 43.5503H24.6395Z" fill="url(#paint26_linear_475_4625)"/>
<path fill-rule="evenodd" clip-rule="evenodd" d="M29.44 43.9077H27.6961C27.4678 43.9077 27.2504 43.9549 27.0439 44.0493C26.9374 44.0987 26.8842 44.1711 26.8842 44.2664C26.8842 44.3491 26.9111 44.4125 26.9647 44.4565C27.1549 44.6229 27.4332 44.706 27.7998 44.706C28.0546 44.706 28.2906 44.6507 28.508 44.5402C28.5717 44.5069 28.6304 44.4624 28.6841 44.4067H29.2408C29.1671 44.5847 29.0689 44.7375 28.9461 44.8651C28.6759 45.1474 28.3097 45.2886 27.8476 45.2886C27.3645 45.2886 26.972 45.1389 26.67 44.8395C26.489 44.6624 26.3984 44.488 26.3984 44.3163C26.3984 44.105 26.514 43.9243 26.745 43.7742C26.9761 43.625 27.2426 43.5503 27.5447 43.5503H28.5012V42.6023C28.5012 42.3138 28.4507 42.0724 28.3498 41.8782C28.2224 41.6283 28.0336 41.5033 27.7835 41.5033C27.3377 41.5033 27.1098 41.8058 27.0998 42.4109C27.0944 42.6383 27.1603 42.8711 27.2977 43.1094H26.4298C26.5044 42.9592 26.5549 42.8401 26.5813 42.752C26.6031 42.6801 26.619 42.5304 26.629 42.303C26.6663 41.9757 26.7673 41.7204 26.932 41.537C27.1658 41.2763 27.4605 41.1459 27.8162 41.1459C28.161 41.1459 28.4398 41.2664 28.6527 41.5073C28.8647 41.7492 28.9706 42.053 28.9706 42.4189V43.5503H29.44V43.9077ZM27.9677 44.2732C27.9677 44.4404 27.8881 44.524 27.7289 44.524C27.5688 44.524 27.4892 44.4404 27.4901 44.2732C27.4892 44.2066 27.5128 44.1486 27.561 44.0992C27.6093 44.0488 27.6652 44.0237 27.7289 44.0237C27.8881 44.0237 27.9677 44.1068 27.9677 44.2732Z" fill="url(#paint27_linear_475_4625)"/>
<path d="M32.4505 43.9077H29.1455V43.5503H31.5103V42.5942C31.5103 42.3057 31.4598 42.0643 31.3588 41.8701C31.2315 41.6256 31.0404 41.5033 30.7857 41.5033C30.5628 41.5033 30.3904 41.5977 30.2685 41.7865C30.1621 41.9528 30.1089 42.1582 30.1089 42.4028C30.1089 42.6356 30.1753 42.8711 30.3081 43.1094H29.4403C29.5148 42.9539 29.5626 42.8347 29.5835 42.752C29.5999 42.6298 29.624 42.4437 29.6559 42.1937C29.6977 41.9222 29.7932 41.7033 29.9424 41.537C30.1817 41.2763 30.476 41.1459 30.8253 41.1459C31.1655 41.1459 31.4525 41.2763 31.6863 41.537C31.8828 41.7591 31.9811 42.053 31.9811 42.4189V43.5584L32.4505 43.5503V43.9077Z" fill="url(#paint28_linear_475_4625)"/>
<path d="M33.3825 43.9077H32.1953V43.5503H32.5692V40.531C32.5692 40.2092 32.5032 39.9399 32.3713 39.7233H33.246C33.1087 39.9453 33.04 40.2146 33.04 40.531V43.5503H33.3825V43.9077Z" fill="url(#paint29_linear_475_4625)"/>
<path d="M34.4646 43.9077H33.1982V43.5503H33.7959V40.5229C33.7959 40.2173 33.7295 39.948 33.5967 39.7152H34.4646C34.3372 39.9651 34.2735 40.2343 34.2735 40.5229V43.1013C34.2735 43.3899 34.3372 43.6587 34.4646 43.9077Z" fill="url(#paint30_linear_475_4625)"/>
<path d="M60.766 16.4625H60.5224C60.5224 16.1414 60.3734 15.9808 60.0756 15.9808H56.534V23.5721C56.534 23.8665 56.7307 24.027 57.1242 24.0538V24.2866H52.819V24.0538C53.2126 24.027 53.4093 23.8665 53.4093 23.5721V15.9808H49.8704C49.6267 15.9808 49.4769 16.1414 49.4209 16.4625H49.1772V12.9545H49.4209C49.4209 13.3219 49.5807 13.5057 49.9002 13.5057H60.0648C60.3084 13.5057 60.461 13.3219 60.5224 12.9545H60.766V16.4625Z" fill="#1D4380"/>
<path d="M72.9099 24.779H72.6446C72.5633 24.5631 72.4884 24.4284 72.4198 24.3749C72.353 24.316 72.187 24.2866 71.9216 24.2866H62.8672V24.0244C63.2463 24.0172 63.4358 23.8567 63.4358 23.5427V16.021C63.4358 15.6999 63.2463 15.5384 62.8672 15.5366V15.2771H72.0759C72.455 15.2771 72.6446 15.113 72.6446 14.7847H72.9099V17.6184H72.6446C72.6446 17.2902 72.4514 17.1261 72.0651 17.1261H66.2355V18.6138H69.8882C70.112 18.6138 70.2645 18.5906 70.3457 18.5443C70.427 18.4979 70.4676 18.357 70.4676 18.1215H70.7329V20.9284H70.4676C70.4532 20.7197 70.4089 20.585 70.3349 20.5244C70.2609 20.4637 70.112 20.4334 69.8882 20.4334H66.2355V22.4349H71.9433C72.3223 22.4349 72.5561 22.2708 72.6446 21.9426H72.9099V24.779Z" fill="#1D4380"/>
<path d="M88.0755 24.2866H84.4526V24.0244C84.8317 23.9976 85.0212 23.8371 85.0212 23.5427V17.8298L81.837 23.7621L78.8261 17.8004V23.5427C78.8261 23.8638 79.0156 24.0244 79.3947 24.0244V24.2866H76.0264V24.0244C76.4072 24.0101 76.5977 23.8495 76.5977 23.5427V16.0209C76.5977 15.6999 76.4072 15.5384 76.0264 15.5366V15.2771H80.6565V15.5366C80.3929 15.5705 80.2611 15.6347 80.2611 15.7293C80.2611 15.7971 80.3731 16.045 80.5969 16.4732L81.9697 19.2587L83.4968 16.3715C83.6936 16.0236 83.7919 15.7962 83.7919 15.6891C83.7919 15.6214 83.6593 15.5705 83.3939 15.5366V15.2771H88.0755V15.5366C87.6946 15.5848 87.5041 15.7462 87.5041 16.0209V23.5427C87.5041 23.8371 87.6946 23.9976 88.0755 24.0244V24.2866Z" fill="#1D4380"/>
<path d="M102.323 24.2866H98.3865V24.0244C98.7656 24.0047 98.9551 23.8977 98.9551 23.7033V20.5752H94.4279V23.7033C94.4279 23.8977 94.6174 24.0047 94.9965 24.0244V24.2866H91.0596V24.0244C91.4404 24.0047 91.6309 23.8977 91.6309 23.7033V15.8604C91.6309 15.6731 91.4404 15.5652 91.0596 15.5366V15.2771H94.9965V15.5366C94.6174 15.5652 94.4279 15.6731 94.4279 15.8604V18.464H98.9551V15.8604C98.9551 15.6731 98.7656 15.5652 98.3865 15.5366V15.2771H102.323V15.5366C101.944 15.5652 101.755 15.6731 101.755 15.8604V23.7033C101.755 23.8977 101.944 24.0047 102.323 24.0244V24.2866Z" fill="#1D4380"/>
<path d="M115.209 24.779H114.943C114.862 24.5631 114.788 24.4284 114.721 24.3749C114.653 24.316 114.487 24.2866 114.223 24.2866H105.166V24.0244C105.547 24.0172 105.737 23.8567 105.737 23.5427V16.021C105.737 15.6999 105.547 15.5384 105.166 15.5366V15.2771H114.375C114.754 15.2771 114.943 15.113 114.943 14.7847H115.209V17.6184H114.943C114.943 17.2902 114.75 17.1261 114.364 17.1261H108.534V18.6138H112.187C112.411 18.6138 112.563 18.5906 112.645 18.5443C112.726 18.4979 112.766 18.357 112.766 18.1215H113.032V20.9284H112.766C112.754 20.7197 112.71 20.585 112.634 20.5244C112.56 20.4637 112.411 20.4334 112.187 20.4334H108.534V22.4349H114.242C114.621 22.4349 114.855 22.2708 114.943 21.9426H115.209V24.779Z" fill="#1D4380"/>
<path d="M128.146 24.779H127.881C127.8 24.5631 127.725 24.4284 127.656 24.3749C127.589 24.316 127.423 24.2866 127.158 24.2866H118.104V24.0244C118.483 24.0172 118.672 23.8567 118.672 23.5427V16.021C118.672 15.6999 118.483 15.5384 118.104 15.5366V15.2771H127.312C127.691 15.2771 127.881 15.113 127.881 14.7847H128.146V17.6184H127.881C127.881 17.2902 127.688 17.1261 127.301 17.1261H121.472V18.6138H125.124C125.348 18.6138 125.501 18.5906 125.582 18.5443C125.663 18.4979 125.704 18.357 125.704 18.1215H125.969V20.9284H125.704C125.689 20.7197 125.645 20.585 125.571 20.5244C125.497 20.4637 125.348 20.4334 125.124 20.4334H121.472V22.4349H127.18C127.559 22.4349 127.792 22.2708 127.881 21.9426H128.146V24.779Z" fill="#1D4380"/>
<path fill-rule="evenodd" clip-rule="evenodd" d="M141.693 19.8206C141.693 21.196 141.323 22.2851 140.582 23.0878C139.844 23.887 138.752 24.2866 137.306 24.2866H131V24.0244C131.229 24.0101 131.382 23.9664 131.458 23.8933C131.532 23.813 131.569 23.6417 131.569 23.3795V16.1815C131.569 15.9532 131.534 15.7953 131.466 15.7079C131.399 15.6151 131.244 15.558 131 15.5366V15.2771H137.306C138.683 15.2771 139.759 15.682 140.534 16.4919C141.306 17.2964 141.693 18.406 141.693 19.8206ZM138.985 19.8206C138.985 18.8698 138.755 18.183 138.294 17.7602C137.832 17.3375 137.059 17.1261 135.974 17.1261H134.366V22.4349H135.904C137.084 22.4349 137.891 22.2173 138.324 21.782C138.765 21.3467 138.985 20.693 138.985 19.8206Z" fill="#1D4380"/>
<path d="M61.6836 34.5565C61.6818 34.9186 61.6863 35.2522 61.6971 35.5572C61.7079 35.8641 61.726 36.1468 61.7513 36.4055C62.1664 36.459 62.4237 36.5009 62.523 36.5312C62.6222 36.5616 62.671 36.6026 62.6692 36.6543C62.6692 36.6882 62.6547 36.715 62.6258 36.7346C62.597 36.7542 62.5591 36.764 62.5121 36.764C62.485 36.764 62.4219 36.7596 62.3226 36.7507C61.911 36.7114 61.5148 36.6918 61.1339 36.6918C60.744 36.6918 60.3451 36.7114 59.9371 36.7507C59.8415 36.7596 59.781 36.764 59.7557 36.764C59.707 36.764 59.6673 36.7542 59.6366 36.7346C59.6077 36.715 59.5933 36.6882 59.5933 36.6543C59.5933 36.599 59.6519 36.5544 59.7693 36.5205C59.8866 36.4866 60.1348 36.4501 60.5139 36.4108C60.5373 36.1415 60.5545 35.8542 60.5653 35.5492C60.5761 35.2424 60.5816 34.9115 60.5816 34.5565V32.2285C60.5816 31.8735 60.5761 31.5444 60.5653 31.2411C60.5545 30.9396 60.5373 30.6551 60.5139 30.3875C60.1546 30.3483 59.911 30.3099 59.7828 30.2725C59.6564 30.2368 59.5933 30.1895 59.5933 30.1306C59.5933 30.1003 59.6077 30.0745 59.6366 30.0531C59.6673 30.0316 59.707 30.0209 59.7557 30.0209C59.781 30.0209 59.8397 30.0254 59.9317 30.0343C60.3433 30.0807 60.744 30.1039 61.1339 30.1039C61.5148 30.1039 61.9128 30.0807 62.328 30.0343C62.4237 30.0254 62.485 30.0209 62.5121 30.0209C62.5591 30.0209 62.597 30.0316 62.6258 30.0531C62.6547 30.0745 62.6692 30.1003 62.6692 30.1306C62.671 30.1895 62.6078 30.2368 62.4796 30.2725C62.3533 30.3099 62.1105 30.3483 61.7513 30.3875C61.726 30.6515 61.7079 30.9343 61.6971 31.2358C61.6863 31.539 61.6818 31.8699 61.6836 32.2285V33.2908H64.9653V32.2285C64.9635 31.8735 64.9571 31.5444 64.9463 31.2411C64.9355 30.9396 64.9183 30.6551 64.8949 30.3875C64.5356 30.3483 64.2929 30.3099 64.1665 30.2725C64.0383 30.2368 63.9743 30.1895 63.9743 30.1306C63.9743 30.0985 63.9887 30.0718 64.0176 30.0504C64.0447 30.0308 64.0817 30.0209 64.1286 30.0209C64.1521 30.0209 64.2125 30.0254 64.31 30.0343C64.727 30.0807 65.1286 30.1039 65.5149 30.1039C65.8958 30.1039 66.2938 30.0807 66.709 30.0343C66.8083 30.0254 66.8697 30.0209 66.8931 30.0209C66.9401 30.0209 66.9771 30.0308 67.0041 30.0504C67.0294 30.0718 67.042 30.0985 67.042 30.1306C67.042 30.1895 66.9798 30.2368 66.8552 30.2725C66.7289 30.3099 66.4879 30.3483 66.1323 30.3875C66.1088 30.6854 66.0898 30.9869 66.0754 31.292C66.061 31.5988 66.0537 31.911 66.0537 32.2285V34.5565C66.0537 34.8794 66.061 35.1951 66.0754 35.5037C66.0898 35.8123 66.1088 36.1147 66.1323 36.4108C66.5438 36.4608 66.7984 36.5009 66.8958 36.5312C66.9933 36.5616 67.042 36.6026 67.042 36.6543C67.042 36.6882 67.0294 36.715 67.0041 36.7346C66.9771 36.7542 66.9401 36.764 66.8931 36.764C66.8697 36.764 66.8065 36.7596 66.7036 36.7507C66.292 36.7114 65.8958 36.6918 65.5149 36.6918C65.1286 36.6918 64.7279 36.7114 64.3127 36.7507C64.2134 36.7596 64.1521 36.764 64.1286 36.764C64.0817 36.764 64.0447 36.7542 64.0176 36.7346C63.9887 36.715 63.9743 36.6882 63.9743 36.6543C63.9743 36.599 64.0329 36.5544 64.1503 36.5205C64.2694 36.4866 64.5185 36.4483 64.8976 36.4055C64.9192 36.1397 64.9355 35.8542 64.9463 35.5492C64.9571 35.2424 64.9635 34.9115 64.9653 34.5565V33.5263H61.6836V34.5565Z" fill="url(#paint31_linear_475_4625)"/>
<path fill-rule="evenodd" clip-rule="evenodd" d="M69.1835 34.5565C69.0247 35.0506 68.9073 35.4386 68.8315 35.7204C68.7557 36.0041 68.707 36.2342 68.6853 36.4108C69.0662 36.4501 69.3153 36.4866 69.4326 36.5205C69.55 36.5544 69.6086 36.599 69.6086 36.6543C69.6086 36.6882 69.5969 36.715 69.5734 36.7346C69.5482 36.7542 69.5121 36.764 69.4651 36.764C69.429 36.764 69.2765 36.7506 69.0075 36.7239C68.7404 36.6953 68.4904 36.6811 68.2575 36.6811C68.0174 36.6811 67.7629 36.6953 67.4939 36.7239C67.225 36.7506 67.0743 36.764 67.0418 36.764C66.9966 36.764 66.9596 36.7542 66.9308 36.7346C66.9037 36.715 66.8901 36.6882 66.8901 36.6543C66.8901 36.599 66.9497 36.5544 67.0688 36.5205C67.188 36.4866 67.4389 36.4501 67.8216 36.4108C68.0201 36.0808 68.2214 35.7196 68.4254 35.3271C68.6294 34.9329 68.8397 34.5003 69.0563 34.0293L69.9525 32.0867C70.0861 31.8012 70.2106 31.5149 70.3262 31.2277C70.4417 30.9405 70.5473 30.6604 70.643 30.3875C70.6791 30.2912 70.7134 30.1708 70.7459 30.0263C70.7892 29.839 70.8451 29.7453 70.9137 29.7453C70.9661 29.7471 71.0067 29.8363 71.0356 30.0129C71.041 30.0361 71.0437 30.0539 71.0437 30.0664C71.0834 30.2787 71.1701 30.5855 71.3036 30.9869C71.4372 31.3883 71.6042 31.8458 71.8046 32.3596L72.8389 34.9525C72.9039 35.1059 72.9932 35.311 73.1069 35.5679C73.2207 35.8248 73.3452 36.1058 73.4806 36.4108C73.8922 36.4608 74.1467 36.5009 74.2441 36.5312C74.3416 36.5616 74.3904 36.6026 74.3904 36.6543C74.3904 36.6882 74.3759 36.715 74.347 36.7346C74.32 36.7542 74.2848 36.764 74.2414 36.764C74.227 36.764 74.0682 36.7506 73.7649 36.7239C73.4598 36.6953 73.1593 36.6811 72.8632 36.6811C72.4697 36.6811 72.05 36.7025 71.6042 36.7453C71.485 36.7578 71.4092 36.764 71.3767 36.764C71.3316 36.764 71.2946 36.7542 71.2657 36.7346C71.2386 36.715 71.2251 36.6882 71.2251 36.6543C71.2251 36.599 71.2838 36.5544 71.4011 36.5205C71.5184 36.4866 71.7675 36.4501 72.1484 36.4108C72.1015 36.1932 72.0275 35.9309 71.9264 35.6241C71.8235 35.3173 71.6917 34.9614 71.5311 34.5565H69.1835ZM69.2756 34.3237H71.4336L70.4074 31.5916L69.2756 34.3237Z" fill="url(#paint32_linear_475_4625)"/>
<path d="M75.4304 32.2285C75.4304 31.8735 75.4249 31.5444 75.4141 31.2411C75.4033 30.9396 75.3852 30.6551 75.3599 30.3875C75.0007 30.3483 74.758 30.3099 74.6316 30.2725C74.5052 30.2368 74.4421 30.1895 74.4421 30.1306C74.4421 30.1003 74.4565 30.0745 74.4854 30.0531C74.5143 30.0316 74.554 30.0209 74.6045 30.0209C74.628 30.0209 74.6866 30.0254 74.7805 30.0343C75.1921 30.0807 75.5928 30.1039 75.9827 30.1039C76.3636 30.1039 76.7616 30.0807 77.1768 30.0343C77.2725 30.0254 77.3338 30.0209 77.3609 30.0209C77.4078 30.0209 77.4458 30.0316 77.4746 30.0531C77.5035 30.0745 77.518 30.1003 77.518 30.1306C77.518 30.1895 77.4548 30.2368 77.3284 30.2725C77.2021 30.3099 76.9593 30.3483 76.6001 30.3875C76.5748 30.6515 76.5567 30.9343 76.5459 31.2358C76.5351 31.539 76.5297 31.8699 76.5297 32.2285V35.0248C76.5297 35.4261 76.5071 35.7722 76.462 36.063C76.4186 36.3537 76.3501 36.5963 76.2562 36.7908C76.1551 37.0209 76.0161 37.2332 75.8392 37.4276C75.6623 37.6221 75.4177 37.8272 75.1054 38.0431C74.8491 38.2215 74.5901 38.374 74.3283 38.5007C74.0666 38.6273 73.905 38.6906 73.8437 38.6906C73.8094 38.6906 73.7832 38.6844 73.7651 38.6719C73.7453 38.6594 73.7354 38.6442 73.7354 38.6264C73.7354 38.5568 73.8193 38.4739 73.9872 38.3776C74.155 38.283 74.2868 38.1965 74.3825 38.118C74.6316 37.9182 74.8193 37.7291 74.9457 37.5507C75.0702 37.3723 75.1713 37.1636 75.2489 36.9246C75.3013 36.7533 75.3446 36.5107 75.3789 36.1968C75.4132 35.881 75.4304 35.5385 75.4304 35.1692V32.2285Z" fill="url(#paint33_linear_475_4625)"/>
<path d="M79.0426 32.2285C79.0408 31.8735 79.0345 31.5444 79.0237 31.2411C79.0129 30.9396 78.9957 30.6551 78.9723 30.3875C78.613 30.3483 78.3702 30.3099 78.2439 30.2725C78.1157 30.2368 78.0516 30.1895 78.0516 30.1306C78.0516 30.1003 78.067 30.0745 78.0977 30.0531C78.1266 30.0316 78.1654 30.0209 78.2141 30.0209C78.2394 30.0209 78.2989 30.0254 78.3928 30.0343C78.8044 30.0807 79.2042 30.1039 79.5923 30.1039C79.9732 30.1039 80.3712 30.0807 80.7864 30.0343C80.8821 30.0254 80.9443 30.0209 80.9732 30.0209C81.0183 30.0209 81.0563 30.0316 81.0869 30.0531C81.1158 30.0745 81.1303 30.1003 81.1303 30.1306C81.1303 30.1895 81.0671 30.2368 80.9407 30.2725C80.8126 30.3099 80.5698 30.3483 80.2124 30.3875C80.1871 30.6515 80.169 30.9343 80.1582 31.2358C80.1474 31.539 80.142 31.8699 80.142 32.2285V35.0248C80.142 35.4261 80.1194 35.7722 80.0743 36.063C80.0291 36.3537 79.9606 36.5963 79.8685 36.7908C79.7656 37.0209 79.6257 37.2332 79.4488 37.4276C79.2737 37.6221 79.0291 37.8272 78.715 38.0431C78.4587 38.2215 78.1997 38.374 77.9379 38.5007C77.678 38.6273 77.5164 38.6906 77.4533 38.6906C77.419 38.6906 77.3928 38.6844 77.3747 38.6719C77.3567 38.6594 77.3477 38.6442 77.3477 38.6264C77.3477 38.5568 77.4307 38.4739 77.5968 38.3776C77.7646 38.283 77.8964 38.1965 77.9921 38.118C78.243 37.9182 78.4307 37.7291 78.5553 37.5507C78.6816 37.3723 78.7836 37.1636 78.8612 36.9246C78.9136 36.7533 78.9569 36.5107 78.9912 36.1968C79.0237 35.881 79.0408 35.5385 79.0426 35.1692V32.2285Z" fill="url(#paint34_linear_475_4625)"/>
<path d="M89.3556 33.9384C88.8015 34.2755 88.4197 34.552 88.2103 34.7679C88.0009 34.9855 87.8962 35.2031 87.8962 35.4208C87.8962 35.4386 87.898 35.4689 87.9016 35.5118C87.9052 35.5546 87.907 35.5867 87.907 35.6081C87.907 35.6455 87.9007 35.6741 87.8881 35.6937C87.8755 35.7133 87.8601 35.7231 87.8421 35.7231C87.7789 35.7231 87.7347 35.6759 87.7094 35.5813C87.6823 35.4868 87.6688 35.3244 87.6688 35.0943C87.6688 34.7286 87.7762 34.4066 87.991 34.1283C88.204 33.8483 88.7184 33.4621 89.5343 32.9697C89.5939 32.934 89.6815 32.8823 89.797 32.8145C90.3367 32.4898 90.6066 32.2606 90.6066 32.1268C90.6066 32.1001 90.603 32.0787 90.5958 32.0626C90.5885 32.0483 90.5804 32.0412 90.5714 32.0412C90.5551 32.0394 90.5109 32.0537 90.4387 32.084C90.3665 32.1126 90.2988 32.1268 90.2356 32.1268C90.0876 32.1268 89.973 32.0903 89.8918 32.0171C89.8123 31.944 89.7726 31.8432 89.7726 31.7147C89.7726 31.5774 89.8187 31.4623 89.9107 31.3696C90.0046 31.2786 90.1192 31.2331 90.2546 31.2331C90.4369 31.2331 90.5813 31.3009 90.6878 31.4365C90.7925 31.572 90.8449 31.7576 90.8449 31.993C90.8449 32.2909 90.7375 32.5906 90.5226 32.8921C90.3078 33.1918 89.991 33.487 89.5723 33.7778C89.7094 33.9455 89.8114 34.1212 89.8782 34.3049C89.9468 34.4887 89.9811 34.6831 89.9811 34.8883C89.9811 35.4627 89.7465 35.9381 89.2771 36.3145C88.8078 36.6909 88.2058 36.8791 87.4711 36.8791C87.1029 36.8791 86.7635 36.8256 86.453 36.7185C86.1444 36.6115 85.8691 36.4527 85.6272 36.2422C85.3546 35.9996 85.147 35.7214 85.0044 35.4074C84.8618 35.0952 84.7905 34.7616 84.7905 34.4066C84.7905 33.8501 84.9548 33.3827 85.2833 33.0045C85.6119 32.6245 86.0532 32.398 86.6074 32.3248C86.4034 32.1036 86.2599 31.9119 86.1768 31.7495C86.0956 31.589 86.055 31.4195 86.055 31.2411C86.055 30.8736 86.1922 30.5615 86.4666 30.3046C86.7391 30.0459 87.0767 29.9166 87.4792 29.9166C87.6995 29.9166 87.9034 29.9549 88.0912 30.0316C88.2807 30.1066 88.454 30.2198 88.611 30.3715C88.7013 30.4535 88.7771 30.549 88.8385 30.6578C88.9017 30.7648 88.9332 30.846 88.9332 30.9013C88.9332 30.9352 88.9269 30.9602 88.9143 30.9762C88.9017 30.9905 88.8827 30.9976 88.8574 30.9976C88.8394 30.9976 88.7897 30.9673 88.7085 30.9066C88.4089 30.6747 88.1137 30.5588 87.8231 30.5588C87.5036 30.5588 87.2337 30.6587 87.0135 30.8585C86.7915 31.0583 86.6805 31.3027 86.6805 31.5917C86.6805 31.7005 86.7021 31.8138 86.7455 31.9315C86.7888 32.0492 86.8583 32.183 86.9539 32.3329C87.2608 32.4007 87.528 32.5121 87.7554 32.6673C87.9829 32.8243 88.0966 32.9563 88.0966 33.0634C88.0966 33.0901 88.0867 33.1124 88.0668 33.1303C88.0469 33.1499 88.0226 33.1597 87.9937 33.1597C87.9811 33.1597 87.9486 33.1499 87.8962 33.1303C87.7085 33.066 87.5217 33.0339 87.3357 33.0339C86.8845 33.0339 86.5198 33.182 86.2418 33.4781C85.9656 33.7725 85.8276 34.1596 85.8276 34.6394C85.8276 35.2281 86.0072 35.7008 86.3664 36.0576C86.7274 36.4162 87.204 36.5955 87.796 36.5955C88.3556 36.5955 88.8204 36.4358 89.1905 36.1165C89.5605 35.7954 89.7455 35.3949 89.7455 34.915C89.7455 34.7527 89.714 34.5948 89.6508 34.4414C89.5894 34.2862 89.491 34.1185 89.3556 33.9384Z" fill="url(#paint35_linear_475_4625)"/>
<path d="M100.062 30.3795C99.6884 30.3385 99.4429 30.3019 99.3255 30.2698C99.21 30.2359 99.1523 30.1895 99.1523 30.1306C99.1523 30.0985 99.1667 30.0718 99.1956 30.0504C99.2226 30.0308 99.2578 30.0209 99.3012 30.0209C99.3192 30.0209 99.4573 30.0334 99.7154 30.0584C99.9718 30.0834 100.221 30.0959 100.463 30.0959C100.706 30.0959 100.955 30.0834 101.207 30.0584C101.462 30.0334 101.597 30.0209 101.614 30.0209C101.659 30.0209 101.696 30.0308 101.725 30.0504C101.752 30.0718 101.765 30.0985 101.765 30.1306C101.765 30.1895 101.707 30.2359 101.592 30.2698C101.476 30.3019 101.23 30.3385 100.853 30.3795C100.806 30.6239 100.764 30.9405 100.728 31.3294C100.692 31.7165 100.658 32.2133 100.625 32.8199L100.56 34.1551C100.51 35.0899 100.281 35.7775 99.8752 36.2182C99.4709 36.6588 98.8616 36.8791 98.0475 36.8791C97.5132 36.8791 97.0565 36.8033 96.6774 36.6516C96.2984 36.5 95.9897 36.2717 95.7514 35.9666C95.5962 35.7668 95.487 35.5242 95.4238 35.2388C95.3606 34.9534 95.329 34.5047 95.329 33.8929V32.2285C95.329 31.8699 95.3236 31.539 95.3128 31.2358C95.302 30.9343 95.2857 30.6515 95.264 30.3875C94.8633 30.3394 94.6061 30.2983 94.4924 30.2644C94.3786 30.2305 94.3218 30.1859 94.3218 30.1306C94.3218 30.0985 94.3353 30.0718 94.3624 30.0504C94.3895 30.0308 94.4265 30.0209 94.4734 30.0209C94.4951 30.0209 94.5474 30.0254 94.6305 30.0343C95.0456 30.0753 95.4563 30.0959 95.8624 30.0959C96.2704 30.0959 96.6784 30.0753 97.0863 30.0343C97.1711 30.0254 97.2226 30.0209 97.2406 30.0209C97.2876 30.0209 97.3246 30.0308 97.3517 30.0504C97.3787 30.0718 97.3923 30.0985 97.3923 30.1306C97.3923 30.1842 97.339 30.2279 97.2325 30.2618C97.1224 30.2975 96.8778 30.3394 96.4987 30.3875C96.4771 30.6515 96.4599 30.9343 96.4473 31.2358C96.4383 31.539 96.4338 31.8699 96.4338 32.2285V34.04C96.4338 34.4985 96.4455 34.8374 96.469 35.0569C96.4942 35.2781 96.5367 35.4698 96.5962 35.6322C96.7136 35.9622 96.9022 36.2092 97.1621 36.3734C97.4221 36.5357 97.7623 36.6169 98.1829 36.6169C98.9248 36.6169 99.4618 36.3859 99.794 35.9238C100.124 35.46 100.289 34.6974 100.289 33.636V32.6914C100.289 32.3846 100.271 32.0394 100.235 31.6559C100.197 31.2688 100.14 30.8433 100.062 30.3795Z" fill="url(#paint36_linear_475_4625)"/>
<path d="M103.563 36.4055C103.962 36.4483 104.223 36.4866 104.345 36.5205C104.47 36.5544 104.532 36.599 104.532 36.6543C104.532 36.6882 104.519 36.715 104.492 36.7346C104.463 36.7542 104.425 36.764 104.378 36.764C104.367 36.764 104.222 36.7515 103.942 36.7266C103.664 36.7034 103.391 36.6918 103.122 36.6918C102.914 36.6918 102.688 36.7034 102.445 36.7266C102.199 36.7515 102.058 36.764 102.022 36.764C101.975 36.764 101.937 36.7542 101.906 36.7346C101.875 36.715 101.86 36.6882 101.86 36.6543C101.86 36.599 101.919 36.5544 102.036 36.5205C102.153 36.4866 102.402 36.4501 102.783 36.4108C102.845 36.1932 102.903 35.9042 102.959 35.5439C103.015 35.1835 103.074 34.7081 103.135 34.1176L103.419 31.1956L103.227 30.912C103.119 30.7497 103.016 30.6221 102.919 30.5294C102.821 30.4348 102.729 30.3759 102.642 30.3527C102.577 30.3331 102.494 30.3117 102.393 30.2885C102.2 30.2457 102.104 30.1931 102.104 30.1306C102.104 30.0985 102.118 30.0718 102.147 30.0504C102.174 30.0308 102.211 30.0209 102.258 30.0209C102.326 30.0209 102.471 30.0352 102.691 30.0637C102.913 30.0905 103.102 30.1039 103.257 30.1039C103.345 30.1039 103.443 30.1012 103.549 30.0959C103.654 30.0887 103.762 30.0789 103.874 30.0664L106.241 34.1096L108.041 30.0477C108.153 30.0637 108.267 30.0753 108.383 30.0825C108.498 30.0914 108.615 30.0959 108.732 30.0959C108.885 30.0959 109.065 30.0834 109.271 30.0584C109.478 30.0334 109.613 30.0209 109.674 30.0209C109.717 30.0209 109.754 30.0308 109.782 30.0504C109.81 30.0718 109.823 30.0985 109.823 30.1306C109.823 30.1895 109.761 30.2368 109.636 30.2725C109.51 30.3099 109.269 30.3483 108.913 30.3875L109.152 34.9445C109.164 35.1871 109.184 35.4306 109.211 35.675C109.238 35.9176 109.273 36.1629 109.314 36.4108C109.697 36.4501 109.947 36.4866 110.064 36.5205C110.183 36.5544 110.243 36.599 110.243 36.6543C110.241 36.6882 110.227 36.715 110.202 36.7346C110.175 36.7542 110.139 36.764 110.094 36.764C110.069 36.764 110.005 36.7596 109.902 36.7507C109.485 36.7114 109.086 36.6918 108.705 36.6918C108.315 36.6918 107.916 36.7114 107.508 36.7507C107.412 36.7596 107.352 36.764 107.327 36.764C107.28 36.764 107.243 36.7542 107.216 36.7346C107.187 36.715 107.172 36.6882 107.172 36.6543C107.172 36.599 107.231 36.5544 107.348 36.5205C107.464 36.4866 107.71 36.4501 108.087 36.4108C108.087 36.1539 108.083 35.8873 108.074 35.6108C108.065 35.3343 108.052 35.0417 108.036 34.7331L107.838 31.1501C107.532 31.787 107.25 32.3819 106.994 32.9349C106.735 33.4879 106.523 33.9544 106.357 34.3344L106.087 34.9445C106.074 34.9712 106.059 35.0105 106.04 35.0622C105.988 35.2031 105.931 35.2736 105.87 35.2736C105.841 35.2736 105.814 35.262 105.789 35.2388C105.762 35.2156 105.728 35.1692 105.688 35.0997L103.59 31.4766L103.455 33.6039C103.446 33.7662 103.439 33.9277 103.436 34.0882C103.43 34.2488 103.428 34.4048 103.428 34.5565C103.428 34.9061 103.438 35.2344 103.46 35.5412C103.482 35.8462 103.516 36.1343 103.563 36.4055Z" fill="url(#paint37_linear_475_4625)"/>
<path d="M111.783 32.2365C111.783 31.8815 111.778 31.5515 111.767 31.2465C111.755 30.9414 111.737 30.6551 111.713 30.3875C111.336 30.3483 111.089 30.3108 110.971 30.2751C110.852 30.2413 110.792 30.1967 110.792 30.1414C110.792 30.111 110.808 30.0852 110.839 30.0637C110.867 30.0423 110.906 30.0316 110.955 30.0316C110.989 30.0316 111.136 30.045 111.396 30.0718C111.656 30.0985 111.898 30.1119 112.122 30.1119C112.339 30.1119 112.662 30.0968 113.091 30.0664C113.521 30.0361 113.841 30.0209 114.053 30.0209C114.903 30.0209 115.547 30.1619 115.986 30.4437C116.426 30.7256 116.646 31.1386 116.646 31.6826C116.646 32.1893 116.442 32.6174 116.035 32.967C115.625 33.3149 115.069 33.5316 114.367 33.6173L115.685 35.4529C115.958 35.8257 116.158 36.063 116.286 36.1647C116.414 36.2646 116.544 36.3145 116.674 36.3145C116.746 36.3145 116.822 36.3011 116.901 36.2744C116.982 36.2458 117.031 36.2316 117.047 36.2316C117.074 36.2316 117.097 36.2414 117.115 36.261C117.135 36.2788 117.145 36.3029 117.145 36.3332C117.145 36.4224 117.031 36.5357 116.803 36.6731C116.578 36.8104 116.359 36.8791 116.146 36.8791C115.664 36.8791 115.125 36.4634 114.529 35.6322L114.488 35.5706L113.17 33.7056C113.139 33.6628 113.117 33.6262 113.102 33.5958C113.089 33.5673 113.083 33.5406 113.083 33.5156C113.083 33.471 113.096 33.438 113.121 33.4166C113.148 33.3952 113.186 33.3845 113.235 33.3845C113.244 33.3845 113.303 33.3889 113.413 33.3978C113.524 33.4068 113.629 33.4112 113.73 33.4112C114.382 33.4112 114.855 33.3051 115.149 33.0928C115.445 32.8805 115.593 32.5416 115.593 32.076C115.593 31.5801 115.414 31.1591 115.057 30.813C114.7 30.4651 114.261 30.2912 113.741 30.2912C113.617 30.2912 113.488 30.3001 113.357 30.318C113.227 30.334 113.092 30.3572 112.953 30.3875C112.928 30.6515 112.91 30.9361 112.899 31.2411C112.888 31.5479 112.883 31.8797 112.883 32.2365V34.5565C112.883 34.9186 112.888 35.2522 112.899 35.5572C112.91 35.8641 112.928 36.1468 112.953 36.4055C113.341 36.4554 113.591 36.4974 113.703 36.5312C113.815 36.5651 113.871 36.6097 113.871 36.665C113.871 36.6936 113.857 36.7177 113.828 36.7373C113.797 36.7551 113.759 36.764 113.714 36.764C113.685 36.764 113.621 36.7596 113.522 36.7507C113.11 36.7114 112.714 36.6918 112.333 36.6918C111.945 36.6918 111.546 36.7114 111.136 36.7507C111.041 36.7596 110.98 36.764 110.955 36.764C110.906 36.764 110.867 36.7551 110.839 36.7373C110.808 36.7177 110.792 36.6936 110.792 36.665C110.792 36.6062 110.857 36.558 110.985 36.5205C111.111 36.4849 111.354 36.4483 111.713 36.4108C111.737 36.1415 111.755 35.8542 111.767 35.5492C111.778 35.2424 111.783 34.9115 111.783 34.5565V32.2365Z" fill="url(#paint38_linear_475_4625)"/>
<path fill-rule="evenodd" clip-rule="evenodd" d="M118.783 34.5565C118.624 35.0506 118.506 35.4386 118.431 35.7204C118.355 36.0041 118.306 36.2342 118.284 36.4108C118.665 36.4501 118.914 36.4866 119.032 36.5205C119.149 36.5544 119.208 36.599 119.208 36.6543C119.208 36.6882 119.196 36.715 119.173 36.7346C119.147 36.7542 119.111 36.764 119.064 36.764C119.028 36.764 118.876 36.7506 118.607 36.7239C118.339 36.6953 118.09 36.6811 117.859 36.6811C117.617 36.6811 117.362 36.6953 117.093 36.7239C116.824 36.7506 116.673 36.764 116.641 36.764C116.596 36.764 116.559 36.7542 116.53 36.7346C116.503 36.715 116.489 36.6882 116.489 36.6543C116.489 36.599 116.549 36.5544 116.668 36.5205C116.787 36.4866 117.038 36.4501 117.421 36.4108C117.619 36.0808 117.821 35.7196 118.024 35.3271C118.228 34.9329 118.44 34.5003 118.658 34.0293L119.552 32.0867C119.685 31.8012 119.81 31.5149 119.925 31.2277C120.041 30.9405 120.147 30.6604 120.245 30.3875C120.279 30.2912 120.312 30.1708 120.345 30.0263C120.388 29.839 120.444 29.7453 120.513 29.7453C120.565 29.7471 120.606 29.8363 120.635 30.0129C120.64 30.0361 120.643 30.0539 120.643 30.0664C120.683 30.2787 120.769 30.5855 120.903 30.9869C121.036 31.3883 121.203 31.8458 121.404 32.3596L122.441 34.9525C122.504 35.1059 122.592 35.311 122.706 35.5679C122.82 35.8248 122.944 36.1058 123.08 36.4108C123.491 36.4608 123.746 36.5009 123.843 36.5312C123.941 36.5616 123.989 36.6026 123.989 36.6543C123.989 36.6882 123.976 36.715 123.949 36.7346C123.92 36.7542 123.884 36.764 123.841 36.764C123.826 36.764 123.667 36.7506 123.364 36.7239C123.061 36.6953 122.76 36.6811 122.462 36.6811C122.069 36.6811 121.649 36.7025 121.203 36.7453C121.084 36.7578 121.008 36.764 120.976 36.764C120.931 36.764 120.894 36.7542 120.865 36.7346C120.838 36.715 120.824 36.6882 120.824 36.6543C120.824 36.599 120.883 36.5544 121 36.5205C121.118 36.4866 121.367 36.4501 121.748 36.4108C121.701 36.1932 121.627 35.9309 121.526 35.6241C121.423 35.3173 121.291 34.9614 121.13 34.5565H118.783ZM118.875 34.3237H121.033L120.009 31.5916L118.875 34.3237Z" fill="url(#paint39_linear_475_4625)"/>
<path d="M126.129 34.5565C126.129 34.9186 126.134 35.2522 126.145 35.5572C126.156 35.8641 126.174 36.1468 126.199 36.4055C126.614 36.459 126.871 36.5009 126.968 36.5312C127.067 36.5616 127.117 36.6026 127.117 36.6543C127.117 36.6882 127.102 36.715 127.074 36.7346C127.045 36.7542 127.007 36.764 126.96 36.764C126.933 36.764 126.87 36.7596 126.77 36.7507C126.359 36.7114 125.963 36.6918 125.582 36.6918C125.192 36.6918 124.793 36.7114 124.385 36.7507C124.289 36.7596 124.229 36.764 124.203 36.764C124.153 36.764 124.113 36.7542 124.084 36.7346C124.055 36.715 124.041 36.6882 124.041 36.6543C124.041 36.599 124.1 36.5544 124.217 36.5205C124.334 36.4866 124.582 36.4501 124.959 36.4108C124.984 36.1415 125.002 35.8542 125.013 35.5492C125.024 35.2424 125.029 34.9115 125.029 34.5565V32.2285C125.029 31.8735 125.024 31.5444 125.013 31.2411C125.002 30.9396 124.984 30.6551 124.959 30.3875C124.6 30.3483 124.357 30.3099 124.231 30.2725C124.104 30.2368 124.041 30.1895 124.041 30.1306C124.041 30.1003 124.055 30.0745 124.084 30.0531C124.113 30.0316 124.153 30.0209 124.203 30.0209C124.227 30.0209 124.286 30.0254 124.379 30.0343C124.791 30.0807 125.192 30.1039 125.582 30.1039C125.963 30.1039 126.36 30.0807 126.773 30.0343C126.871 30.0254 126.933 30.0209 126.96 30.0209C127.007 30.0209 127.045 30.0316 127.074 30.0531C127.102 30.0745 127.117 30.1003 127.117 30.1306C127.117 30.1895 127.054 30.2368 126.927 30.2725C126.801 30.3099 126.558 30.3483 126.199 30.3875C126.174 30.6515 126.156 30.9343 126.145 31.2358C126.134 31.539 126.129 31.8699 126.129 32.2285V33.2908H129.41V32.2285C129.41 31.8735 129.405 31.5444 129.394 31.2411C129.383 30.9396 129.366 30.6551 129.343 30.3875C128.983 30.3483 128.74 30.3099 128.612 30.2725C128.485 30.2368 128.422 30.1895 128.422 30.1306C128.422 30.0985 128.436 30.0718 128.463 30.0504C128.492 30.0308 128.529 30.0209 128.576 30.0209C128.6 30.0209 128.659 30.0254 128.755 30.0343C129.174 30.0807 129.576 30.1039 129.963 30.1039C130.344 30.1039 130.742 30.0807 131.157 30.0343C131.254 30.0254 131.316 30.0209 131.341 30.0209C131.388 30.0209 131.425 30.0308 131.452 30.0504C131.477 30.0718 131.49 30.0985 131.49 30.1306C131.49 30.1895 131.428 30.2368 131.303 30.2725C131.177 30.3099 130.936 30.3483 130.58 30.3875C130.555 30.6854 130.536 30.9869 130.523 31.292C130.509 31.5988 130.501 31.911 130.501 32.2285V34.5565C130.501 34.8794 130.509 35.1951 130.523 35.5037C130.536 35.8123 130.555 36.1147 130.58 36.4108C130.992 36.4608 131.246 36.5009 131.344 36.5312C131.441 36.5616 131.49 36.6026 131.49 36.6543C131.49 36.6882 131.477 36.715 131.452 36.7346C131.425 36.7542 131.388 36.764 131.341 36.764C131.317 36.764 131.254 36.7596 131.151 36.7507C130.74 36.7114 130.344 36.6918 129.963 36.6918C129.576 36.6918 129.176 36.7114 128.76 36.7507C128.661 36.7596 128.6 36.764 128.576 36.764C128.529 36.764 128.492 36.7542 128.463 36.7346C128.436 36.715 128.422 36.6882 128.422 36.6543C128.422 36.599 128.481 36.5544 128.598 36.5205C128.715 36.4866 128.964 36.4483 129.345 36.4055C129.367 36.1397 129.383 35.8542 129.394 35.5492C129.405 35.2424 129.41 34.9115 129.41 34.5565V33.5263H126.129V34.5565Z" fill="url(#paint40_linear_475_4625)"/>
<defs>
<linearGradient id="paint0_linear_475_4625" x1="21.2252" y1="25.3501" x2="21.2252" y2="1.05765" gradientUnits="userSpaceOnUse">
<stop stop-color="#C1912E"/>
<stop offset="0.086" stop-color="#FAC927"/>
<stop offset="0.547" stop-color="#C1912E"/>
<stop offset="0.893" stop-color="#EDD586"/>
<stop offset="1" stop-color="#C1912E"/>
</linearGradient>
<linearGradient id="paint1_linear_475_4625" x1="21.2255" y1="25.3494" x2="21.2255" y2="1.05819" gradientUnits="userSpaceOnUse">
<stop stop-color="#C1912E"/>
<stop offset="0.086" stop-color="#FAC927"/>
<stop offset="0.547" stop-color="#C1912E"/>
<stop offset="0.893" stop-color="#EDD586"/>
<stop offset="1" stop-color="#C1912E"/>
</linearGradient>
<linearGradient id="paint2_linear_475_4625" x1="21.5797" y1="13.397" x2="21.5797" y2="13.1026" gradientUnits="userSpaceOnUse">
<stop stop-color="#C1912E"/>
<stop offset="0.086" stop-color="#FAC927"/>
<stop offset="0.547" stop-color="#C1912E"/>
<stop offset="0.893" stop-color="#EDD586"/>
<stop offset="1" stop-color="#C1912E"/>
</linearGradient>
<linearGradient id="paint3_linear_475_4625" x1="20.5914" y1="25.3494" x2="20.5914" y2="1.05778" gradientUnits="userSpaceOnUse">
<stop stop-color="#C1912E"/>
<stop offset="0.086" stop-color="#FAC927"/>
<stop offset="0.547" stop-color="#C1912E"/>
<stop offset="0.893" stop-color="#EDD586"/>
<stop offset="1" stop-color="#C1912E"/>
</linearGradient>
<linearGradient id="paint4_linear_475_4625" x1="7.68652" y1="25.3494" x2="7.68652" y2="1.05792" gradientUnits="userSpaceOnUse">
<stop stop-color="#C1912E"/>
<stop offset="0.086" stop-color="#FAC927"/>
<stop offset="0.547" stop-color="#C1912E"/>
<stop offset="0.893" stop-color="#EDD586"/>
<stop offset="1" stop-color="#C1912E"/>
</linearGradient>
<linearGradient id="paint5_linear_475_4625" x1="20.4869" y1="25.3489" x2="20.4869" y2="1.05832" gradientUnits="userSpaceOnUse">
<stop stop-color="#C1912E"/>
<stop offset="0.086" stop-color="#FAC927"/>
<stop offset="0.547" stop-color="#C1912E"/>
<stop offset="0.893" stop-color="#EDD586"/>
<stop offset="1" stop-color="#C1912E"/>
</linearGradient>
<linearGradient id="paint6_linear_475_4625" x1="28.9615" y1="25.3494" x2="28.9615" y2="1.05818" gradientUnits="userSpaceOnUse">
<stop stop-color="#C1912E"/>
<stop offset="0.086" stop-color="#FAC927"/>
<stop offset="0.547" stop-color="#C1912E"/>
<stop offset="0.893" stop-color="#EDD586"/>
<stop offset="1" stop-color="#C1912E"/>
</linearGradient>
<linearGradient id="paint7_linear_475_4625" x1="28.962" y1="25.3492" x2="28.962" y2="1.05791" gradientUnits="userSpaceOnUse">
<stop stop-color="#C1912E"/>
<stop offset="0.086" stop-color="#FAC927"/>
<stop offset="0.547" stop-color="#C1912E"/>
<stop offset="0.893" stop-color="#EDD586"/>
<stop offset="1" stop-color="#C1912E"/>
</linearGradient>
<linearGradient id="paint8_linear_475_4625" x1="29.4959" y1="5.17425" x2="29.4959" y2="4.73059" gradientUnits="userSpaceOnUse">
<stop stop-color="#C1912E"/>
<stop offset="0.086" stop-color="#FAC927"/>
<stop offset="0.547" stop-color="#C1912E"/>
<stop offset="0.893" stop-color="#EDD586"/>
<stop offset="1" stop-color="#C1912E"/>
</linearGradient>
<linearGradient id="paint9_linear_475_4625" x1="29.4959" y1="25.3489" x2="29.4959" y2="1.06042" gradientUnits="userSpaceOnUse">
<stop stop-color="#C1912E"/>
<stop offset="0.086" stop-color="#FAC927"/>
<stop offset="0.547" stop-color="#C1912E"/>
<stop offset="0.893" stop-color="#EDD586"/>
<stop offset="1" stop-color="#C1912E"/>
</linearGradient>
<linearGradient id="paint10_linear_475_4625" x1="28.0075" y1="25.3493" x2="28.0075" y2="1.0579" gradientUnits="userSpaceOnUse">
<stop stop-color="#C1912E"/>
<stop offset="0.086" stop-color="#FAC927"/>
<stop offset="0.547" stop-color="#C1912E"/>
<stop offset="0.893" stop-color="#EDD586"/>
<stop offset="1" stop-color="#C1912E"/>
</linearGradient>
<linearGradient id="paint11_linear_475_4625" x1="27.8602" y1="25.3494" x2="27.8602" y2="1.05805" gradientUnits="userSpaceOnUse">
<stop stop-color="#C1912E"/>
<stop offset="0.086" stop-color="#FAC927"/>
<stop offset="0.547" stop-color="#C1912E"/>
<stop offset="0.893" stop-color="#EDD586"/>
<stop offset="1" stop-color="#C1912E"/>
</linearGradient>
<linearGradient id="paint12_linear_475_4625" x1="8.56721" y1="25.3494" x2="8.56721" y2="1.05804" gradientUnits="userSpaceOnUse">
<stop stop-color="#C1912E"/>
<stop offset="0.086" stop-color="#FAC927"/>
<stop offset="0.547" stop-color="#C1912E"/>
<stop offset="0.893" stop-color="#EDD586"/>
<stop offset="1" stop-color="#C1912E"/>
</linearGradient>
<linearGradient id="paint13_linear_475_4625" x1="27.848" y1="25.349" x2="27.848" y2="1.05791" gradientUnits="userSpaceOnUse">
<stop stop-color="#C1912E"/>
<stop offset="0.086" stop-color="#FAC927"/>
<stop offset="0.547" stop-color="#C1912E"/>
<stop offset="0.893" stop-color="#EDD586"/>
<stop offset="1" stop-color="#C1912E"/>
</linearGradient>
<linearGradient id="paint14_linear_475_4625" x1="14.0292" y1="20.0818" x2="22.6099" y2="20.0818" gradientUnits="userSpaceOnUse">
<stop stop-color="white"/>
<stop offset="1"/>
</linearGradient>
<linearGradient id="paint15_linear_475_4625" x1="14.1674" y1="23.5382" x2="35.1174" y2="23.6333" gradientUnits="userSpaceOnUse">
<stop stop-color="#FCF8CD"/>
<stop offset="0.273" stop-color="#C1912E"/>
<stop offset="0.854" stop-color="#C1912E"/>
</linearGradient>
<linearGradient id="paint16_linear_475_4625" x1="14.1807" y1="23.499" x2="35.067" y2="23.5936" gradientUnits="userSpaceOnUse">
<stop offset="0.006" stop-color="#FAC927"/>
<stop offset="0.253" stop-color="#FCF8CD"/>
<stop offset="0.595" stop-color="#C1912E"/>
<stop offset="1" stop-color="#EDD586"/>
</linearGradient>
<linearGradient id="paint17_linear_475_4625" x1="33.4251" y1="24.3283" x2="38.4042" y2="24.3283" gradientUnits="userSpaceOnUse">
<stop stop-color="#C1912E"/>
<stop offset="0.086" stop-color="#FAC927"/>
<stop offset="0.547" stop-color="#C1912E"/>
<stop offset="0.893" stop-color="#EDD586"/>
<stop offset="1" stop-color="#C1912E"/>
</linearGradient>
<linearGradient id="paint18_linear_475_4625" x1="21.0499" y1="36.0352" x2="23.7675" y2="36.0352" gradientUnits="userSpaceOnUse">
<stop stop-color="#C1912E"/>
<stop offset="0.086" stop-color="#FAC927"/>
<stop offset="0.547" stop-color="#C1912E"/>
<stop offset="0.893" stop-color="#EDD586"/>
<stop offset="1" stop-color="#C1912E"/>
</linearGradient>
<linearGradient id="paint19_linear_475_4625" x1="23.7693" y1="36.0352" x2="26.4868" y2="36.0352" gradientUnits="userSpaceOnUse">
<stop stop-color="#C1912E"/>
<stop offset="0.086" stop-color="#FAC927"/>
<stop offset="0.547" stop-color="#C1912E"/>
<stop offset="0.893" stop-color="#EDD586"/>
<stop offset="1" stop-color="#C1912E"/>
</linearGradient>
<linearGradient id="paint20_linear_475_4625" x1="36.3639" y1="43.9078" x2="9.33035" y2="43.9078" gradientUnits="userSpaceOnUse">
<stop stop-color="#C1912E"/>
<stop offset="0.086" stop-color="#FAC927"/>
<stop offset="0.547" stop-color="#C1912E"/>
<stop offset="0.893" stop-color="#EDD586"/>
<stop offset="1" stop-color="#C1912E"/>
</linearGradient>
<linearGradient id="paint21_linear_475_4625" x1="36.3638" y1="45.289" x2="9.33036" y2="45.289" gradientUnits="userSpaceOnUse">
<stop stop-color="#C1912E"/>
<stop offset="0.086" stop-color="#FAC927"/>
<stop offset="0.547" stop-color="#C1912E"/>
<stop offset="0.893" stop-color="#EDD586"/>
<stop offset="1" stop-color="#C1912E"/>
</linearGradient>
<linearGradient id="paint22_linear_475_4625" x1="36.3635" y1="44.6981" x2="9.33027" y2="44.6981" gradientUnits="userSpaceOnUse">
<stop stop-color="#C1912E"/>
<stop offset="0.086" stop-color="#FAC927"/>
<stop offset="0.547" stop-color="#C1912E"/>
<stop offset="0.893" stop-color="#EDD586"/>
<stop offset="1" stop-color="#C1912E"/>
</linearGradient>
<linearGradient id="paint23_linear_475_4625" x1="36.3641" y1="43.9078" x2="9.33045" y2="43.9078" gradientUnits="userSpaceOnUse">
<stop stop-color="#C1912E"/>
<stop offset="0.086" stop-color="#FAC927"/>
<stop offset="0.547" stop-color="#C1912E"/>
<stop offset="0.893" stop-color="#EDD586"/>
<stop offset="1" stop-color="#C1912E"/>
</linearGradient>
<linearGradient id="paint24_linear_475_4625" x1="36.3639" y1="43.9078" x2="9.33025" y2="43.9078" gradientUnits="userSpaceOnUse">
<stop stop-color="#C1912E"/>
<stop offset="0.086" stop-color="#FAC927"/>
<stop offset="0.547" stop-color="#C1912E"/>
<stop offset="0.893" stop-color="#EDD586"/>
<stop offset="1" stop-color="#C1912E"/>
</linearGradient>
<linearGradient id="paint25_linear_475_4625" x1="36.3638" y1="43.9078" x2="9.33017" y2="43.9078" gradientUnits="userSpaceOnUse">
<stop stop-color="#C1912E"/>
<stop offset="0.086" stop-color="#FAC927"/>
<stop offset="0.547" stop-color="#C1912E"/>
<stop offset="0.893" stop-color="#EDD586"/>
<stop offset="1" stop-color="#C1912E"/>
</linearGradient>
<linearGradient id="paint26_linear_475_4625" x1="36.3637" y1="45.2804" x2="9.33042" y2="45.2804" gradientUnits="userSpaceOnUse">
<stop stop-color="#C1912E"/>
<stop offset="0.086" stop-color="#FAC927"/>
<stop offset="0.547" stop-color="#C1912E"/>
<stop offset="0.893" stop-color="#EDD586"/>
<stop offset="1" stop-color="#C1912E"/>
</linearGradient>
<linearGradient id="paint27_linear_475_4625" x1="36.3639" y1="45.289" x2="9.32985" y2="45.289" gradientUnits="userSpaceOnUse">
<stop stop-color="#C1912E"/>
<stop offset="0.086" stop-color="#FAC927"/>
<stop offset="0.547" stop-color="#C1912E"/>
<stop offset="0.893" stop-color="#EDD586"/>
<stop offset="1" stop-color="#C1912E"/>
</linearGradient>
<linearGradient id="paint28_linear_475_4625" x1="36.3642" y1="43.9078" x2="9.32994" y2="43.9078" gradientUnits="userSpaceOnUse">
<stop stop-color="#C1912E"/>
<stop offset="0.086" stop-color="#FAC927"/>
<stop offset="0.547" stop-color="#C1912E"/>
<stop offset="0.893" stop-color="#EDD586"/>
<stop offset="1" stop-color="#C1912E"/>
</linearGradient>
<linearGradient id="paint29_linear_475_4625" x1="36.3639" y1="43.9078" x2="9.33088" y2="43.9078" gradientUnits="userSpaceOnUse">
<stop stop-color="#C1912E"/>
<stop offset="0.086" stop-color="#FAC927"/>
<stop offset="0.547" stop-color="#C1912E"/>
<stop offset="0.893" stop-color="#EDD586"/>
<stop offset="1" stop-color="#C1912E"/>
</linearGradient>
<linearGradient id="paint30_linear_475_4625" x1="36.3642" y1="43.9078" x2="9.33048" y2="43.9078" gradientUnits="userSpaceOnUse">
<stop stop-color="#C1912E"/>
<stop offset="0.086" stop-color="#FAC927"/>
<stop offset="0.547" stop-color="#C1912E"/>
<stop offset="0.893" stop-color="#EDD586"/>
<stop offset="1" stop-color="#C1912E"/>
</linearGradient>
<linearGradient id="paint31_linear_475_4625" x1="123.277" y1="36.7643" x2="69.6352" y2="36.7643" gradientUnits="userSpaceOnUse">
<stop stop-color="#C1912E"/>
<stop offset="0.086" stop-color="#FAC927"/>
<stop offset="0.547" stop-color="#C1912E"/>
<stop offset="0.893" stop-color="#EDD586"/>
<stop offset="1" stop-color="#C1912E"/>
</linearGradient>
<linearGradient id="paint32_linear_475_4625" x1="123.277" y1="36.7643" x2="69.6349" y2="36.7643" gradientUnits="userSpaceOnUse">
<stop stop-color="#C1912E"/>
<stop offset="0.086" stop-color="#FAC927"/>
<stop offset="0.547" stop-color="#C1912E"/>
<stop offset="0.893" stop-color="#EDD586"/>
<stop offset="1" stop-color="#C1912E"/>
</linearGradient>
<linearGradient id="paint33_linear_475_4625" x1="123.277" y1="38.6909" x2="69.6349" y2="38.6909" gradientUnits="userSpaceOnUse">
<stop stop-color="#C1912E"/>
<stop offset="0.086" stop-color="#FAC927"/>
<stop offset="0.547" stop-color="#C1912E"/>
<stop offset="0.893" stop-color="#EDD586"/>
<stop offset="1" stop-color="#C1912E"/>
</linearGradient>
<linearGradient id="paint34_linear_475_4625" x1="123.278" y1="38.6909" x2="69.6354" y2="38.6909" gradientUnits="userSpaceOnUse">
<stop stop-color="#C1912E"/>
<stop offset="0.086" stop-color="#FAC927"/>
<stop offset="0.547" stop-color="#C1912E"/>
<stop offset="0.893" stop-color="#EDD586"/>
<stop offset="1" stop-color="#C1912E"/>
</linearGradient>
<linearGradient id="paint35_linear_475_4625" x1="123.277" y1="36.8791" x2="69.6349" y2="36.8791" gradientUnits="userSpaceOnUse">
<stop stop-color="#C1912E"/>
<stop offset="0.086" stop-color="#FAC927"/>
<stop offset="0.547" stop-color="#C1912E"/>
<stop offset="0.893" stop-color="#EDD586"/>
<stop offset="1" stop-color="#C1912E"/>
</linearGradient>
<linearGradient id="paint36_linear_475_4625" x1="123.278" y1="36.8791" x2="69.6355" y2="36.8791" gradientUnits="userSpaceOnUse">
<stop stop-color="#C1912E"/>
<stop offset="0.086" stop-color="#FAC927"/>
<stop offset="0.547" stop-color="#C1912E"/>
<stop offset="0.893" stop-color="#EDD586"/>
<stop offset="1" stop-color="#C1912E"/>
</linearGradient>
<linearGradient id="paint37_linear_475_4625" x1="123.277" y1="36.7643" x2="69.6357" y2="36.7643" gradientUnits="userSpaceOnUse">
<stop stop-color="#C1912E"/>
<stop offset="0.086" stop-color="#FAC927"/>
<stop offset="0.547" stop-color="#C1912E"/>
<stop offset="0.893" stop-color="#EDD586"/>
<stop offset="1" stop-color="#C1912E"/>
</linearGradient>
<linearGradient id="paint38_linear_475_4625" x1="123.277" y1="36.8791" x2="69.6366" y2="36.8791" gradientUnits="userSpaceOnUse">
<stop stop-color="#C1912E"/>
<stop offset="0.086" stop-color="#FAC927"/>
<stop offset="0.547" stop-color="#C1912E"/>
<stop offset="0.893" stop-color="#EDD586"/>
<stop offset="1" stop-color="#C1912E"/>
</linearGradient>
<linearGradient id="paint39_linear_475_4625" x1="123.277" y1="36.7643" x2="69.6348" y2="36.7643" gradientUnits="userSpaceOnUse">
<stop stop-color="#C1912E"/>
<stop offset="0.086" stop-color="#FAC927"/>
<stop offset="0.547" stop-color="#C1912E"/>
<stop offset="0.893" stop-color="#EDD586"/>
<stop offset="1" stop-color="#C1912E"/>
</linearGradient>
<linearGradient id="paint40_linear_475_4625" x1="123.277" y1="36.7643" x2="69.6351" y2="36.7643" gradientUnits="userSpaceOnUse">
<stop stop-color="#C1912E"/>
<stop offset="0.086" stop-color="#FAC927"/>
<stop offset="0.547" stop-color="#C1912E"/>
<stop offset="0.893" stop-color="#EDD586"/>
<stop offset="1" stop-color="#C1912E"/>
</linearGradient>
</defs>
</svg>
