<svg width="72" height="110" viewBox="0 0 72 110" fill="none" xmlns="http://www.w3.org/2000/svg">
<path d="M35.3361 22.9973C35.4882 22.8753 35.5864 22.6894 35.5864 22.4783C35.5864 22.1142 35.2918 21.8179 34.9299 21.8179C34.568 21.8179 34.2734 22.1142 34.2734 22.4783C34.2734 22.6894 34.3697 22.8753 34.5218 22.9973C34.6488 22.9444 34.7849 22.9173 34.9299 22.916C35.0749 22.9173 35.2103 22.9444 35.3361 22.9973Z" fill="url(#paint0_linear_475_4480)"/>
<path d="M35.8786 23.9986C35.8786 23.4718 35.4532 23.0438 34.9296 23.0438C34.4059 23.0438 33.9805 23.4718 33.9805 23.9986C33.9805 24.1671 34.0228 24.3239 34.0979 24.4595H35.7612C35.8363 24.3239 35.8786 24.1671 35.8786 23.9986Z" fill="url(#paint1_linear_475_4480)"/>
<path d="M36.9547 25.0502H32.9023V24.6261H36.9547V25.0502Z" fill="url(#paint2_linear_475_4480)"/>
<path d="M36.6158 28.294H33.2275V25.1877H36.6158V28.294Z" fill="url(#paint3_linear_475_4480)"/>
<path d="M36.4023 39.4141H33.4414V28.5709H36.4023V39.4141Z" fill="url(#paint4_linear_475_4480)"/>
<path d="M35.3122 20.4313C35.3122 20.3016 35.2449 20.1854 35.1467 20.1176C35.1929 20.168 35.2198 20.2357 35.2198 20.3093C35.2198 20.4701 35.0928 20.5979 34.933 20.5979C34.7751 20.5979 34.6461 20.4701 34.6461 20.3093C34.6461 20.2357 34.675 20.168 34.7193 20.1176C34.6211 20.1854 34.5557 20.3016 34.5557 20.4313C34.5557 20.6095 34.6789 20.7586 34.8425 20.7993V21.6669H35.0235V20.7993C35.189 20.7586 35.3122 20.6095 35.3122 20.4313Z" fill="url(#paint5_linear_475_4480)"/>
<path d="M46.7209 10.1479C46.9499 9.96585 47.0963 9.68504 47.0963 9.36743C47.0963 8.81937 46.6554 8.37395 46.1087 8.37395C45.5619 8.37395 45.1191 8.81937 45.1191 9.36743C45.1191 9.68504 45.2655 9.96585 45.4945 10.1479C45.6845 10.0691 45.8892 10.0285 46.1087 10.0259C46.3268 10.0285 46.5309 10.0691 46.7209 10.1479Z" fill="url(#paint6_linear_475_4480)"/>
<path d="M47.5395 11.6585C47.5395 10.8644 46.8984 10.2195 46.1091 10.2195C45.3179 10.2195 44.6787 10.8644 44.6787 11.6585C44.6787 11.9102 44.7422 12.1465 44.8558 12.3537H47.3623C47.474 12.1465 47.5395 11.9102 47.5395 11.6585Z" fill="url(#paint7_linear_475_4480)"/>
<path d="M49.1603 13.2407H43.0557V12.6035H49.1603V13.2407Z" fill="url(#paint8_linear_475_4480)"/>
<path d="M49.1603 35.7364H43.0557V35.0993H49.1603V35.7364Z" fill="url(#paint9_linear_475_4480)"/>
<path d="M48.6485 18.1287H43.5469V13.4479H48.6485V18.1287Z" fill="url(#paint10_linear_475_4480)"/>
<path d="M48.898 41.0931H43.2959V35.9533H48.898V41.0931Z" fill="url(#paint11_linear_475_4480)"/>
<path d="M48.3287 34.8805H43.8662V18.5451H48.3287V34.8805Z" fill="url(#paint12_linear_475_4480)"/>
<path d="M46.6846 6.2824C46.6846 6.0868 46.5864 5.91444 46.4363 5.80986C46.5056 5.88733 46.5479 5.98803 46.5479 6.10035C46.5479 6.34049 46.3554 6.53609 46.1148 6.53609C45.878 6.53609 45.6835 6.34049 45.6835 6.10035C45.6835 5.98803 45.7259 5.88733 45.7952 5.80986C45.6431 5.91444 45.5449 6.0868 45.5449 6.2824C45.5449 6.55352 45.7317 6.77623 45.98 6.83821V8.14349H46.2514V6.83821C46.4998 6.77623 46.6846 6.55352 46.6846 6.2824Z" fill="url(#paint13_linear_475_4480)"/>
<path d="M48.866 38.8757V54.5759L48.5926 54.7095C47.9483 54.8231 47.3708 54.8799 46.86 54.8799C47.3541 54.197 47.7096 53.4675 47.9265 52.6916C48.1408 51.9169 48.2487 51.0532 48.2499 50.1004C48.2499 49.1475 48.1261 48.2167 47.8784 47.3078C46.7053 49.6252 45.5426 51.9318 44.39 54.2273C44.2052 54.2699 43.9851 54.3119 43.7297 54.3532C43.4718 54.3945 43.2497 54.4151 43.0636 54.4151C42.7774 54.4151 42.4893 54.3635 42.1992 54.2602C41.913 54.1556 41.7077 53.9742 41.5832 53.716C41.46 53.4578 41.3984 53.1325 41.3984 52.74C41.3971 52.5321 41.4176 52.2519 41.46 51.8995C41.5011 51.5483 41.5216 51.3107 41.5216 51.1868C39.2371 52.3462 37.8594 53.0285 37.3883 53.2338C37.1766 53.3306 36.9674 53.4236 36.7607 53.5127V34.65L48.866 38.8757Z" fill="#231F20"/>
<path d="M36.3601 34.65V53.6831C35.1653 54.1879 34.0782 54.5765 33.0989 54.849C31.4934 55.284 29.9084 55.5016 28.3439 55.5016C26.6164 55.5016 25.3002 54.9432 24.3954 53.8264C24.3479 53.7683 24.3011 53.7076 24.2549 53.6444V38.8757L36.3601 34.65Z" fill="url(#paint14_linear_475_4480)"/>
<path d="M24.2549 43.8761V46.2736L36.3601 42.288V39.6484L24.2549 43.8761Z" fill="url(#paint15_linear_475_4480)"/>
<path d="M48.866 43.8761V46.2736L36.7607 42.288V39.6484L48.866 43.8761Z" fill="url(#paint16_linear_475_4480)"/>
<path d="M53.5366 41.7923L51.6191 43.7211L53.5366 45.65L55.4559 43.7211L53.5366 41.7923ZM56.7265 40.7484L54.8091 42.6753L56.7265 44.6042L58.644 42.6753L56.7265 40.7484Z" fill="url(#paint17_linear_475_4480)"/>
<path d="M37.994 59.491L37.3703 60.1204L36.0766 61.4199L34.1592 59.491L34.2516 59.3981L36.0766 57.5602L36.3596 57.8468L36.76 58.2477L37.994 59.491Z" fill="url(#paint18_linear_475_4480)"/>
<path d="M41.829 59.491L39.9135 61.4199L38.2136 59.7137L37.9961 59.491L39.9135 57.5602L40.8068 58.4627L41.829 59.491Z" fill="url(#paint19_linear_475_4480)"/>
<path fill-rule="evenodd" clip-rule="evenodd" d="M46.6559 62.2139L46.6366 62.212C46.2349 62.1681 45.8871 62.0893 45.5932 61.9757C45.2762 61.8505 44.9887 61.6581 44.7307 61.3986L44.7153 61.3831L44.7019 61.3637C44.1917 60.6956 43.8721 59.7951 43.7508 58.6912C43.6584 57.8217 43.6084 57.3278 43.5795 56.9908C43.5782 56.9831 43.5769 56.9753 43.5757 56.9676C43.0251 56.9618 42.6362 56.9405 42.3667 56.9037C42.0144 56.8572 41.6447 56.7158 41.277 56.4854L41.2578 56.4738L41.2424 56.4602C40.9806 56.2485 40.7983 55.9799 40.6956 55.6546C40.6013 55.3583 40.5551 55.0426 40.5551 54.6921C40.5628 54.5023 40.5692 54.3409 40.5744 54.2079L36.8974 55.7824L36.7125 55.8618C36.642 55.8928 36.5714 55.9238 36.5008 55.9547C35.3688 56.4389 34.2381 56.9231 33.1087 57.4072L33.0952 57.413L33.0798 57.4188C32.431 57.628 31.7014 57.81 30.9083 57.9572C30.8364 57.9714 30.762 57.9843 30.685 57.9959C29.9573 58.118 29.2411 58.1819 28.5596 58.1819C27.7357 58.1819 26.9406 58.0947 26.1994 57.9243C25.437 57.7461 24.7421 57.4459 24.1357 57.0334L24.1029 57.0102L24.076 56.9812C23.4946 56.3537 23.0075 55.5907 22.6244 54.7095C22.4743 54.3661 22.3119 53.8987 22.1374 53.3074C21.5791 54.5914 20.6242 55.7146 19.2882 56.6577C17.7615 57.7229 16.0251 58.3697 14.125 58.5808L14.1076 58.5827H14.0884C13.7816 58.5827 13.5031 58.5408 13.2529 58.4569C12.9731 58.3639 12.7286 58.187 12.5194 57.9262L12.4963 57.8972L12.479 57.8623C12.1883 57.2775 12.04 56.6384 12.04 55.9664C12.04 55.2731 12.1921 54.481 12.4944 53.6153C12.633 53.1912 12.9198 52.4998 13.3973 51.4463L13.867 50.4083L14.0595 51.5315C14.1346 51.975 14.0114 52.5637 13.6822 53.3287C13.3203 54.175 13.2644 54.5294 13.2644 54.665C13.2644 54.8276 13.3138 54.9877 13.4127 55.1452C13.5012 55.2924 13.645 55.4286 13.8439 55.5539C15.4244 55.5384 16.9203 55.1104 18.289 54.2854C19.6559 53.4643 20.7763 52.3371 21.6195 50.935C21.1498 48.4658 20.32 46.1555 19.1534 44.0639L19.0918 43.9555L19.113 43.8315C19.19 43.3783 19.2728 42.9871 19.3498 42.6966C19.4249 42.4294 19.5596 42.0905 19.7598 41.6625L19.9831 41.1822L20.3354 41.5773C21.2576 42.6153 21.9699 44.3195 22.4512 46.6435L23.1327 49.9377C23.4984 51.485 23.972 52.6664 24.5361 53.4352C24.5784 53.4933 24.6214 53.5495 24.6651 53.6037C25.5083 54.6456 26.7115 55.1511 28.344 55.1511C29.8706 55.1511 31.4396 54.9361 33.0067 54.51C33.9769 54.2408 35.0608 53.8516 36.2255 53.3597C36.3564 53.3042 36.4886 53.248 36.6221 53.1912C36.8274 53.1021 37.0347 53.0098 37.2439 52.9143C37.7136 52.7109 39.0978 52.0253 41.3637 50.8731L41.87 50.6174V51.1868C41.87 51.3243 41.8507 51.5644 41.8065 51.9401C41.7667 52.2629 41.7468 52.5295 41.7468 52.74C41.7468 53.0782 41.7968 53.3526 41.8969 53.563C41.9816 53.7393 42.1145 53.8555 42.3185 53.931C42.5701 54.0201 42.8184 54.0646 43.0636 54.0646C43.2266 54.0646 43.4306 54.0452 43.6758 54.0065C43.8503 53.9781 44.0101 53.9491 44.1551 53.9194C45.1754 51.8898 46.369 49.5116 47.5684 47.147L47.9784 46.3375L48.2152 47.2148C48.4693 48.156 48.5983 49.1262 48.5983 50.1003C48.5983 51.0667 48.4867 51.9692 48.2614 52.7864C48.0946 53.3842 47.8501 53.9549 47.528 54.4984C47.8437 54.4713 48.178 54.4268 48.5309 54.3648C49.0642 54.268 49.6244 54.1401 50.1943 53.9852C50.7468 53.8341 51.3436 53.6618 52.0097 53.4604C52.1598 52.4456 52.2715 51.7678 52.3523 51.3921C52.5429 50.5593 52.7913 49.7692 53.0935 49.0352C53.4092 48.2702 53.8328 47.5982 54.3525 47.0366C54.8704 46.4653 55.548 46.018 56.3643 45.7062L56.424 45.6849H56.4875C57.3789 45.6849 58.1104 46.3394 58.661 47.6331L58.6899 47.7028L58.6514 51.2604L58.1297 50.9486C57.735 50.7123 57.4251 50.4683 57.0458 49.4768C56.6492 48.4329 56.3316 48.4329 56.1795 48.4329C56.0659 48.4329 55.8484 48.4736 55.4633 48.6653C54.8897 49.0701 54.4546 49.4593 54.1697 49.8215C53.7635 50.325 53.5671 50.8208 53.5671 51.3437V51.3611L53.5652 51.3805C53.5363 51.6516 53.5344 51.7775 53.5344 51.8084C53.5344 52.0912 53.5523 52.3062 53.5883 52.4533C53.6114 52.5566 53.6524 52.7167 53.7115 52.9336C53.9617 52.8781 54.3102 52.7748 54.7568 52.6238C55.4711 52.3817 55.9966 52.2636 56.3643 52.2636C56.6736 52.2636 56.9483 52.3062 57.1883 52.3914C57.4443 52.4843 57.685 52.6451 57.9237 52.8813C58.2817 53.1731 58.516 53.5062 58.6263 53.8806C58.7303 54.2253 58.7804 54.634 58.7804 55.1297V55.1956L58.7573 55.2556C58.4646 56.0245 58.1932 56.7681 57.9872 57.3278L57.9776 57.3549C57.5983 58.1799 57.1228 58.7938 56.5587 59.1753L56.4856 59.2257L56.397 59.2334C56.3008 59.2425 56.2052 59.247 56.1102 59.247C55.4557 59.247 54.8435 59.032 54.2871 58.6079C53.6807 58.1393 53.1955 57.5447 52.8432 56.8398L52.8182 56.7894L52.8105 56.7333C52.8028 56.6771 52.7662 56.5454 52.6238 56.3014C52.5609 56.1942 52.5102 56.0955 52.4717 56.0051C51.3416 56.2433 50.2039 56.5415 49.0796 56.894C49.172 57.0063 49.2503 57.1251 49.3145 57.2503C49.4736 57.5602 49.5538 57.8668 49.5551 58.1702C49.5551 58.5537 49.3992 59.1018 49.0796 59.8454C48.7273 60.6607 48.6388 61.05 48.6291 61.234L48.6214 61.3521L48.5444 61.4412C48.1074 61.9544 47.4779 62.2139 46.6751 62.2139H46.6559ZM45.9243 58.6989C46.0629 58.881 46.2426 59.0153 46.4634 59.1018C46.7098 59.1986 46.9658 59.247 47.243 59.2489C47.0236 59.0127 46.7662 58.7984 46.4711 58.606C46.2105 58.4369 45.9416 58.2935 45.6644 58.1761L45.9243 58.6989ZM54.8646 55.2072C55.0482 55.4667 55.2625 55.6978 55.5076 55.9005C55.858 56.191 56.2199 56.3324 56.6127 56.3324H56.6512L56.6897 56.3421C56.7192 56.3485 56.7468 56.3518 56.7724 56.3518C56.811 56.3518 56.845 56.3434 56.8745 56.3266C56.8732 56.3201 56.8713 56.3124 56.8687 56.3033C56.7493 55.9218 56.5395 55.6584 56.2276 55.4861C55.8875 55.2976 55.4909 55.2033 55.0379 55.2033C54.9801 55.2033 54.9224 55.2046 54.8646 55.2072ZM46.9754 50.906C46.6039 51.6826 46.3998 52.1202 46.317 52.3178C46.2311 52.5192 46.147 52.7413 46.0648 52.984L46.1496 52.9356L46.2073 52.9239C46.5487 52.8581 46.7791 52.74 46.8984 52.5695C47.0306 52.3797 47.0967 52.137 47.0967 51.8414C47.0967 51.5799 47.0601 51.2856 46.9831 50.9408C46.9806 50.9292 46.978 50.9176 46.9754 50.906Z" fill="#1D4380"/>
<path fill-rule="evenodd" clip-rule="evenodd" d="M20.5951 41.343C21.5731 42.443 22.2912 44.153 22.7937 46.5718C22.9271 47.2174 23.06 47.8623 23.1922 48.5065L23.4713 49.8563C23.8294 51.363 24.2818 52.4979 24.815 53.2261C24.8548 53.2803 24.8946 53.3326 24.9344 53.3829C25.7083 54.3357 26.823 54.8005 28.3438 54.8005C29.8396 54.8005 31.3778 54.5894 32.9102 54.1731C33.8689 53.9058 34.9393 53.5224 36.0906 53.0363C36.2202 52.982 36.3517 52.9259 36.4852 52.8678C36.67 52.7884 36.8722 52.6993 37.0993 52.5947L37.1051 52.5928L37.1109 52.5908C37.5671 52.3914 38.9455 51.7077 41.2056 50.5613L42.2183 50.0461V51.1868C42.2183 51.3398 42.199 51.5838 42.1528 51.9866C42.1047 52.3662 42.095 52.6063 42.095 52.74C42.095 53.0208 42.1355 53.2532 42.2125 53.412C42.2433 53.4797 42.2933 53.5475 42.43 53.5979C42.6495 53.6753 42.8574 53.7141 43.0634 53.7141C43.2097 53.7128 43.3945 53.6954 43.6178 53.6618C43.7243 53.6437 43.8251 53.6256 43.9201 53.6076C44.9231 51.6109 46.0897 49.2928 47.2563 46.9882L48.0784 45.3692L48.5519 47.1218C48.8138 48.094 48.9485 49.0952 48.9485 50.1003C48.9485 51.0977 48.8311 52.0331 48.5962 52.8813C48.4833 53.2893 48.335 53.6857 48.1515 54.0704C48.2555 54.0549 48.3614 54.0375 48.4692 54.0181C48.9928 53.9252 49.5415 53.7993 50.1017 53.6463C50.5926 53.5127 51.1181 53.3616 51.6976 53.1873C51.8324 52.2868 51.9344 51.6729 52.0114 51.3185V51.3127L52.0133 51.3069C52.2078 50.4625 52.4619 49.653 52.7718 48.8996C53.103 48.0959 53.5496 47.3891 54.0925 46.8042C54.6508 46.1884 55.3727 45.7081 56.2409 45.3789L56.3603 45.3324H56.4873C57.5308 45.3324 58.3701 46.0606 58.9804 47.4956L59.0381 47.6312L59.0362 47.7803L59.0054 50.6542L58.9919 51.8743L57.9505 51.2507C57.5096 50.9854 57.14 50.6968 56.7184 49.6007C56.6029 49.2947 56.3795 48.7854 56.1793 48.7854C56.1524 48.7854 55.9984 48.7931 55.6422 48.9694C55.107 49.347 54.7047 49.7072 54.4428 50.0384L54.4409 50.0442L54.4371 50.0481C54.0867 50.4799 53.9154 50.904 53.9154 51.3437V51.3805L53.9115 51.4153C53.8846 51.6768 53.8826 51.7891 53.8826 51.8084C53.8826 52.1415 53.9096 52.3042 53.9269 52.372C53.9359 52.4094 53.9468 52.4546 53.9596 52.5076C54.1348 52.4572 54.3581 52.3875 54.645 52.2907C55.4073 52.0331 55.9522 51.913 56.3641 51.913C56.7119 51.913 57.027 51.9627 57.3094 52.0621C57.6078 52.1706 57.885 52.3526 58.1564 52.6199C58.5607 52.953 58.8322 53.3422 58.9611 53.778C59.0747 54.1576 59.1286 54.5991 59.1286 55.1297V55.2595L59.0824 55.3815C58.7917 56.1484 58.5203 56.8901 58.3162 57.4498L58.3066 57.475L58.2931 57.5021C57.8888 58.3871 57.371 59.0475 56.7549 59.4658L56.6067 59.5665L56.4277 59.582C56.3211 59.5924 56.2153 59.5975 56.11 59.5975C55.3785 59.5975 54.6931 59.3593 54.0751 58.8849C53.4264 58.3852 52.9066 57.75 52.5312 56.9966L52.4811 56.8959L52.4657 56.7856C52.4638 56.7817 52.4484 56.6945 52.3252 56.4796C52.3098 56.455 52.295 56.4299 52.2809 56.404C51.3954 56.599 50.5104 56.8288 49.6262 57.0935C49.811 57.4524 49.9034 57.8113 49.9034 58.1702C49.9034 58.6079 49.7436 59.185 49.399 59.9868C49.0371 60.8253 48.9832 61.1526 48.9774 61.2553L48.962 61.4896L48.8099 61.6678C48.3036 62.2643 47.5855 62.5664 46.6749 62.5664H46.6364L46.5999 62.5606C46.1673 62.5141 45.7881 62.4276 45.4621 62.301C45.1015 62.159 44.7755 61.9408 44.4841 61.6465L44.4533 61.6136L44.4245 61.5787C43.8758 60.8583 43.5312 59.8977 43.4041 58.728C43.3348 58.0773 43.2886 57.6357 43.2578 57.3143C42.8516 57.3046 42.5494 57.2833 42.3261 57.2523C41.9179 57.1981 41.504 57.0412 41.092 56.7817L41.0555 56.7604L41.0227 56.7333C40.707 56.4796 40.4856 56.1503 40.3643 55.765C40.2623 55.4474 40.2103 55.1143 40.2065 54.7463L39.833 54.907L37.0396 56.1019C36.9768 56.1303 36.9139 56.1581 36.851 56.1852C36.7817 56.2149 36.7124 56.2446 36.6431 56.2743L36.6373 56.2762L36.6334 56.2782C35.504 56.7623 34.3753 57.2465 33.2471 57.7306L33.2163 57.7422L33.1874 57.7519C32.5252 57.9669 31.7821 58.1509 30.9755 58.3019C30.8972 58.3161 30.8195 58.3297 30.7425 58.3426C29.9956 58.4685 29.2602 58.5324 28.5594 58.5324C27.7085 58.5324 26.8884 58.4433 26.1184 58.2651C25.3156 58.0792 24.5821 57.7616 23.941 57.3239L23.8756 57.2794L23.8217 57.2213C23.2133 56.5648 22.7032 55.7669 22.3047 54.8509C22.2264 54.6714 22.1462 54.4629 22.064 54.2253C21.4653 55.2479 20.6029 56.1581 19.4843 56.9482C17.9115 58.0444 16.1211 58.7106 14.1633 58.9294L14.1267 58.9333H14.0882C13.7442 58.9333 13.4292 58.8855 13.143 58.79C12.799 58.6751 12.5006 58.4607 12.2478 58.147L12.1996 58.087L12.1669 58.0192C11.8512 57.384 11.6914 56.6945 11.6914 55.9664C11.6914 55.2343 11.8493 54.4074 12.1611 53.5069C12.3074 53.0614 12.6001 52.3604 13.0794 51.3011L14.0208 49.2269L14.402 51.4734C14.4886 51.9847 14.3596 52.6373 14.0016 53.4681C13.6319 54.3299 13.6146 54.6165 13.6146 54.665C13.6146 54.7618 13.6435 54.8567 13.7128 54.9671C13.7603 55.0445 13.8386 55.1226 13.9477 55.2014C15.4262 55.1685 16.8257 54.7579 18.1098 53.9833C19.39 53.2144 20.445 52.1667 21.2516 50.8672C20.7857 48.4871 19.9772 46.2562 18.8491 44.2363L18.7258 44.0174L18.7682 43.7715C18.8491 43.3015 18.9312 42.9103 19.0146 42.5979C19.0955 42.3113 19.2322 41.9665 19.4439 41.5134L19.8925 40.5528L20.5951 41.343ZM19.6865 42.7877C19.6159 43.0472 19.5389 43.4151 19.4555 43.8915C20.6683 46.0631 21.5122 48.4323 21.987 50.9989C21.1027 52.5108 19.9297 53.7063 18.4679 54.5856C17.0073 55.4661 15.4339 55.9057 13.7475 55.9044C13.46 55.7391 13.2495 55.5474 13.116 55.3292C12.9813 55.1123 12.9145 54.8909 12.9158 54.665C12.9158 54.3745 13.0647 53.8826 13.3624 53.1893C13.6602 52.4947 13.7776 51.9621 13.7147 51.5915C13.263 52.5844 12.9658 53.2977 12.8234 53.7315C12.5346 54.5591 12.3896 55.304 12.3883 55.9664C12.3883 56.5874 12.5224 57.1671 12.7907 57.7055C12.9549 57.912 13.1455 58.0515 13.3624 58.1238C13.578 58.1961 13.8193 58.2322 14.0863 58.2322C15.9383 58.0243 17.6054 57.4033 19.0878 56.3692C20.7306 55.2111 21.7586 53.7935 22.1718 52.1164C22.4606 53.2344 22.7179 54.0517 22.9438 54.5681C23.3147 55.4189 23.7774 56.1432 24.3318 56.741C24.9081 57.1335 25.5562 57.4137 26.2762 57.5815C26.9975 57.7468 27.7586 57.8294 28.5594 57.8294C29.2332 57.8281 29.9224 57.7681 30.627 57.6493C30.7002 57.6377 30.7727 57.6248 30.8446 57.6106C31.6249 57.466 32.334 57.2904 32.9718 57.0838C34.1012 56.5996 35.2307 56.1161 36.3601 55.6333C36.4935 55.5752 36.627 55.5171 36.7605 55.459C38.1517 54.8625 39.5436 54.2667 40.9361 53.6715C40.9361 53.8768 40.9252 54.217 40.9034 54.6921C40.9034 55.0045 40.9451 55.2898 41.0285 55.5481C41.1081 55.8063 41.2518 56.0193 41.4597 56.1871C41.7883 56.3924 42.1066 56.5151 42.4146 56.5551C42.7265 56.5996 43.2174 56.6171 43.897 56.6171C43.9021 56.7023 43.9117 56.8165 43.9258 56.9599C43.9592 57.3304 44.0163 57.8946 44.0972 58.6525C44.2101 59.6957 44.504 60.5284 44.9789 61.1507C45.2048 61.3779 45.4512 61.5438 45.7181 61.6484C45.9851 61.7517 46.304 61.8234 46.6749 61.8634C47.3731 61.8647 47.9083 61.6471 48.2805 61.2107C48.2998 60.9022 48.4595 60.4006 48.7599 59.706C49.0563 59.0153 49.2046 58.5033 49.2046 58.1702C49.2046 57.9211 49.1378 57.668 49.0043 57.4111C48.8696 57.1516 48.6694 56.9282 48.4037 56.741C49.8424 56.2659 51.2818 55.8837 52.7218 55.5945C52.7231 55.7185 52.7904 55.8947 52.9239 56.1232C53.0574 56.3505 53.1344 56.5364 53.1549 56.681C53.4835 57.342 53.9314 57.8907 54.4987 58.3271C54.9928 58.7054 55.5299 58.8945 56.11 58.8945C56.1934 58.8945 56.2781 58.8907 56.3641 58.8829C56.8788 58.533 57.3107 57.9746 57.6598 57.2077C57.9075 56.5248 58.1648 55.8321 58.4317 55.1297C58.4317 54.674 58.3855 54.2905 58.2931 53.9794C58.2007 53.6708 57.9999 53.392 57.6905 53.1428C57.4839 52.9362 57.2779 52.7961 57.0726 52.7225C56.8672 52.6502 56.6311 52.6141 56.3641 52.6141C56.0356 52.6154 55.537 52.729 54.8683 52.9549C54.1984 53.1834 53.7293 53.3074 53.461 53.3268C53.3596 52.9769 53.2884 52.7128 53.2473 52.5347C53.2063 52.3591 53.1857 52.117 53.1857 51.8084C53.1845 51.7245 53.1954 51.5689 53.2185 51.3417C53.2172 50.7414 53.4431 50.1617 53.8961 49.6026C54.2054 49.2076 54.6687 48.7944 55.2861 48.3632C55.6544 48.176 55.9522 48.0824 56.1793 48.0824C56.651 48.0824 57.0129 48.4077 57.3691 49.3489C57.7329 50.2901 58.0005 50.4606 58.3085 50.6465L58.3393 47.7706C57.8465 46.6125 57.2292 46.0334 56.4873 46.0334C55.7237 46.3226 55.0968 46.7364 54.6065 47.2748C54.1111 47.8132 53.7139 48.4445 53.4148 49.1688C53.1184 49.8918 52.8777 50.6568 52.6929 51.4637C52.6082 51.8588 52.485 52.6147 52.3233 53.7315C51.6456 53.9381 50.9661 54.135 50.2846 54.3222C49.6788 54.4874 49.1147 54.6165 48.5924 54.7095C47.9481 54.8231 47.3706 54.8799 46.8598 54.8799C47.3539 54.1969 47.7094 53.4675 47.9263 52.6915C48.1406 51.9156 48.2484 51.0512 48.2497 50.0984C48.2497 49.1469 48.1258 48.216 47.8781 47.3058C46.7051 49.6233 45.5423 51.9304 44.3898 54.2273C44.205 54.2699 43.9842 54.3119 43.7276 54.3532C43.4709 54.3932 43.2495 54.4138 43.0634 54.4151C42.7772 54.4138 42.4891 54.3622 42.199 54.2602C41.9128 54.1556 41.7075 53.9742 41.583 53.716C41.4598 53.4578 41.3981 53.1318 41.3981 52.738C41.3969 52.5302 41.4174 52.2506 41.4597 51.8995C41.4995 51.5483 41.5201 51.3107 41.5214 51.1868C39.2369 52.3462 37.8591 53.0285 37.3881 53.2338C37.1763 53.3306 36.9671 53.4236 36.7605 53.5127C36.6257 53.5708 36.4923 53.6276 36.3601 53.6831C35.1652 54.1866 34.0775 54.5752 33.097 54.8489C31.4927 55.284 29.9083 55.5016 28.3438 55.5016C26.6163 55.5016 25.2995 54.9425 24.3934 53.8245C24.3472 53.7664 24.301 53.7057 24.2548 53.6424C23.6606 52.8303 23.1723 51.6187 22.7898 50.0074C22.5639 48.91 22.3374 47.8126 22.1102 46.7151C21.6367 44.4403 20.9584 42.8057 20.0754 41.8116C19.8906 42.2041 19.7609 42.5295 19.6865 42.7877ZM56.6125 56.681C56.1389 56.681 55.6968 56.5106 55.2861 56.1697C54.8728 55.8276 54.5436 55.4183 54.2985 54.9419C54.5449 54.8799 54.7913 54.8489 55.0377 54.8489C55.5524 54.8489 56.0041 54.958 56.393 55.1762C56.7857 55.3918 57.054 55.7288 57.1977 56.1871C57.2606 56.3718 57.224 56.5099 57.088 56.6016C56.9956 56.6674 56.8903 56.7003 56.7723 56.7003C56.7209 56.7003 56.6677 56.6939 56.6125 56.681ZM46.3342 59.4271C46.0467 59.3135 45.8106 59.1321 45.6257 58.8829L44.9789 57.5815C45.5731 57.7248 46.134 57.9682 46.6615 58.3116C47.1851 58.6512 47.6009 59.0591 47.9089 59.5356C47.6202 59.5769 47.4039 59.5975 47.2602 59.5975C46.9316 59.5975 46.623 59.5407 46.3342 59.4271ZM45.9954 52.1803C46.1173 51.8898 46.4876 51.1035 47.1062 49.8215C47.1665 50.152 47.2384 50.4986 47.3218 50.8614C47.4039 51.2229 47.4456 51.5483 47.4469 51.8375C47.4456 52.2093 47.3577 52.5198 47.1832 52.769C47.0086 53.0182 46.7051 53.1841 46.2726 53.2667L45.4717 53.7315C45.636 53.1312 45.8106 52.6141 45.9954 52.1803ZM56.0542 55.7901C55.9669 55.7411 55.8732 55.6991 55.7731 55.6643C55.9284 55.7843 56.085 55.8702 56.2429 55.9218C56.1877 55.8715 56.1248 55.8276 56.0542 55.7901Z" fill="white"/>
<path d="M11.3196 88.1917H11.1464C11.1464 87.9593 11.0405 87.8431 10.8287 87.8431H8.31066V93.3373C8.31066 93.5504 8.45056 93.6666 8.73035 93.6859V93.8544H5.66938V93.6859C5.94917 93.6666 6.08906 93.5504 6.08906 93.3373V87.8431H3.57291C3.39965 87.8431 3.29313 87.9593 3.25334 88.1917H3.08008V85.6528H3.25334C3.25334 85.9188 3.36692 86.0518 3.59409 86.0518H10.821C10.9943 86.0518 11.1028 85.9188 11.1464 85.6528H11.3196V88.1917Z" fill="#1D4380"/>
<path d="M19.9538 94.2107H19.7651C19.7074 94.0545 19.6541 93.957 19.6053 93.9183C19.5579 93.8757 19.4398 93.8544 19.2511 93.8544H12.8135V93.6646C13.083 93.6595 13.2178 93.5433 13.2178 93.316V87.8722C13.2178 87.6398 13.083 87.523 12.8135 87.5217V87.3338H19.3609C19.6304 87.3338 19.7651 87.215 19.7651 86.9775H19.9538V89.0283H19.7651C19.7651 88.7908 19.6278 88.672 19.3532 88.672H15.2083V89.7488H17.8053C17.9645 89.7488 18.0729 89.732 18.1307 89.6984C18.1884 89.6649 18.2173 89.5629 18.2173 89.3924H18.406V91.4239H18.2173C18.2071 91.2729 18.1756 91.1754 18.123 91.1315C18.0704 91.0876 17.9645 91.0657 17.8053 91.0657H15.2083V92.5143H19.2665C19.536 92.5143 19.7022 92.3955 19.7651 92.1579H19.9538V94.2107Z" fill="#1D4380"/>
<path d="M30.7368 93.8544H28.1609V93.6646C28.4305 93.6452 28.5652 93.5291 28.5652 93.316V89.1813L26.3013 93.4748L24.1605 89.16V93.316C24.1605 93.5484 24.2953 93.6646 24.5648 93.6646V93.8544H22.1699V93.6646C22.4407 93.6543 22.5761 93.5381 22.5761 93.316V87.8722C22.5761 87.6398 22.4407 87.5229 22.1699 87.5217V87.3338H25.4619V87.5217C25.2745 87.5462 25.1808 87.5927 25.1808 87.6611C25.1808 87.7102 25.2604 87.8896 25.4195 88.1995L26.3956 90.2155L27.4814 88.1259C27.6213 87.8741 27.6912 87.7095 27.6912 87.632C27.6912 87.583 27.5969 87.5462 27.4082 87.5217V87.3338H30.7368V87.5217C30.466 87.5565 30.3306 87.6734 30.3306 87.8722V93.316C30.3306 93.5291 30.466 93.6452 30.7368 93.6646V93.8544Z" fill="#1D4380"/>
<path d="M40.867 93.8544H38.0678V93.6646C38.3373 93.6504 38.4721 93.5729 38.4721 93.4322V91.1683H35.2533V93.4322C35.2533 93.5729 35.388 93.6504 35.6575 93.6646V93.8544H32.8584V93.6646C33.1292 93.6504 33.2646 93.5729 33.2646 93.4322V87.756C33.2646 87.6204 33.1292 87.5423 32.8584 87.5217V87.3338H35.6575V87.5217C35.388 87.5423 35.2533 87.6204 35.2533 87.756V89.6403H38.4721V87.756C38.4721 87.6204 38.3373 87.5423 38.0678 87.5217V87.3338H40.867V87.5217C40.5974 87.5423 40.4627 87.6204 40.4627 87.756V93.4322C40.4627 93.5729 40.5974 93.6504 40.867 93.6646V93.8544Z" fill="#1D4380"/>
<path d="M50.028 94.2107H49.8393C49.7816 94.0545 49.729 93.957 49.6815 93.9183C49.6327 93.8757 49.5146 93.8544 49.3273 93.8544H42.8877V93.6646C43.1585 93.6595 43.2939 93.5433 43.2939 93.316V87.8722C43.2939 87.6398 43.1585 87.523 42.8877 87.5217V87.3338H49.4351C49.7046 87.3338 49.8393 87.215 49.8393 86.9775H50.028V89.0283H49.8393C49.8393 88.7908 49.702 88.672 49.4274 88.672H45.2826V89.7488H47.8796C48.0387 89.7488 48.1472 89.732 48.2049 89.6984C48.2627 89.6649 48.2915 89.5629 48.2915 89.3924H48.4802V91.4239H48.2915C48.2826 91.2729 48.2511 91.1754 48.1972 91.1315C48.1446 91.0876 48.0387 91.0657 47.8796 91.0657H45.2826V92.5143H49.3407C49.6103 92.5143 49.7765 92.3955 49.8393 92.1579H50.028V94.2107Z" fill="#1D4380"/>
<path d="M59.2263 94.2107H59.0376C58.9798 94.0545 58.9266 93.957 58.8778 93.9183C58.8303 93.8757 58.7122 93.8544 58.5236 93.8544H52.0859V93.6646C52.3555 93.6595 52.4902 93.5433 52.4902 93.316V87.8722C52.4902 87.6398 52.3555 87.523 52.0859 87.5217V87.3338H58.6333C58.9028 87.3338 59.0376 87.215 59.0376 86.9775H59.2263V89.0283H59.0376C59.0376 88.7908 58.9003 88.672 58.6256 88.672H54.4808V89.7488H57.0778C57.237 89.7488 57.3454 89.732 57.4032 89.6984C57.4609 89.6649 57.4898 89.5629 57.4898 89.3924H57.6784V91.4239H57.4898C57.4795 91.2729 57.4481 91.1754 57.3955 91.1315C57.3428 91.0876 57.237 91.0657 57.0778 91.0657H54.4808V92.5143H58.539C58.8085 92.5143 58.9747 92.3955 59.0376 92.1579H59.2263V94.2107Z" fill="#1D4380"/>
<path fill-rule="evenodd" clip-rule="evenodd" d="M68.8582 90.6222C68.8582 91.6176 68.5951 92.4058 68.0689 92.9868C67.544 93.5652 66.7675 93.8544 65.7395 93.8544H61.2559V93.6646C61.4189 93.6543 61.5273 93.6227 61.5812 93.5697C61.6338 93.5116 61.6601 93.3877 61.6601 93.1979V87.9884C61.6601 87.8231 61.6357 87.7089 61.587 87.6456C61.5395 87.5785 61.4291 87.5371 61.2559 87.5217V87.3338H65.7395C66.7187 87.3338 67.4837 87.6269 68.0343 88.213C68.5836 88.7953 68.8582 89.5984 68.8582 90.6222ZM66.9331 90.6222C66.9331 89.934 66.7694 89.437 66.4422 89.131C66.1136 88.825 65.5637 88.672 64.7923 88.672H63.6488V92.5143H64.7423C65.5816 92.5143 66.1553 92.3567 66.4633 92.0417C66.7765 91.7267 66.9331 91.2535 66.9331 90.6222Z" fill="#1D4380"/>
<path d="M11.9725 101.287C11.9712 101.549 11.9745 101.791 11.9822 102.011C11.9899 102.234 12.0027 102.438 12.0207 102.625C12.3158 102.664 12.4987 102.694 12.5693 102.716C12.6399 102.738 12.6746 102.768 12.6733 102.805C12.6733 102.83 12.663 102.849 12.6425 102.864C12.6219 102.878 12.595 102.885 12.5616 102.885C12.5424 102.885 12.4974 102.882 12.4269 102.875C12.1342 102.847 11.8525 102.833 11.5817 102.833C11.3045 102.833 11.0209 102.847 10.7308 102.875C10.6628 102.882 10.6198 102.885 10.6018 102.885C10.5672 102.885 10.5389 102.878 10.5171 102.864C10.4966 102.849 10.4863 102.83 10.4863 102.805C10.4863 102.765 10.528 102.733 10.6115 102.709C10.6949 102.684 10.8714 102.658 11.1409 102.629C11.1576 102.434 11.1697 102.226 11.1775 102.006C11.1852 101.784 11.189 101.544 11.189 101.287V99.6023C11.189 99.3454 11.1852 99.1072 11.1775 98.8877C11.1697 98.6695 11.1576 98.4636 11.1409 98.2699C10.8855 98.2415 10.7122 98.2137 10.6211 98.1866C10.5312 98.1608 10.4863 98.1266 10.4863 98.084C10.4863 98.062 10.4966 98.0433 10.5171 98.0278C10.5389 98.0123 10.5672 98.0046 10.6018 98.0046C10.6198 98.0046 10.6615 98.0078 10.727 98.0143C11.0196 98.0478 11.3045 98.0646 11.5817 98.0646C11.8525 98.0646 12.1355 98.0478 12.4307 98.0143C12.4987 98.0078 12.5424 98.0046 12.5616 98.0046C12.595 98.0046 12.6219 98.0123 12.6425 98.0278C12.663 98.0433 12.6733 98.062 12.6733 98.084C12.6746 98.1266 12.6296 98.1608 12.5385 98.1866C12.4487 98.2137 12.2761 98.2415 12.0207 98.2699C12.0027 98.461 11.9899 98.6656 11.9822 98.8838C11.9745 99.1033 11.9712 99.3428 11.9725 99.6023V100.371H14.3058V99.6023C14.3045 99.3454 14.3 99.1072 14.2923 98.8877C14.2846 98.6695 14.2724 98.4636 14.2557 98.2699C14.0003 98.2415 13.8277 98.2137 13.7379 98.1866C13.6468 98.1608 13.6012 98.1266 13.6012 98.084C13.6012 98.0607 13.6115 98.0414 13.632 98.0259C13.6512 98.0117 13.6776 98.0046 13.7109 98.0046C13.7276 98.0046 13.7706 98.0078 13.8399 98.0143C14.1364 98.0478 14.4219 98.0646 14.6966 98.0646C14.9674 98.0646 15.2504 98.0478 15.5456 98.0143C15.6162 98.0078 15.6598 98.0046 15.6765 98.0046C15.7099 98.0046 15.7362 98.0117 15.7554 98.0259C15.7734 98.0414 15.7824 98.0607 15.7824 98.084C15.7824 98.1266 15.7381 98.1608 15.6495 98.1866C15.5597 98.2137 15.3884 98.2415 15.1355 98.2699C15.1188 98.4855 15.1054 98.7037 15.0951 98.9245C15.0848 99.1465 15.0797 99.3725 15.0797 99.6023V101.287C15.0797 101.521 15.0848 101.749 15.0951 101.973C15.1054 102.196 15.1188 102.415 15.1355 102.629C15.4281 102.665 15.6091 102.694 15.6784 102.716C15.7477 102.738 15.7824 102.768 15.7824 102.805C15.7824 102.83 15.7734 102.849 15.7554 102.864C15.7362 102.878 15.7099 102.885 15.6765 102.885C15.6598 102.885 15.6149 102.882 15.5417 102.875C15.2491 102.847 14.9674 102.833 14.6966 102.833C14.4219 102.833 14.137 102.847 13.8418 102.875C13.7712 102.882 13.7276 102.885 13.7109 102.885C13.6776 102.885 13.6512 102.878 13.632 102.864C13.6115 102.849 13.6012 102.83 13.6012 102.805C13.6012 102.765 13.6429 102.733 13.7263 102.709C13.811 102.684 13.9881 102.656 14.2577 102.625C14.2731 102.433 14.2846 102.226 14.2923 102.006C14.3 101.784 14.3045 101.544 14.3058 101.287V100.542H11.9725V101.287Z" fill="url(#paint20_linear_475_4480)"/>
<path fill-rule="evenodd" clip-rule="evenodd" d="M17.3054 101.287C17.1925 101.645 17.109 101.926 17.0551 102.13C17.0012 102.335 16.9666 102.501 16.9512 102.629C17.222 102.658 17.3991 102.684 17.4825 102.709C17.5659 102.733 17.6076 102.765 17.6076 102.805C17.6076 102.83 17.5993 102.849 17.5826 102.864C17.5646 102.878 17.539 102.885 17.5056 102.885C17.4799 102.885 17.3715 102.875 17.1803 102.856C16.9903 102.835 16.8126 102.825 16.647 102.825C16.4763 102.825 16.2953 102.835 16.1041 102.856C15.9129 102.875 15.8057 102.885 15.7826 102.885C15.7505 102.885 15.7242 102.878 15.7037 102.864C15.6844 102.849 15.6748 102.83 15.6748 102.805C15.6748 102.765 15.7172 102.733 15.8019 102.709C15.8866 102.684 16.065 102.658 16.3371 102.629C16.4782 102.39 16.6213 102.129 16.7664 101.845C16.9114 101.56 17.0609 101.246 17.2149 100.906L17.8521 99.4996C17.9471 99.2931 18.0357 99.0859 18.1178 98.878C18.1999 98.6701 18.275 98.4674 18.343 98.2699C18.3687 98.2002 18.3931 98.113 18.4162 98.0085C18.447 97.8729 18.4868 97.8051 18.5356 97.8051C18.5728 97.8064 18.6016 97.8709 18.6222 97.9988C18.626 98.0155 18.628 98.0285 18.628 98.0375C18.6562 98.1911 18.7178 98.4132 18.8128 98.7037C18.9077 98.9942 19.0265 99.3254 19.1689 99.6972L19.9043 101.574C19.9505 101.685 20.0141 101.833 20.0949 102.019C20.1758 102.205 20.2643 102.408 20.3606 102.629C20.6532 102.665 20.8342 102.694 20.9035 102.716C20.9728 102.738 21.0074 102.768 21.0074 102.805C21.0074 102.83 20.9972 102.849 20.9766 102.864C20.9574 102.878 20.9323 102.885 20.9015 102.885C20.8913 102.885 20.7783 102.875 20.5627 102.856C20.3458 102.835 20.1321 102.825 19.9216 102.825C19.6419 102.825 19.3435 102.84 19.0265 102.871C18.9418 102.88 18.8879 102.885 18.8648 102.885C18.8327 102.885 18.8064 102.878 18.7858 102.864C18.7666 102.849 18.7569 102.83 18.7569 102.805C18.7569 102.765 18.7987 102.733 18.8821 102.709C18.9655 102.684 19.1426 102.658 19.4134 102.629C19.38 102.472 19.3274 102.282 19.2556 102.06C19.1824 101.838 19.0887 101.58 18.9745 101.287H17.3054ZM17.3708 101.119H18.9052L18.1756 99.1414L17.3708 101.119Z" fill="url(#paint21_linear_475_4480)"/>
<path d="M21.7462 99.6023C21.7462 99.3454 21.7423 99.1072 21.7346 98.8877C21.7269 98.6695 21.7141 98.4636 21.6961 98.2699C21.4407 98.2415 21.2681 98.2137 21.1782 98.1866C21.0884 98.1608 21.0435 98.1266 21.0435 98.084C21.0435 98.062 21.0537 98.0433 21.0743 98.0278C21.0948 98.0123 21.1231 98.0046 21.159 98.0046C21.1757 98.0046 21.2174 98.0078 21.2841 98.0143C21.5767 98.0478 21.8617 98.0646 22.1389 98.0646C22.4097 98.0646 22.6927 98.0478 22.9879 98.0143C23.0559 98.0078 23.0995 98.0046 23.1188 98.0046C23.1521 98.0046 23.1791 98.0123 23.1996 98.0278C23.2202 98.0433 23.2304 98.062 23.2304 98.084C23.2304 98.1266 23.1855 98.1608 23.0957 98.1866C23.0058 98.2137 22.8332 98.2415 22.5778 98.2699C22.5598 98.461 22.547 98.6656 22.5393 98.8838C22.5316 99.1033 22.5278 99.3428 22.5278 99.6023V101.626C22.5278 101.917 22.5117 102.167 22.4796 102.377C22.4488 102.588 22.4001 102.763 22.3333 102.904C22.2614 103.071 22.1626 103.224 22.0368 103.365C21.9111 103.506 21.7372 103.654 21.5151 103.811C21.3329 103.94 21.1487 104.05 20.9626 104.142C20.7765 104.233 20.6617 104.279 20.618 104.279C20.5936 104.279 20.575 104.275 20.5622 104.266C20.5481 104.257 20.541 104.246 20.541 104.233C20.541 104.182 20.6007 104.122 20.7201 104.053C20.8394 103.984 20.9331 103.922 21.0011 103.865C21.1782 103.72 21.3117 103.583 21.4016 103.454C21.4901 103.325 21.562 103.174 21.6172 103.001C21.6544 102.877 21.6852 102.702 21.7096 102.474C21.734 102.246 21.7462 101.998 21.7462 101.731V99.6023Z" fill="url(#paint22_linear_475_4480)"/>
<path d="M24.3145 99.6023C24.3132 99.3454 24.3087 99.1072 24.301 98.8877C24.2933 98.6695 24.2811 98.4636 24.2645 98.2699C24.0091 98.2415 23.8364 98.2137 23.7466 98.1866C23.6555 98.1608 23.6099 98.1266 23.6099 98.084C23.6099 98.062 23.6208 98.0433 23.6426 98.0278C23.6632 98.0123 23.6908 98.0046 23.7254 98.0046C23.7434 98.0046 23.7857 98.0078 23.8525 98.0143C24.1451 98.0478 24.4294 98.0646 24.7053 98.0646C24.9761 98.0646 25.2591 98.0478 25.5543 98.0143C25.6223 98.0078 25.6666 98.0046 25.6871 98.0046C25.7192 98.0046 25.7462 98.0123 25.768 98.0278C25.7885 98.0433 25.7988 98.062 25.7988 98.084C25.7988 98.1266 25.7539 98.1608 25.664 98.1866C25.5729 98.2137 25.4003 98.2415 25.1462 98.2699C25.1282 98.461 25.1154 98.6656 25.1077 98.8838C25.1 99.1033 25.0961 99.3428 25.0961 99.6023V101.626C25.0961 101.917 25.0801 102.167 25.048 102.377C25.0159 102.588 24.9671 102.763 24.9017 102.904C24.8285 103.071 24.7291 103.224 24.6033 103.365C24.4788 103.506 24.3049 103.654 24.0816 103.811C23.8993 103.94 23.7151 104.05 23.5291 104.142C23.3442 104.233 23.2294 104.279 23.1845 104.279C23.1601 104.279 23.1415 104.275 23.1286 104.266C23.1158 104.257 23.1094 104.246 23.1094 104.233C23.1094 104.182 23.1684 104.122 23.2865 104.053C23.4058 103.984 23.4995 103.922 23.5676 103.865C23.7459 103.72 23.8794 103.583 23.968 103.454C24.0578 103.325 24.1303 103.174 24.1855 103.001C24.2227 102.877 24.2535 102.702 24.2779 102.474C24.301 102.246 24.3132 101.998 24.3145 101.731V99.6023Z" fill="url(#paint23_linear_475_4480)"/>
<path d="M31.6471 100.84C31.2531 101.084 30.9817 101.284 30.8328 101.44C30.6839 101.598 30.6095 101.755 30.6095 101.913C30.6095 101.926 30.6108 101.948 30.6133 101.979C30.6159 102.01 30.6172 102.033 30.6172 102.048C30.6172 102.075 30.6127 102.096 30.6037 102.11C30.5947 102.124 30.5838 102.132 30.571 102.132C30.5261 102.132 30.4946 102.097 30.4767 102.029C30.4574 101.96 30.4478 101.843 30.4478 101.676C30.4478 101.412 30.5241 101.179 30.6769 100.977C30.8283 100.775 31.1941 100.495 31.7742 100.139C31.8166 100.113 31.8788 100.075 31.9609 100.026C32.3447 99.7914 32.5366 99.6255 32.5366 99.5287C32.5366 99.5093 32.534 99.4938 32.5289 99.4822C32.5237 99.4719 32.5179 99.4667 32.5115 99.4667C32.5 99.4654 32.4685 99.4758 32.4172 99.4977C32.3659 99.5184 32.3177 99.5287 32.2728 99.5287C32.1676 99.5287 32.0861 99.5022 32.0283 99.4493C31.9718 99.3964 31.9436 99.3234 31.9436 99.2305C31.9436 99.1311 31.9763 99.0478 32.0418 98.9806C32.1085 98.9148 32.19 98.8819 32.2863 98.8819C32.4159 98.8819 32.5186 98.9309 32.5943 99.029C32.6687 99.1272 32.706 99.2614 32.706 99.4319C32.706 99.6475 32.6296 99.8644 32.4769 100.083C32.3241 100.299 32.0989 100.513 31.8012 100.724C31.8987 100.845 31.9712 100.972 32.0187 101.105C32.0675 101.238 32.0918 101.379 32.0918 101.527C32.0918 101.943 31.925 102.287 31.5913 102.56C31.2576 102.832 30.8296 102.968 30.3072 102.968C30.0454 102.968 29.8041 102.929 29.5834 102.852C29.3639 102.774 29.1682 102.66 28.9962 102.507C28.8024 102.332 28.6548 102.13 28.5535 101.903C28.4521 101.677 28.4014 101.436 28.4014 101.179C28.4014 100.776 28.5182 100.438 28.7517 100.164C28.9853 99.8889 29.2991 99.7249 29.6931 99.672C29.5481 99.5119 29.4461 99.3731 29.387 99.2556C29.3293 99.1394 29.3004 99.0168 29.3004 98.8877C29.3004 98.6217 29.3979 98.3958 29.593 98.2099C29.7868 98.0227 30.0268 97.9291 30.313 97.9291C30.4696 97.9291 30.6146 97.9568 30.7481 98.0123C30.8829 98.0665 31.0061 98.1485 31.1177 98.2583C31.1819 98.3177 31.2358 98.3867 31.2794 98.4655C31.3244 98.543 31.3468 98.6017 31.3468 98.6417C31.3468 98.6663 31.3423 98.6843 31.3333 98.696C31.3244 98.7063 31.3109 98.7115 31.2929 98.7115C31.2801 98.7115 31.2448 98.6895 31.187 98.6456C30.974 98.4778 30.7641 98.3938 30.5575 98.3938C30.3303 98.3938 30.1385 98.4661 29.9819 98.6107C29.824 98.7553 29.7451 98.9322 29.7451 99.1414C29.7451 99.2201 29.7605 99.3021 29.7913 99.3873C29.8221 99.4725 29.8715 99.5694 29.9395 99.6778C30.1577 99.7269 30.3477 99.8076 30.5094 99.9199C30.6711 100.034 30.752 100.129 30.752 100.207C30.752 100.226 30.7449 100.242 30.7308 100.255C30.7167 100.269 30.6993 100.276 30.6788 100.276C30.6698 100.276 30.6467 100.269 30.6095 100.255C30.476 100.208 30.3432 100.185 30.211 100.185C29.8901 100.185 29.6309 100.292 29.4332 100.507C29.2369 100.72 29.1387 101 29.1387 101.347C29.1387 101.773 29.2664 102.115 29.5218 102.374C29.7785 102.633 30.1173 102.763 30.5383 102.763C30.9361 102.763 31.2666 102.647 31.5297 102.416C31.7928 102.184 31.9244 101.894 31.9244 101.547C31.9244 101.429 31.9019 101.315 31.857 101.204C31.8133 101.092 31.7434 100.97 31.6471 100.84Z" fill="url(#paint24_linear_475_4480)"/>
<path d="M39.259 98.2641C38.9934 98.2344 38.8188 98.2079 38.7354 98.1847C38.6532 98.1602 38.6122 98.1266 38.6122 98.084C38.6122 98.0607 38.6224 98.0414 38.643 98.0259C38.6622 98.0117 38.6873 98.0046 38.7181 98.0046C38.7309 98.0046 38.8291 98.0136 39.0126 98.0317C39.1948 98.0498 39.372 98.0588 39.5439 98.0588C39.7172 98.0588 39.8937 98.0498 40.0734 98.0317C40.2543 98.0136 40.3506 98.0046 40.3621 98.0046C40.3942 98.0046 40.4205 98.0117 40.4411 98.0259C40.4603 98.0414 40.4699 98.0607 40.4699 98.084C40.4699 98.1266 40.4289 98.1602 40.3467 98.1847C40.2646 98.2079 40.0894 98.2344 39.8212 98.2641C39.7878 98.441 39.7583 98.6701 39.7326 98.9516C39.7069 99.2318 39.6826 99.5913 39.6595 100.03L39.6132 100.997C39.5773 101.673 39.415 102.171 39.1262 102.49C38.8387 102.809 38.4055 102.968 37.8267 102.968C37.4468 102.968 37.1221 102.913 36.8526 102.804C36.5831 102.694 36.3636 102.529 36.1942 102.308C36.0838 102.163 36.0062 101.988 35.9613 101.781C35.9163 101.574 35.8939 101.25 35.8939 100.807V99.6023C35.8939 99.3428 35.89 99.1033 35.8823 98.8838C35.8746 98.6656 35.8631 98.461 35.8477 98.2699C35.5628 98.235 35.3799 98.2053 35.299 98.1808C35.2182 98.1563 35.1777 98.124 35.1777 98.084C35.1777 98.0607 35.1874 98.0414 35.2066 98.0259C35.2259 98.0117 35.2522 98.0046 35.2855 98.0046C35.3009 98.0046 35.3382 98.0078 35.3972 98.0143C35.6924 98.044 35.9844 98.0588 36.2731 98.0588C36.5632 98.0588 36.8532 98.044 37.1433 98.0143C37.2036 98.0078 37.2402 98.0046 37.253 98.0046C37.2864 98.0046 37.3127 98.0117 37.332 98.0259C37.3512 98.0414 37.3608 98.0607 37.3608 98.084C37.3608 98.1227 37.323 98.1544 37.2473 98.1789C37.169 98.2047 36.9951 98.235 36.7255 98.2699C36.7101 98.461 36.6979 98.6656 36.689 98.8838C36.6825 99.1033 36.6793 99.3428 36.6793 99.6023V100.913C36.6793 101.245 36.6877 101.49 36.7044 101.649C36.7223 101.809 36.7525 101.948 36.7949 102.066C36.8783 102.305 37.0124 102.483 37.1972 102.602C37.382 102.72 37.6239 102.778 37.923 102.778C38.4505 102.778 38.8323 102.611 39.0684 102.277C39.3033 101.941 39.4207 101.389 39.4207 100.621V99.9373C39.4207 99.7153 39.4079 99.4654 39.3822 99.1879C39.3553 98.9077 39.3142 98.5998 39.259 98.2641Z" fill="url(#paint25_linear_475_4480)"/>
<path d="M41.749 102.625C42.0326 102.656 42.2181 102.684 42.3054 102.709C42.3939 102.733 42.4382 102.765 42.4382 102.805C42.4382 102.83 42.4286 102.849 42.4093 102.864C42.3888 102.878 42.3618 102.885 42.3285 102.885C42.3208 102.885 42.2174 102.876 42.0185 102.858C41.8209 102.841 41.6264 102.833 41.4352 102.833C41.2876 102.833 41.1272 102.841 40.9539 102.858C40.7794 102.876 40.6793 102.885 40.6536 102.885C40.6202 102.885 40.5926 102.878 40.5708 102.864C40.549 102.849 40.5381 102.83 40.5381 102.805C40.5381 102.765 40.5798 102.733 40.6632 102.709C40.7466 102.684 40.9237 102.658 41.1946 102.629C41.2382 102.472 41.2799 102.263 41.3197 102.002C41.3595 101.741 41.4012 101.397 41.4448 100.97L41.647 98.8548L41.5103 98.6495C41.4333 98.532 41.3601 98.4397 41.2908 98.3725C41.2215 98.3041 41.1561 98.2615 41.0944 98.2447C41.0482 98.2305 40.9892 98.215 40.9173 98.1982C40.78 98.1673 40.7113 98.1292 40.7113 98.084C40.7113 98.0607 40.7216 98.0414 40.7421 98.0259C40.7614 98.0117 40.7877 98.0046 40.8211 98.0046C40.8699 98.0046 40.9725 98.0149 41.1291 98.0356C41.287 98.0549 41.4211 98.0646 41.5314 98.0646C41.5943 98.0646 41.6636 98.0627 41.7394 98.0588C41.8138 98.0536 41.8908 98.0465 41.9704 98.0375L43.653 100.964L44.9332 98.0239C45.0127 98.0356 45.0936 98.044 45.1757 98.0491C45.2579 98.0556 45.3406 98.0588 45.4241 98.0588C45.5332 98.0588 45.6609 98.0498 45.8072 98.0317C45.9548 98.0136 46.0504 98.0046 46.094 98.0046C46.1248 98.0046 46.1505 98.0117 46.171 98.0259C46.1903 98.0414 46.1999 98.0607 46.1999 98.084C46.1999 98.1266 46.1556 98.1608 46.0671 98.1866C45.9772 98.2137 45.8059 98.2415 45.5531 98.2699L45.7225 101.568C45.7315 101.744 45.7456 101.92 45.7648 102.097C45.7841 102.272 45.8085 102.45 45.838 102.629C46.1101 102.658 46.2878 102.684 46.3712 102.709C46.4559 102.733 46.4983 102.765 46.4983 102.805C46.497 102.83 46.4874 102.849 46.4694 102.864C46.4502 102.878 46.4245 102.885 46.3924 102.885C46.3744 102.885 46.3289 102.882 46.2557 102.875C45.9593 102.847 45.6756 102.833 45.4048 102.833C45.1276 102.833 44.844 102.847 44.5539 102.875C44.4859 102.882 44.4429 102.885 44.4249 102.885C44.3916 102.885 44.3653 102.878 44.346 102.864C44.3255 102.849 44.3152 102.83 44.3152 102.805C44.3152 102.765 44.3569 102.733 44.4403 102.709C44.5225 102.684 44.6977 102.658 44.9659 102.629C44.9659 102.443 44.9627 102.25 44.9563 102.05C44.9498 101.85 44.9409 101.638 44.9293 101.415L44.7888 98.8218C44.5706 99.2827 44.3704 99.7133 44.1881 100.114C44.0046 100.514 43.8538 100.851 43.7357 101.126L43.5432 101.568C43.5342 101.587 43.5233 101.616 43.5105 101.653C43.4733 101.755 43.4328 101.806 43.3892 101.806C43.3687 101.806 43.3494 101.798 43.3315 101.781C43.3122 101.764 43.2885 101.731 43.2602 101.68L41.7682 99.0581L41.672 100.598C41.6656 100.715 41.6611 100.832 41.6585 100.948C41.6547 101.064 41.6527 101.177 41.6527 101.287C41.6527 101.54 41.6604 101.778 41.6758 102C41.6912 102.221 41.7156 102.429 41.749 102.625Z" fill="url(#paint26_linear_475_4480)"/>
<path d="M47.5933 99.6081C47.5933 99.3512 47.5894 99.1123 47.5817 98.8916C47.5727 98.6708 47.5599 98.4636 47.5432 98.2699C47.275 98.2415 47.0992 98.2144 47.0157 98.1886C46.931 98.164 46.8887 98.1318 46.8887 98.0917C46.8887 98.0698 46.8996 98.0511 46.9214 98.0356C46.9419 98.0201 46.9695 98.0123 47.0042 98.0123C47.0286 98.0123 47.1332 98.022 47.318 98.0414C47.5028 98.0607 47.6748 98.0704 47.8339 98.0704C47.9879 98.0704 48.2177 98.0594 48.5231 98.0375C48.8286 98.0156 49.0564 98.0046 49.2065 98.0046C49.811 98.0046 50.2692 98.1066 50.5811 98.3106C50.8942 98.5146 51.0508 98.8134 51.0508 99.2072C51.0508 99.5739 50.9058 99.8838 50.6157 100.137C50.3244 100.389 49.9291 100.545 49.4299 100.607L50.3674 101.936C50.5612 102.206 50.7036 102.377 50.7948 102.451C50.8859 102.523 50.9777 102.56 51.0701 102.56C51.1214 102.56 51.1753 102.55 51.2318 102.53C51.2895 102.51 51.3242 102.499 51.3357 102.499C51.355 102.499 51.371 102.507 51.3839 102.521C51.398 102.534 51.405 102.551 51.405 102.573C51.405 102.638 51.3242 102.72 51.1625 102.819C51.002 102.918 50.8461 102.968 50.6947 102.968C50.352 102.968 49.9689 102.667 49.5454 102.066L49.5165 102.021L48.5789 100.671C48.5571 100.64 48.5411 100.614 48.5308 100.592C48.5218 100.571 48.5173 100.552 48.5173 100.534C48.5173 100.502 48.5263 100.478 48.5443 100.462C48.5635 100.447 48.5905 100.439 48.6251 100.439C48.6316 100.439 48.6739 100.442 48.7522 100.449C48.8305 100.455 48.9056 100.458 48.9774 100.458C49.4408 100.458 49.777 100.381 49.9862 100.228C50.1967 100.074 50.3019 99.8289 50.3019 99.4919C50.3019 99.133 50.1749 98.8283 49.9208 98.5778C49.6666 98.3261 49.3548 98.2002 48.9851 98.2002C48.8966 98.2002 48.8055 98.2066 48.7118 98.2195C48.6194 98.2312 48.5238 98.2479 48.4249 98.2699C48.407 98.461 48.3941 98.6669 48.3864 98.8877C48.3787 99.1097 48.3749 99.3499 48.3749 99.6081V101.287C48.3749 101.549 48.3787 101.791 48.3864 102.011C48.3941 102.234 48.407 102.438 48.4249 102.625C48.7009 102.662 48.8786 102.692 48.9582 102.716C49.0378 102.741 49.0775 102.773 49.0775 102.813C49.0775 102.834 49.0673 102.851 49.0467 102.865C49.0249 102.878 48.998 102.885 48.9659 102.885C48.9454 102.885 48.8998 102.882 48.8292 102.875C48.5366 102.847 48.2549 102.833 47.9841 102.833C47.7081 102.833 47.4245 102.847 47.1332 102.875C47.0651 102.882 47.0221 102.885 47.0042 102.885C46.9695 102.885 46.9419 102.878 46.9214 102.865C46.8996 102.851 46.8887 102.834 46.8887 102.813C46.8887 102.771 46.9342 102.736 47.0254 102.709C47.1152 102.683 47.2878 102.656 47.5432 102.629C47.5599 102.434 47.5727 102.226 47.5817 102.006C47.5894 101.784 47.5933 101.544 47.5933 101.287V99.6081Z" fill="url(#paint27_linear_475_4480)"/>
<path fill-rule="evenodd" clip-rule="evenodd" d="M52.57 101.287C52.4571 101.645 52.3737 101.926 52.3198 102.13C52.2659 102.335 52.2312 102.501 52.2158 102.629C52.4866 102.658 52.6637 102.684 52.7472 102.709C52.8306 102.733 52.8723 102.765 52.8723 102.805C52.8723 102.83 52.8639 102.849 52.8473 102.864C52.8293 102.878 52.8036 102.885 52.7703 102.885C52.7446 102.885 52.6361 102.875 52.4449 102.856C52.255 102.835 52.0778 102.825 51.9136 102.825C51.7416 102.825 51.56 102.835 51.3688 102.856C51.1775 102.875 51.0704 102.885 51.0473 102.885C51.0152 102.885 50.9889 102.878 50.9683 102.864C50.9491 102.849 50.9395 102.83 50.9395 102.805C50.9395 102.765 50.9818 102.733 51.0665 102.709C51.1512 102.684 51.3296 102.658 51.6017 102.629C51.7429 102.39 51.886 102.129 52.031 101.845C52.176 101.56 52.3262 101.246 52.4815 100.906L53.1168 99.4996C53.2118 99.2931 53.3003 99.0859 53.3824 98.878C53.4646 98.6701 53.5403 98.4674 53.6096 98.2699C53.634 98.2002 53.6577 98.113 53.6808 98.0085C53.7116 97.8729 53.7514 97.8051 53.8002 97.8051C53.8374 97.8064 53.8663 97.8709 53.8868 97.9988C53.8907 98.0155 53.8926 98.0285 53.8926 98.0375C53.9208 98.1911 53.9824 98.4132 54.0774 98.7037C54.1724 98.9942 54.2911 99.3254 54.4336 99.6972L55.1709 101.574C55.2158 101.685 55.2787 101.833 55.3596 102.019C55.4404 102.205 55.529 102.408 55.6252 102.629C55.9178 102.665 56.0988 102.694 56.1681 102.716C56.2374 102.738 56.2721 102.768 56.2721 102.805C56.2721 102.83 56.2625 102.849 56.2432 102.864C56.2227 102.878 56.197 102.885 56.1662 102.885C56.1559 102.885 56.043 102.875 55.8274 102.856C55.6117 102.835 55.3981 102.825 55.1863 102.825C54.9065 102.825 54.6081 102.84 54.2911 102.871C54.2064 102.88 54.1525 102.885 54.1294 102.885C54.0973 102.885 54.071 102.878 54.0505 102.864C54.0312 102.849 54.0216 102.83 54.0216 102.805C54.0216 102.765 54.0633 102.733 54.1467 102.709C54.2301 102.684 54.4073 102.658 54.6781 102.629C54.6447 102.472 54.5921 102.282 54.5202 102.06C54.447 101.838 54.3534 101.58 54.2391 101.287H52.57ZM52.6355 101.119H54.1698L53.4421 99.1414L52.6355 101.119Z" fill="url(#paint28_linear_475_4480)"/>
<path d="M57.7929 101.287C57.7929 101.549 57.7967 101.791 57.8044 102.011C57.8121 102.234 57.825 102.438 57.8429 102.625C58.1381 102.664 58.3204 102.694 58.3897 102.716C58.4603 102.738 58.4955 102.768 58.4955 102.805C58.4955 102.83 58.4853 102.849 58.4647 102.864C58.4442 102.878 58.4173 102.885 58.3839 102.885C58.3646 102.885 58.3197 102.882 58.2491 102.875C57.9565 102.847 57.6748 102.833 57.404 102.833C57.1268 102.833 56.8431 102.847 56.5531 102.875C56.4851 102.882 56.4421 102.885 56.4241 102.885C56.3882 102.885 56.3599 102.878 56.3394 102.864C56.3189 102.849 56.3086 102.83 56.3086 102.805C56.3086 102.765 56.3503 102.733 56.4337 102.709C56.5172 102.684 56.693 102.658 56.9612 102.629C56.9792 102.434 56.992 102.226 56.9997 102.006C57.0074 101.784 57.0113 101.544 57.0113 101.287V99.6023C57.0113 99.3454 57.0074 99.1072 56.9997 98.8877C56.992 98.6695 56.9792 98.4636 56.9612 98.2699C56.7058 98.2415 56.5332 98.2137 56.4434 98.1866C56.3535 98.1608 56.3086 98.1266 56.3086 98.084C56.3086 98.062 56.3189 98.0433 56.3394 98.0278C56.3599 98.0123 56.3882 98.0046 56.4241 98.0046C56.4408 98.0046 56.4825 98.0078 56.5492 98.0143C56.8419 98.0478 57.1268 98.0646 57.404 98.0646C57.6748 98.0646 57.9572 98.0478 58.2511 98.0143C58.3204 98.0078 58.3646 98.0046 58.3839 98.0046C58.4173 98.0046 58.4442 98.0123 58.4647 98.0278C58.4853 98.0433 58.4955 98.062 58.4955 98.084C58.4955 98.1266 58.4506 98.1608 58.3608 98.1866C58.271 98.2137 58.0983 98.2415 57.8429 98.2699C57.825 98.461 57.8121 98.6656 57.8044 98.8838C57.7967 99.1033 57.7929 99.3428 57.7929 99.6023V100.371H60.1261V99.6023C60.1261 99.3454 60.1223 99.1072 60.1146 98.8877C60.1069 98.6695 60.0947 98.4636 60.078 98.2699C59.8226 98.2415 59.6493 98.2137 59.5582 98.1866C59.4684 98.1608 59.4235 98.1266 59.4235 98.084C59.4235 98.0607 59.4331 98.0414 59.4523 98.0259C59.4729 98.0117 59.4998 98.0046 59.5332 98.0046C59.5499 98.0046 59.5922 98.0078 59.6603 98.0143C59.958 98.0478 60.2442 98.0646 60.5189 98.0646C60.7897 98.0646 61.0727 98.0478 61.3679 98.0143C61.4372 98.0078 61.4808 98.0046 61.4988 98.0046C61.5321 98.0046 61.5584 98.0117 61.5777 98.0259C61.5957 98.0414 61.6046 98.0607 61.6046 98.084C61.6046 98.1266 61.5604 98.1608 61.4718 98.1866C61.382 98.2137 61.2106 98.2415 60.9578 98.2699C60.9398 98.4855 60.9263 98.7037 60.9174 98.9245C60.9071 99.1465 60.902 99.3725 60.902 99.6023V101.287C60.902 101.521 60.9071 101.749 60.9174 101.973C60.9263 102.196 60.9398 102.415 60.9578 102.629C61.2504 102.665 61.4314 102.694 61.5007 102.716C61.57 102.738 61.6046 102.768 61.6046 102.805C61.6046 102.83 61.5957 102.849 61.5777 102.864C61.5584 102.878 61.5321 102.885 61.4988 102.885C61.4821 102.885 61.4372 102.882 61.364 102.875C61.0714 102.847 60.7897 102.833 60.5189 102.833C60.2442 102.833 59.9593 102.847 59.6641 102.875C59.5935 102.882 59.5499 102.885 59.5332 102.885C59.4998 102.885 59.4729 102.878 59.4523 102.864C59.4331 102.849 59.4235 102.83 59.4235 102.805C59.4235 102.765 59.4652 102.733 59.5486 102.709C59.632 102.684 59.8091 102.656 60.0799 102.625C60.0953 102.433 60.1069 102.226 60.1146 102.006C60.1223 101.784 60.1261 101.544 60.1261 101.287V100.542H57.7929V101.287Z" fill="url(#paint29_linear_475_4480)"/>
<path d="M37.3663 76.9748C21.199 76.9748 8.09272 63.7903 8.09272 47.5266C8.09272 31.5611 20.7216 18.5664 36.475 18.0919C36.1682 18.0816 35.8602 18.0764 35.5509 18.0764C18.3806 18.0764 4.46191 32.0782 4.46191 49.3528C4.46191 66.6255 18.3806 80.6273 35.5509 80.6273C52.7231 80.6273 66.6418 66.6255 66.6418 49.3528C66.6418 49.0417 66.6367 48.7318 66.6264 48.4232C66.1547 64.2725 53.2371 76.9748 37.3663 76.9748Z" fill="#1D4380"/>
<path fill-rule="evenodd" clip-rule="evenodd" d="M22.8912 68.8662H20.9237C20.7364 68.8662 20.5233 68.8107 20.2846 68.6996C20.0446 68.5873 19.8572 68.4556 19.7225 68.3046C19.4003 67.9469 19.2393 67.4731 19.2393 66.8831C19.2393 66.3254 19.3984 65.8554 19.7167 65.4732C20.035 65.0911 20.4566 64.9 20.9815 64.9C21.4756 64.9 21.8799 65.0872 22.1943 65.4616C22.4716 65.796 22.6102 66.2698 22.6102 66.8831C22.6102 66.9554 22.6102 67.0632 22.6102 67.2065C22.6025 67.3498 22.5986 67.457 22.5986 67.528C22.5986 68.0857 22.6962 68.5318 22.8912 68.8662ZM21.946 68.353L21.9364 66.9915C21.9287 65.9393 21.5911 65.4132 20.9237 65.4132C20.2872 65.4132 19.9689 65.8715 19.9689 66.7882C19.9689 67.2104 20.0369 67.557 20.1729 67.8282C20.3513 68.1781 20.6209 68.353 20.9815 68.353H21.946ZM20.8217 63.9317C20.8217 64.0272 20.7883 64.1112 20.7216 64.1835C20.6536 64.2545 20.5747 64.29 20.4848 64.29C20.395 64.29 20.3167 64.2545 20.25 64.1835C20.1819 64.1112 20.1479 64.0272 20.1479 63.9317C20.1479 63.6928 20.2602 63.5734 20.4848 63.5734C20.5747 63.5734 20.6536 63.6096 20.7216 63.6819C20.7883 63.7529 20.8217 63.8362 20.8217 63.9317ZM21.586 63.9317C21.586 64.0272 21.552 64.1112 21.484 64.1835C21.4172 64.2545 21.3389 64.29 21.2491 64.29C21.1593 64.29 21.0803 64.2545 21.0123 64.1835C20.9456 64.1112 20.9122 64.0272 20.9122 63.9317C20.9122 63.8362 20.9456 63.7529 21.0123 63.6819C21.0803 63.6096 21.1593 63.5734 21.2491 63.5734C21.4737 63.5734 21.586 63.6928 21.586 63.9317Z" fill="url(#paint30_linear_475_4480)"/>
<path d="M25.2491 68.8662H24.6523V69.1412C24.6536 69.5866 24.506 69.983 24.2095 70.3303C23.913 70.6763 23.537 70.8493 23.0814 70.8493H23.0352V69.9894C23.365 69.9894 23.6121 69.8222 23.7763 69.4879C23.9124 69.2322 23.9804 68.9095 23.9804 68.5195L23.99 66.0581C23.99 65.6372 23.8963 65.2512 23.709 64.9H24.9353C24.7466 65.2112 24.6523 65.5972 24.6523 66.0581V68.353H25.2491V68.8662Z" fill="url(#paint31_linear_475_4480)"/>
<path fill-rule="evenodd" clip-rule="evenodd" d="M29.2271 68.8662H28.6092C28.4885 69.1928 28.2806 69.464 27.9854 69.6796C27.689 69.8939 27.3797 70.0011 27.0575 70.0011H25.3846V68.8662H24.834V68.3646H25.3846V66.7282C25.3846 66.2027 25.5232 65.7805 25.8004 65.4616C26.1225 65.0872 26.5268 64.9 27.0132 64.9C27.5151 64.9 27.9309 65.0872 28.2607 65.4616C28.5893 65.836 28.7542 66.2944 28.7555 66.8366V67.6248C28.7542 67.9502 28.7465 68.1968 28.7324 68.3646H29.2271V68.8662ZM28.0239 67.9114V66.7166C28.0239 66.3576 27.9527 66.0587 27.8102 65.8199C27.6383 65.541 27.3912 65.4016 27.0691 65.4016C26.7097 65.4016 26.444 65.581 26.2721 65.94C26.1296 66.2188 26.0584 66.5655 26.0584 66.9799V69.4762H27.0132C27.3726 69.4762 27.6421 69.3006 27.8218 68.9495C27.9565 68.6796 28.0239 68.3336 28.0239 67.9114Z" fill="url(#paint32_linear_475_4480)"/>
<path fill-rule="evenodd" clip-rule="evenodd" d="M32.7649 68.8662H28.8203V68.353H29.9889L29.0783 66.8831C29.0783 66.3176 29.2432 65.8477 29.573 65.4732C29.9029 65.0988 30.3187 64.9116 30.8205 64.9116C31.2992 64.9116 31.6997 65.1008 32.0218 65.479C32.344 65.8573 32.505 66.3254 32.505 66.8831L31.4616 68.353H32.7649V68.8662ZM31.7754 66.7882C31.7754 66.4603 31.6875 66.1491 31.5117 65.8548C31.3358 65.5604 31.0868 65.4132 30.7647 65.4132C30.1281 65.4132 29.8098 65.8715 29.8098 66.7882L30.6973 68.353L31.7754 66.7882Z" fill="url(#paint33_linear_475_4480)"/>
<path d="M34.2807 68.8662H32.4941V68.353H33.3373V64.0053C33.3373 63.5663 33.2437 63.1796 33.0563 62.8452H34.2807C34.101 63.2042 34.0111 63.5908 34.0111 64.0053V67.7081C34.0111 68.1225 34.101 68.5086 34.2807 68.8662Z" fill="url(#paint34_linear_475_4480)"/>
<path d="M36.0115 68.8662H34.7871C34.9668 68.5086 35.0566 68.1387 35.0566 67.7565V63.9685C35.0566 63.5863 34.9668 63.2158 34.7871 62.8569H36.0115C35.8241 63.1835 35.7304 63.5702 35.7304 64.0169V67.7081C35.7304 68.1535 35.8241 68.5396 36.0115 68.8662Z" fill="url(#paint35_linear_475_4480)"/>
<path fill-rule="evenodd" clip-rule="evenodd" d="M39.8978 68.8546C39.8978 69.3955 39.7444 69.8616 39.4377 70.2528C39.1296 70.6427 38.744 70.8377 38.2807 70.8377C37.7339 70.8377 37.277 70.6427 36.91 70.2528C36.7367 70.0695 36.5981 69.8545 36.4941 69.6079H37.2796C37.3476 69.6789 37.4304 69.7422 37.5279 69.7977C37.7898 69.9578 38.0407 70.0217 38.2807 69.9894C38.572 69.9894 38.8005 69.8584 38.966 69.5963C39.025 69.5085 39.111 69.2651 39.224 68.8662H38.2133C37.8013 68.8907 37.3964 68.7035 36.9985 68.3046C36.6841 67.9624 36.5269 67.4886 36.5269 66.8831C36.5269 66.3099 36.6918 65.836 37.0216 65.4616C37.3515 65.0872 37.7673 64.9 38.2691 64.9C38.7478 64.9 39.1386 65.0756 39.4415 65.4268C39.7457 65.7766 39.8978 66.2104 39.8978 66.7282V68.8546ZM39.224 68.353V66.9915C39.224 66.5694 39.1566 66.2188 39.0218 65.94C38.8422 65.5888 38.5726 65.4132 38.2133 65.4132C37.5767 65.4132 37.2584 65.8715 37.2584 66.7882C37.2584 67.2104 37.3296 67.557 37.4721 67.8282C37.6441 68.1781 37.9098 68.353 38.2691 68.353H39.224Z" fill="url(#paint36_linear_475_4480)"/>
<path fill-rule="evenodd" clip-rule="evenodd" d="M45.9962 68.8662H43.5359C43.2137 68.8662 42.907 68.934 42.6157 69.0695C42.4655 69.1406 42.3904 69.2445 42.3904 69.3813C42.3904 69.5001 42.4283 69.5911 42.504 69.6544C42.7722 69.8933 43.165 70.0127 43.6822 70.0127C44.0416 70.0127 44.3746 69.9333 44.6813 69.7745C44.7712 69.7267 44.854 69.6628 44.9297 69.5827H45.7151C45.6112 69.8384 45.4726 70.0579 45.2993 70.2412C44.9181 70.6466 44.4016 70.8493 43.7496 70.8493C43.0681 70.8493 42.5143 70.6343 42.0882 70.2044C41.8328 69.9501 41.7051 69.6996 41.7051 69.453C41.7051 69.1496 41.8681 68.8901 42.1941 68.6745C42.5201 68.4602 42.8961 68.353 43.3222 68.353H44.6717V66.9915C44.6717 66.5771 44.6005 66.2305 44.458 65.9516C44.2783 65.5927 44.012 65.4132 43.6591 65.4132C43.0302 65.4132 42.7087 65.8477 42.6946 66.7166C42.6869 67.0432 42.7799 67.3776 42.9737 67.7197H41.7494C41.8546 67.5041 41.9258 67.333 41.963 67.2065C41.9938 67.1032 42.0163 66.8883 42.0304 66.5616C42.083 66.0917 42.2255 65.725 42.4578 65.4616C42.7876 65.0872 43.2035 64.9 43.7053 64.9C44.1917 64.9 44.5851 65.073 44.8854 65.419C45.1844 65.7663 45.334 66.2027 45.334 66.7282V68.353H45.9962V68.8662ZM43.919 69.391C43.919 69.6312 43.8067 69.7512 43.5821 69.7512C43.3562 69.7512 43.2439 69.6312 43.2452 69.391C43.2439 69.2955 43.2773 69.2122 43.3453 69.1412C43.4133 69.0689 43.4922 69.0327 43.5821 69.0327C43.8067 69.0327 43.919 69.1522 43.919 69.391Z" fill="url(#paint37_linear_475_4480)"/>
<path d="M50.2437 68.8662H45.5811V68.353H48.9173V66.9799C48.9173 66.5655 48.8461 66.2188 48.7036 65.94C48.5239 65.5888 48.2544 65.4132 47.8951 65.4132C47.5806 65.4132 47.3374 65.5488 47.1654 65.8199C47.0153 66.0587 46.9402 66.3538 46.9402 66.7049C46.9402 67.0393 47.0339 67.3776 47.2213 67.7197H45.9969C46.1021 67.4964 46.1695 67.3253 46.199 67.2065C46.2221 67.0309 46.2561 66.7637 46.3011 66.4048C46.3601 66.0148 46.4949 65.7005 46.7053 65.4616C47.0429 65.0872 47.4581 64.9 47.9509 64.9C48.4309 64.9 48.8358 65.0872 49.1657 65.4616C49.4429 65.7805 49.5815 66.2027 49.5815 66.7282V68.3646L50.2437 68.353V68.8662Z" fill="url(#paint38_linear_475_4480)"/>
<path d="M51.5587 68.8662H49.8838V68.353H50.4113V64.0169C50.4113 63.5547 50.3182 63.168 50.1321 62.8569H51.3661C51.1723 63.1758 51.0754 63.5624 51.0754 64.0169V68.353H51.5587V68.8662Z" fill="url(#paint39_linear_475_4480)"/>
<path d="M53.0854 68.8662H51.2988V68.353H52.142V64.0053C52.142 63.5663 52.0483 63.1796 51.861 62.8452H53.0854C52.9057 63.2042 52.8158 63.5908 52.8158 64.0053V67.7081C52.8158 68.1225 52.9057 68.5086 53.0854 68.8662Z" fill="url(#paint40_linear_475_4480)"/>
<defs>
<linearGradient id="paint0_linear_475_4480" x1="34.4072" y1="42.2154" x2="34.4072" y2="7.32873" gradientUnits="userSpaceOnUse">
<stop stop-color="#C1912E"/>
<stop offset="0.086" stop-color="#FAC927"/>
<stop offset="0.547" stop-color="#C1912E"/>
<stop offset="0.893" stop-color="#EDD586"/>
<stop offset="1" stop-color="#C1912E"/>
</linearGradient>
<linearGradient id="paint1_linear_475_4480" x1="34.4075" y1="42.2144" x2="34.4075" y2="7.32953" gradientUnits="userSpaceOnUse">
<stop stop-color="#C1912E"/>
<stop offset="0.086" stop-color="#FAC927"/>
<stop offset="0.547" stop-color="#C1912E"/>
<stop offset="0.893" stop-color="#EDD586"/>
<stop offset="1" stop-color="#C1912E"/>
</linearGradient>
<linearGradient id="paint2_linear_475_4480" x1="34.9072" y1="25.0494" x2="34.9072" y2="24.6266" gradientUnits="userSpaceOnUse">
<stop stop-color="#C1912E"/>
<stop offset="0.086" stop-color="#FAC927"/>
<stop offset="0.547" stop-color="#C1912E"/>
<stop offset="0.893" stop-color="#EDD586"/>
<stop offset="1" stop-color="#C1912E"/>
</linearGradient>
<linearGradient id="paint3_linear_475_4480" x1="33.5128" y1="42.2144" x2="33.5128" y2="7.32894" gradientUnits="userSpaceOnUse">
<stop stop-color="#C1912E"/>
<stop offset="0.086" stop-color="#FAC927"/>
<stop offset="0.547" stop-color="#C1912E"/>
<stop offset="0.893" stop-color="#EDD586"/>
<stop offset="1" stop-color="#C1912E"/>
</linearGradient>
<linearGradient id="paint4_linear_475_4480" x1="15.3068" y1="42.2144" x2="15.3068" y2="7.32914" gradientUnits="userSpaceOnUse">
<stop stop-color="#C1912E"/>
<stop offset="0.086" stop-color="#FAC927"/>
<stop offset="0.547" stop-color="#C1912E"/>
<stop offset="0.893" stop-color="#EDD586"/>
<stop offset="1" stop-color="#C1912E"/>
</linearGradient>
<linearGradient id="paint5_linear_475_4480" x1="33.3648" y1="42.2137" x2="33.3648" y2="7.32971" gradientUnits="userSpaceOnUse">
<stop stop-color="#C1912E"/>
<stop offset="0.086" stop-color="#FAC927"/>
<stop offset="0.547" stop-color="#C1912E"/>
<stop offset="0.893" stop-color="#EDD586"/>
<stop offset="1" stop-color="#C1912E"/>
</linearGradient>
<linearGradient id="paint6_linear_475_4480" x1="45.3211" y1="42.2144" x2="45.3211" y2="7.32953" gradientUnits="userSpaceOnUse">
<stop stop-color="#C1912E"/>
<stop offset="0.086" stop-color="#FAC927"/>
<stop offset="0.547" stop-color="#C1912E"/>
<stop offset="0.893" stop-color="#EDD586"/>
<stop offset="1" stop-color="#C1912E"/>
</linearGradient>
<linearGradient id="paint7_linear_475_4480" x1="45.3223" y1="42.2141" x2="45.3223" y2="7.32914" gradientUnits="userSpaceOnUse">
<stop stop-color="#C1912E"/>
<stop offset="0.086" stop-color="#FAC927"/>
<stop offset="0.547" stop-color="#C1912E"/>
<stop offset="0.893" stop-color="#EDD586"/>
<stop offset="1" stop-color="#C1912E"/>
</linearGradient>
<linearGradient id="paint8_linear_475_4480" x1="46.0754" y1="13.2407" x2="46.0754" y2="12.6035" gradientUnits="userSpaceOnUse">
<stop stop-color="#C1912E"/>
<stop offset="0.086" stop-color="#FAC927"/>
<stop offset="0.547" stop-color="#C1912E"/>
<stop offset="0.893" stop-color="#EDD586"/>
<stop offset="1" stop-color="#C1912E"/>
</linearGradient>
<linearGradient id="paint9_linear_475_4480" x1="46.0754" y1="42.2137" x2="46.0754" y2="7.33275" gradientUnits="userSpaceOnUse">
<stop stop-color="#C1912E"/>
<stop offset="0.086" stop-color="#FAC927"/>
<stop offset="0.547" stop-color="#C1912E"/>
<stop offset="0.893" stop-color="#EDD586"/>
<stop offset="1" stop-color="#C1912E"/>
</linearGradient>
<linearGradient id="paint10_linear_475_4480" x1="43.9756" y1="42.2142" x2="43.9756" y2="7.32914" gradientUnits="userSpaceOnUse">
<stop stop-color="#C1912E"/>
<stop offset="0.086" stop-color="#FAC927"/>
<stop offset="0.547" stop-color="#C1912E"/>
<stop offset="0.893" stop-color="#EDD586"/>
<stop offset="1" stop-color="#C1912E"/>
</linearGradient>
<linearGradient id="paint11_linear_475_4480" x1="43.7676" y1="42.2144" x2="43.7676" y2="7.32934" gradientUnits="userSpaceOnUse">
<stop stop-color="#C1912E"/>
<stop offset="0.086" stop-color="#FAC927"/>
<stop offset="0.547" stop-color="#C1912E"/>
<stop offset="0.893" stop-color="#EDD586"/>
<stop offset="1" stop-color="#C1912E"/>
</linearGradient>
<linearGradient id="paint12_linear_475_4480" x1="16.5487" y1="42.2144" x2="16.5487" y2="7.32933" gradientUnits="userSpaceOnUse">
<stop stop-color="#C1912E"/>
<stop offset="0.086" stop-color="#FAC927"/>
<stop offset="0.547" stop-color="#C1912E"/>
<stop offset="0.893" stop-color="#EDD586"/>
<stop offset="1" stop-color="#C1912E"/>
</linearGradient>
<linearGradient id="paint13_linear_475_4480" x1="43.7509" y1="42.2139" x2="43.7509" y2="7.32914" gradientUnits="userSpaceOnUse">
<stop stop-color="#C1912E"/>
<stop offset="0.086" stop-color="#FAC927"/>
<stop offset="0.547" stop-color="#C1912E"/>
<stop offset="0.893" stop-color="#EDD586"/>
<stop offset="1" stop-color="#C1912E"/>
</linearGradient>
<linearGradient id="paint14_linear_475_4480" x1="24.2547" y1="34.6496" x2="36.3605" y2="34.6496" gradientUnits="userSpaceOnUse">
<stop stop-color="white"/>
<stop offset="1"/>
</linearGradient>
<linearGradient id="paint15_linear_475_4480" x1="24.4497" y1="39.6134" x2="54.0063" y2="39.7452" gradientUnits="userSpaceOnUse">
<stop stop-color="#FCF8CD"/>
<stop offset="0.273" stop-color="#C1912E"/>
<stop offset="0.854" stop-color="#C1912E"/>
</linearGradient>
<linearGradient id="paint16_linear_475_4480" x1="24.4686" y1="39.557" x2="53.9353" y2="39.6882" gradientUnits="userSpaceOnUse">
<stop offset="0.006" stop-color="#FAC927"/>
<stop offset="0.253" stop-color="#FCF8CD"/>
<stop offset="0.595" stop-color="#C1912E"/>
<stop offset="1" stop-color="#EDD586"/>
</linearGradient>
<linearGradient id="paint17_linear_475_4480" x1="51.6195" y1="40.748" x2="58.6441" y2="40.748" gradientUnits="userSpaceOnUse">
<stop stop-color="#C1912E"/>
<stop offset="0.086" stop-color="#FAC927"/>
<stop offset="0.547" stop-color="#C1912E"/>
<stop offset="0.893" stop-color="#EDD586"/>
<stop offset="1" stop-color="#C1912E"/>
</linearGradient>
<linearGradient id="paint18_linear_475_4480" x1="34.1594" y1="57.5604" x2="37.9933" y2="57.5604" gradientUnits="userSpaceOnUse">
<stop stop-color="#C1912E"/>
<stop offset="0.086" stop-color="#FAC927"/>
<stop offset="0.547" stop-color="#C1912E"/>
<stop offset="0.893" stop-color="#EDD586"/>
<stop offset="1" stop-color="#C1912E"/>
</linearGradient>
<linearGradient id="paint19_linear_475_4480" x1="37.9957" y1="57.5604" x2="41.8296" y2="57.5604" gradientUnits="userSpaceOnUse">
<stop stop-color="#C1912E"/>
<stop offset="0.086" stop-color="#FAC927"/>
<stop offset="0.547" stop-color="#C1912E"/>
<stop offset="0.893" stop-color="#EDD586"/>
<stop offset="1" stop-color="#C1912E"/>
</linearGradient>
<linearGradient id="paint20_linear_475_4480" x1="55.7654" y1="102.885" x2="17.6261" y2="102.885" gradientUnits="userSpaceOnUse">
<stop stop-color="#C1912E"/>
<stop offset="0.086" stop-color="#FAC927"/>
<stop offset="0.547" stop-color="#C1912E"/>
<stop offset="0.893" stop-color="#EDD586"/>
<stop offset="1" stop-color="#C1912E"/>
</linearGradient>
<linearGradient id="paint21_linear_475_4480" x1="55.7659" y1="102.885" x2="17.6263" y2="102.885" gradientUnits="userSpaceOnUse">
<stop stop-color="#C1912E"/>
<stop offset="0.086" stop-color="#FAC927"/>
<stop offset="0.547" stop-color="#C1912E"/>
<stop offset="0.893" stop-color="#EDD586"/>
<stop offset="1" stop-color="#C1912E"/>
</linearGradient>
<linearGradient id="paint22_linear_475_4480" x1="55.7652" y1="104.279" x2="17.6256" y2="104.279" gradientUnits="userSpaceOnUse">
<stop stop-color="#C1912E"/>
<stop offset="0.086" stop-color="#FAC927"/>
<stop offset="0.547" stop-color="#C1912E"/>
<stop offset="0.893" stop-color="#EDD586"/>
<stop offset="1" stop-color="#C1912E"/>
</linearGradient>
<linearGradient id="paint23_linear_475_4480" x1="55.7656" y1="104.279" x2="17.626" y2="104.279" gradientUnits="userSpaceOnUse">
<stop stop-color="#C1912E"/>
<stop offset="0.086" stop-color="#FAC927"/>
<stop offset="0.547" stop-color="#C1912E"/>
<stop offset="0.893" stop-color="#EDD586"/>
<stop offset="1" stop-color="#C1912E"/>
</linearGradient>
<linearGradient id="paint24_linear_475_4480" x1="55.7654" y1="102.968" x2="17.6258" y2="102.968" gradientUnits="userSpaceOnUse">
<stop stop-color="#C1912E"/>
<stop offset="0.086" stop-color="#FAC927"/>
<stop offset="0.547" stop-color="#C1912E"/>
<stop offset="0.893" stop-color="#EDD586"/>
<stop offset="1" stop-color="#C1912E"/>
</linearGradient>
<linearGradient id="paint25_linear_475_4480" x1="55.7651" y1="102.968" x2="17.6259" y2="102.968" gradientUnits="userSpaceOnUse">
<stop stop-color="#C1912E"/>
<stop offset="0.086" stop-color="#FAC927"/>
<stop offset="0.547" stop-color="#C1912E"/>
<stop offset="0.893" stop-color="#EDD586"/>
<stop offset="1" stop-color="#C1912E"/>
</linearGradient>
<linearGradient id="paint26_linear_475_4480" x1="55.7659" y1="102.885" x2="17.6269" y2="102.885" gradientUnits="userSpaceOnUse">
<stop stop-color="#C1912E"/>
<stop offset="0.086" stop-color="#FAC927"/>
<stop offset="0.547" stop-color="#C1912E"/>
<stop offset="0.893" stop-color="#EDD586"/>
<stop offset="1" stop-color="#C1912E"/>
</linearGradient>
<linearGradient id="paint27_linear_475_4480" x1="55.7653" y1="102.968" x2="17.627" y2="102.968" gradientUnits="userSpaceOnUse">
<stop stop-color="#C1912E"/>
<stop offset="0.086" stop-color="#FAC927"/>
<stop offset="0.547" stop-color="#C1912E"/>
<stop offset="0.893" stop-color="#EDD586"/>
<stop offset="1" stop-color="#C1912E"/>
</linearGradient>
<linearGradient id="paint28_linear_475_4480" x1="55.7658" y1="102.885" x2="17.6262" y2="102.885" gradientUnits="userSpaceOnUse">
<stop stop-color="#C1912E"/>
<stop offset="0.086" stop-color="#FAC927"/>
<stop offset="0.547" stop-color="#C1912E"/>
<stop offset="0.893" stop-color="#EDD586"/>
<stop offset="1" stop-color="#C1912E"/>
</linearGradient>
<linearGradient id="paint29_linear_475_4480" x1="55.7657" y1="102.885" x2="17.6263" y2="102.885" gradientUnits="userSpaceOnUse">
<stop stop-color="#C1912E"/>
<stop offset="0.086" stop-color="#FAC927"/>
<stop offset="0.547" stop-color="#C1912E"/>
<stop offset="0.893" stop-color="#EDD586"/>
<stop offset="1" stop-color="#C1912E"/>
</linearGradient>
<linearGradient id="paint30_linear_475_4480" x1="55.7648" y1="68.8664" x2="17.6256" y2="68.8664" gradientUnits="userSpaceOnUse">
<stop stop-color="#C1912E"/>
<stop offset="0.086" stop-color="#FAC927"/>
<stop offset="0.547" stop-color="#C1912E"/>
<stop offset="0.893" stop-color="#EDD586"/>
<stop offset="1" stop-color="#C1912E"/>
</linearGradient>
<linearGradient id="paint31_linear_475_4480" x1="55.7642" y1="70.8499" x2="17.6251" y2="70.8499" gradientUnits="userSpaceOnUse">
<stop stop-color="#C1912E"/>
<stop offset="0.086" stop-color="#FAC927"/>
<stop offset="0.547" stop-color="#C1912E"/>
<stop offset="0.893" stop-color="#EDD586"/>
<stop offset="1" stop-color="#C1912E"/>
</linearGradient>
<linearGradient id="paint32_linear_475_4480" x1="55.7647" y1="70.0013" x2="17.6259" y2="70.0013" gradientUnits="userSpaceOnUse">
<stop stop-color="#C1912E"/>
<stop offset="0.086" stop-color="#FAC927"/>
<stop offset="0.547" stop-color="#C1912E"/>
<stop offset="0.893" stop-color="#EDD586"/>
<stop offset="1" stop-color="#C1912E"/>
</linearGradient>
<linearGradient id="paint33_linear_475_4480" x1="55.7647" y1="68.8664" x2="17.6253" y2="68.8664" gradientUnits="userSpaceOnUse">
<stop stop-color="#C1912E"/>
<stop offset="0.086" stop-color="#FAC927"/>
<stop offset="0.547" stop-color="#C1912E"/>
<stop offset="0.893" stop-color="#EDD586"/>
<stop offset="1" stop-color="#C1912E"/>
</linearGradient>
<linearGradient id="paint34_linear_475_4480" x1="55.7652" y1="68.8664" x2="17.6258" y2="68.8664" gradientUnits="userSpaceOnUse">
<stop stop-color="#C1912E"/>
<stop offset="0.086" stop-color="#FAC927"/>
<stop offset="0.547" stop-color="#C1912E"/>
<stop offset="0.893" stop-color="#EDD586"/>
<stop offset="1" stop-color="#C1912E"/>
</linearGradient>
<linearGradient id="paint35_linear_475_4480" x1="55.7653" y1="68.8664" x2="17.626" y2="68.8664" gradientUnits="userSpaceOnUse">
<stop stop-color="#C1912E"/>
<stop offset="0.086" stop-color="#FAC927"/>
<stop offset="0.547" stop-color="#C1912E"/>
<stop offset="0.893" stop-color="#EDD586"/>
<stop offset="1" stop-color="#C1912E"/>
</linearGradient>
<linearGradient id="paint36_linear_475_4480" x1="55.7645" y1="70.8375" x2="17.6257" y2="70.8375" gradientUnits="userSpaceOnUse">
<stop stop-color="#C1912E"/>
<stop offset="0.086" stop-color="#FAC927"/>
<stop offset="0.547" stop-color="#C1912E"/>
<stop offset="0.893" stop-color="#EDD586"/>
<stop offset="1" stop-color="#C1912E"/>
</linearGradient>
<linearGradient id="paint37_linear_475_4480" x1="55.7645" y1="70.8499" x2="17.6245" y2="70.8499" gradientUnits="userSpaceOnUse">
<stop stop-color="#C1912E"/>
<stop offset="0.086" stop-color="#FAC927"/>
<stop offset="0.547" stop-color="#C1912E"/>
<stop offset="0.893" stop-color="#EDD586"/>
<stop offset="1" stop-color="#C1912E"/>
</linearGradient>
<linearGradient id="paint38_linear_475_4480" x1="55.7652" y1="68.8664" x2="17.625" y2="68.8664" gradientUnits="userSpaceOnUse">
<stop stop-color="#C1912E"/>
<stop offset="0.086" stop-color="#FAC927"/>
<stop offset="0.547" stop-color="#C1912E"/>
<stop offset="0.893" stop-color="#EDD586"/>
<stop offset="1" stop-color="#C1912E"/>
</linearGradient>
<linearGradient id="paint39_linear_475_4480" x1="55.7649" y1="68.8664" x2="17.6264" y2="68.8664" gradientUnits="userSpaceOnUse">
<stop stop-color="#C1912E"/>
<stop offset="0.086" stop-color="#FAC927"/>
<stop offset="0.547" stop-color="#C1912E"/>
<stop offset="0.893" stop-color="#EDD586"/>
<stop offset="1" stop-color="#C1912E"/>
</linearGradient>
<linearGradient id="paint40_linear_475_4480" x1="55.7653" y1="68.8664" x2="17.6259" y2="68.8664" gradientUnits="userSpaceOnUse">
<stop stop-color="#C1912E"/>
<stop offset="0.086" stop-color="#FAC927"/>
<stop offset="0.547" stop-color="#C1912E"/>
<stop offset="0.893" stop-color="#EDD586"/>
<stop offset="1" stop-color="#C1912E"/>
</linearGradient>
</defs>
</svg>
