<svg width="23" height="20" viewBox="0 0 23 20" fill="none" xmlns="http://www.w3.org/2000/svg">
<path d="M2.59253 11.1111H6.29623V17.4074H2.59253V11.1111Z" fill="#494949"/>
<path d="M6.29623 11.1111V17.4074H2.59253" fill="black"/>
<path d="M4.44431 10.2963C5.58979 10.2963 6.51839 9.36772 6.51839 8.22224C6.51839 7.07677 5.58979 6.14817 4.44431 6.14817C3.29883 6.14817 2.37024 7.07677 2.37024 8.22224C2.37024 9.36772 3.29883 10.2963 4.44431 10.2963Z" fill="#494949"/>
<path d="M5.88881 6.74072C6.70362 7.55554 6.70362 8.88887 5.88881 9.70369C5.07399 10.5185 3.74066 10.5185 2.92584 9.70369" fill="black"/>
<path d="M13.3333 0H0V20H13.3333C15.9259 19.963 18.4444 19.2593 20.0741 17.8519C22.037 16.1852 23 13.5185 23 9.96296C23 8.25926 22.7037 6.74074 22.1852 5.44444C21.7037 4.18518 21 3.14815 20.0741 2.2963C18.4074 0.851852 15.9259 0.037037 13.3333 0ZM12.963 1.48148C15.5185 1.48148 17.6667 2.11111 19.1481 3.40741C20.8148 4.88889 21.6667 7 21.6667 9.96296C21.6296 15.8148 18.7778 18.5185 12.963 18.5185H1.48148V1.48148H12.963Z" fill="black"/>
<path d="M15.2963 8.51856H15.963C15.8889 8.51856 15.7408 7.88893 15.6297 7.59264C15.5186 7.88893 15.3334 8.51856 15.2963 8.51856ZM8.74078 9.51856C8.8519 9.48153 8.92597 9.40745 9.00004 9.37041C9.07412 9.29634 9.11115 9.18523 9.14819 9.07412C9.18523 8.92597 9.22227 8.70375 9.22227 8.44449C9.22227 8.18523 9.18523 8.00004 9.14819 7.8519C9.11115 7.74078 9.03708 7.62967 8.96301 7.5556C8.88893 7.48153 8.77782 7.48153 8.66671 7.44449H7.74078V9.66671H8.29634C8.51856 9.62967 8.66671 9.51856 8.74078 9.51856Z" fill="#CC1B69"/>
<path d="M17.7778 10.3704V6.66667H18.8889V9.25926H20.4075C20.0741 4.07408 16.1112 2.96297 12.4075 2.96297H7.77783V6.66667H8.40746C8.70376 6.66667 8.92598 6.62963 9.11117 6.70371C9.33339 6.77778 9.51857 6.85186 9.66672 7.03704C9.81487 7.18519 9.92598 7.37038 10.0371 7.62963C10.1112 7.85186 10.1482 8.14815 10.1482 8.48149C10.1482 8.77778 10.1112 9.03704 10.0371 9.25926C9.96302 9.51852 9.81487 9.74075 9.62968 9.92593C9.48154 10.037 9.33339 10.2222 9.11117 10.2963C8.96302 10.3333 8.74079 10.4445 8.4445 10.4445H7.77783V17.4815H12.4075C16.2964 17.4815 20.4075 16.3704 20.4445 10.4445H17.7778V10.3704ZM13.7038 10.3704H10.7408V6.66667H13.3334V7.40741H11.4815V7.77778H13.3334V8.88889H11.4815V9.62963H13.7038V10.3704ZM16.5556 10.3704C16.5556 10.3704 16.2964 9.62963 16.2593 9.62963H15.0001C14.963 9.62963 14.7038 10.3704 14.7038 10.3704H13.7408L15.1852 6.66667H16.0741L17.5556 10.3704H16.5556Z" fill="#F42588"/>
<path d="M7.77783 6.66664H8.40746C8.70376 6.66664 8.92598 6.62961 9.11117 6.70368C9.33339 6.77775 9.51857 6.85183 9.66672 7.03701C9.81487 7.18516 9.92598 7.37035 10.0371 7.62961C10.1112 7.85183 10.1482 8.14812 10.1482 8.48146C10.1482 8.77775 10.1112 9.03701 10.0371 9.25923C9.96302 9.51849 9.81487 9.74072 9.62968 9.9259C9.48154 10.037 9.33339 10.2222 9.11117 10.2963C8.96302 10.3333 8.74079 10.4444 8.4445 10.4444H7.77783V17.4815H12.4075C16.2964 17.4815 20.4075 16.3703 20.4445 10.4444H17.7778V6.66664H18.8889V9.25923H20.4075C20.0741 4.07405 16.0371 3.07405 12.3334 3.07405M13.3334 10.3703H10.7408V6.66664H13.3334V7.40738H11.4815V8.14812H13.3334V8.88886H11.4815V9.62961H13.3334V10.3703ZM16.5556 10.3703C16.5556 10.3703 16.2964 9.62961 16.2593 9.62961H15.0001C14.963 9.62961 14.7038 10.3703 14.7038 10.3703H13.7408L15.1852 6.66664H16.0741L17.5556 10.3703H16.5556Z" fill="#CC1B69"/>
<path d="M18.889 6.66674V9.25934H20.4075C20.2964 7.77785 20.0371 6.81489 19.4445 5.926L18.6667 6.66674H18.889Z" fill="#B50662"/>
<path d="M17.7778 7.37035L16.7408 8.51849L17.5186 10.3703H16.5556C16.5556 10.3703 16.2964 9.6296 16.2593 9.6296H15.8149L7.77783 17.3333V17.4074H12.4075C16.2964 17.4074 20.4075 16.2963 20.4445 10.3703H17.7778V7.37035Z" fill="#B50662"/>
<path d="M0 0V20L1.48148 18.5185V1.48148H12.963C14.7778 1.48148 16.3333 1.81481 17.6667 2.40741L18.7407 1.37037C17.2222 0.481481 15.1852 0.037037 13.3333 0H0Z" fill="#494949"/>
</svg>
