<svg width="33" height="33" viewBox="0 0 33 33" fill="none" xmlns="http://www.w3.org/2000/svg">
<path d="M28.01 13.3372V22.6744C28.01 25.6212 25.6212 28.01 22.6744 28.01H9.33556C6.38881 28.01 4 25.6212 4 22.6744V9.33556C4 6.38881 6.38881 4 9.33556 4H17.3389" stroke="#2A2522" stroke-width="1.5" stroke-linecap="round" stroke-linejoin="round"/>
<path d="M4 17.3389L5.7276 15.6113C6.33072 15.0082 7.14872 14.6693 8.00167 14.6693C8.8546 14.6693 9.6726 15.0082 10.2757 15.6113L16.005 21.3406" stroke="#2A2522" stroke-width="1.5" stroke-linecap="round" stroke-linejoin="round"/>
<path d="M9.33984 28.01L17.7369 19.6129C18.9928 18.357 21.0291 18.357 22.285 19.6129L27.5394 24.8674" stroke="#2A2522" stroke-width="1.5" stroke-linecap="round" stroke-linejoin="round"/>
<path d="M24.0086 4L20.6738 7.33472" stroke="#2A2522" stroke-width="1.5" stroke-linecap="round" stroke-linejoin="round"/>
<path d="M27.3435 7.33472L24.0088 4" stroke="#2A2522" stroke-width="1.5" stroke-linecap="round" stroke-linejoin="round"/>
<path d="M24.0087 4V10.6694" stroke="#2A2522" stroke-width="1.5" stroke-linecap="round" stroke-linejoin="round"/>
</svg>
