<svg width="26" height="26" viewBox="0 0 26 26" fill="none" xmlns="http://www.w3.org/2000/svg">
<path fill-rule="evenodd" clip-rule="evenodd" d="M13 22.75V22.75C7.61475 22.75 3.25 18.3853 3.25 13V13C3.25 7.61475 7.61475 3.25 13 3.25V3.25C18.3853 3.25 22.75 7.61475 22.75 13V13C22.75 18.3853 18.3853 22.75 13 22.75Z" stroke="#2A2522" stroke-width="1.5" stroke-linecap="round" stroke-linejoin="round"/>
<path d="M12.9993 18.4167V13H11.916" stroke="#2A2522" stroke-width="1.5" stroke-linecap="round" stroke-linejoin="round"/>
<path d="M12.7281 8.66666C12.5786 8.66666 12.4573 8.78799 12.4583 8.93749C12.4583 9.08699 12.5797 9.20833 12.7292 9.20833C12.8787 9.20833 13 9.08699 13 8.93749C13 8.78799 12.8787 8.66666 12.7281 8.66666" stroke="#2A2522" stroke-width="1.5" stroke-linecap="round" stroke-linejoin="round"/>
</svg>
