<svg width="25" height="25" viewBox="0 0 25 25" fill="none" xmlns="http://www.w3.org/2000/svg">
<path d="M7.50314 3.00125V6.0025" stroke="#ECA300" stroke-width="1.5" stroke-linecap="round" stroke-linejoin="round"/>
<path d="M16.507 3.00125V6.0025" stroke="#ECA300" stroke-width="1.5" stroke-linecap="round" stroke-linejoin="round"/>
<rect x="3.00146" y="4.50186" width="18.0075" height="16.5069" rx="3" stroke="#ECA300" stroke-width="1.5" stroke-linecap="round" stroke-linejoin="round"/>
<path d="M8.50335 11.0046H9.11808C9.64713 11.0046 10.1168 11.3431 10.2841 11.845V11.845C10.4206 12.2546 10.3323 12.7058 10.0513 13.0336L7.50293 16.0067H10.5042" stroke="#ECA300" stroke-width="1.5" stroke-linecap="round" stroke-linejoin="round"/>
<path d="M7.50293 12.005C7.50293 11.4525 7.95083 11.0046 8.50335 11.0046" stroke="#ECA300" stroke-width="1.5" stroke-linecap="round" stroke-linejoin="round"/>
<path d="M14.5063 11.0046H15.121C15.6501 11.0046 16.1197 11.3431 16.287 11.845V11.845C16.4236 12.2546 16.3352 12.7058 16.0542 13.0336L13.5059 16.0067H16.5071" stroke="#ECA300" stroke-width="1.5" stroke-linecap="round" stroke-linejoin="round"/>
<path d="M13.5059 12.005C13.5059 11.4525 13.9538 11.0046 14.5063 11.0046" stroke="#ECA300" stroke-width="1.5" stroke-linecap="round" stroke-linejoin="round"/>
</svg>
