<svg width="20" height="20" viewBox="0 0 20 20" fill="none" xmlns="http://www.w3.org/2000/svg">
<path d="M8.82149 12.9462L4.63388 17.1338C4.14573 17.622 3.35427 17.622 2.86612 17.1338V17.1338C2.37796 16.6457 2.37796 15.8542 2.86612 15.3661L7.05372 11.1785" stroke="#2A2522" stroke-opacity="0.8" stroke-width="1.2" stroke-linecap="round" stroke-linejoin="round"/>
<path d="M14.4181 2.5L10.5116 6.40652C9.86073 7.05741 9.86073 8.11265 10.5116 8.76354L11.1009 9.35278C11.4134 9.66535 11.8373 9.84095 12.2794 9.84095C12.7214 9.84095 13.1453 9.66535 13.4578 9.35278L17.3644 5.44627" stroke="#2A2522" stroke-opacity="0.8" stroke-width="1.2" stroke-linecap="round" stroke-linejoin="round"/>
<path fill-rule="evenodd" clip-rule="evenodd" d="M11.5146 13.2828L13.2824 11.5151L17.1335 15.3662C17.6217 15.8543 17.6217 16.6458 17.1335 17.1339V17.1339C16.6454 17.6221 15.8539 17.6221 15.3658 17.1339L11.5146 13.2828Z" stroke="#2A2522" stroke-opacity="0.8" stroke-width="1.2" stroke-linecap="round" stroke-linejoin="round"/>
<path d="M13.5225 6.34156L15.8909 3.97314" stroke="#2A2522" stroke-opacity="0.8" stroke-width="1.2" stroke-linecap="round" stroke-linejoin="round"/>
<path d="M12.5737 10.8197L13.2826 11.515L10.6309 14.1667C10.5528 14.2448 10.4468 14.2887 10.3363 14.2887C10.2258 14.2887 10.1198 14.2448 10.0417 14.1667L7.00325 11.1283C4.2975 8.42252 3.42013 4.91302 5.04358 3.28957H5.05711L5.04494 3.28821L13.2772 11.5204" stroke="#2A2522" stroke-opacity="0.8" stroke-width="1.2" stroke-linecap="round" stroke-linejoin="round"/>
<path d="M14.9961 7.81468L12.0498 4.86841" stroke="#2A2522" stroke-opacity="0.8" stroke-width="1.2" stroke-linecap="round" stroke-linejoin="round"/>
</svg>
