<svg width="25" height="25" viewBox="0 0 25 25" fill="none" xmlns="http://www.w3.org/2000/svg">
<path d="M22.0093 21.0087H2.00098" stroke="#2A2522" stroke-opacity="0.8" stroke-width="1.5" stroke-linecap="round" stroke-linejoin="round"/>
<path d="M17.5073 9.00375C17.5073 10.7545 21.0088 10.7545 21.0088 13.3806V13.3806C21.0088 14.8309 19.833 16.0067 18.3827 16.0067H16.632C15.1816 16.0067 14.0059 14.8309 14.0059 13.3806V13.3806C14.0059 10.7545 17.5073 10.7545 17.5073 9.00375" stroke="#2A2522" stroke-opacity="0.8" stroke-width="1.5" stroke-linecap="round" stroke-linejoin="round"/>
<path fill-rule="evenodd" clip-rule="evenodd" d="M12.0046 1.00042C12.0046 3.00125 16.0063 3.00125 16.0063 6.0025V6.0025C16.0063 7.66004 14.6626 9.00375 13.005 9.00375H11.0042C9.34664 9.00375 8.00293 7.66004 8.00293 6.0025V6.0025C8.00293 3.00125 12.0046 3.00125 12.0046 1.00042Z" stroke="#2A2522" stroke-opacity="0.8" stroke-width="1.5" stroke-linecap="round" stroke-linejoin="round"/>
<path d="M9.00411 11.3929V8.23594" stroke="#2A2522" stroke-opacity="0.8" stroke-width="1.5" stroke-linecap="round" stroke-linejoin="round"/>
<path d="M15.0061 11.3935V8.23594" stroke="#2A2522" stroke-opacity="0.8" stroke-width="1.5" stroke-linecap="round" stroke-linejoin="round"/>
<path d="M6.50243 9.00375C6.50243 10.7545 10.0039 10.7545 10.0039 13.3806V13.3806C10.0039 14.8309 8.82815 16.0067 7.3778 16.0067H5.62707C4.17672 16.0067 3.00098 14.8309 3.00098 13.3806V13.3806C3.00098 10.7545 6.50243 10.7545 6.50243 9.00375" stroke="#2A2522" stroke-opacity="0.8" stroke-width="1.5" stroke-linecap="round" stroke-linejoin="round"/>
<path d="M15.0061 21.0088V15.4335" stroke="#2A2522" stroke-opacity="0.8" stroke-width="1.5" stroke-linecap="round" stroke-linejoin="round"/>
<path d="M20.008 15.4375V21.0088" stroke="#2A2522" stroke-opacity="0.8" stroke-width="1.5" stroke-linecap="round" stroke-linejoin="round"/>
<path d="M4.00118 21.0088V15.4375" stroke="#2A2522" stroke-opacity="0.8" stroke-width="1.5" stroke-linecap="round" stroke-linejoin="round"/>
<path d="M9.00411 15.4375V21.0088" stroke="#2A2522" stroke-opacity="0.8" stroke-width="1.5" stroke-linecap="round" stroke-linejoin="round"/>
<path d="M12.0051 19.0079V21.0087" stroke="#2A2522" stroke-opacity="0.8" stroke-width="1.5" stroke-linecap="round" stroke-linejoin="round"/>
</svg>
