<svg width="16" height="20" viewBox="0 0 16 20" fill="none" xmlns="http://www.w3.org/2000/svg">
<path d="M5.70801 16.094V16.459C5.70801 17.724 6.73401 18.75 8.00001 18.75V18.75C9.26601 18.75 10.292 17.724 10.292 16.458V16.093" stroke="#253A7B" stroke-width="1.5" stroke-linecap="round" stroke-linejoin="round"/>
<path d="M9.83299 3.501V2.583C9.83299 1.571 9.01299 0.75 7.99999 0.75V0.75C6.98699 0.75 6.16699 1.571 6.16699 2.583V3.501" stroke="#253A7B" stroke-width="1.5" stroke-linecap="round" stroke-linejoin="round"/>
<path fill-rule="evenodd" clip-rule="evenodd" d="M2.563 7.938V7.938C2.563 5.435 4.592 3.407 7.094 3.407H8.907C11.41 3.407 13.438 5.436 13.438 7.938V7.938V10.735C13.438 11.265 13.649 11.774 14.024 12.149L14.665 12.79C15.04 13.165 15.251 13.674 15.251 14.204V14.204C15.251 15.248 14.405 16.094 13.361 16.094H2.64C1.596 16.094 0.75 15.248 0.75 14.204V14.204C0.75 13.674 0.961 13.165 1.336 12.79L1.977 12.149C2.352 11.774 2.563 11.265 2.563 10.735V7.938Z" stroke="#253A7B" stroke-width="1.5" stroke-linecap="round" stroke-linejoin="round"/>
</svg>
