<svg width="24" height="24" viewBox="0 0 24 24" fill="none" xmlns="http://www.w3.org/2000/svg">
<path fill-rule="evenodd" clip-rule="evenodd" d="M9.78302 12.997H12.538C14.998 12.997 17.092 11.207 17.476 8.777V8.777C17.954 5.744 15.61 3 12.538 3H7.20802C6.71602 3 6.29702 3.358 6.22002 3.844L4.01202 17.844C3.91702 18.451 4.38602 19 5.00002 19H7.84602L8.63802 13.976C8.72702 13.412 9.21302 12.997 9.78302 12.997Z" stroke="#2A2522" stroke-width="1.5" stroke-linecap="round" stroke-linejoin="round"/>
<path d="M17.467 7.16299C19.204 8.15299 20.276 10.144 19.938 12.285C19.555 14.715 17.46 16.505 15 16.505H15.021H12.392L11.816 20.155C11.74 20.642 11.32 21 10.828 20.999L8.11599 20.997C7.80899 20.997 7.57499 20.722 7.62199 20.419L7.84599 19" stroke="#2A2522" stroke-width="1.5" stroke-linecap="round" stroke-linejoin="round"/>
</svg>
