<svg width="24" height="24" viewBox="0 0 24 24" fill="none" xmlns="http://www.w3.org/2000/svg">
<path fill-rule="evenodd" clip-rule="evenodd" d="M13.1439 13.144C11.9739 14.314 10.6639 15.196 9.33487 15.782C9.05387 15.906 8.72487 15.833 8.50787 15.616L7.68987 14.797C7.01887 14.126 6.06987 14.126 5.48387 14.712L4.30987 15.886C3.52887 16.667 3.52887 17.933 4.30987 18.714L4.96187 19.366C5.70287 20.107 6.77187 20.416 7.83187 20.216C10.4449 19.722 13.3059 18.204 15.7549 15.755C18.2039 13.306 19.7219 10.445 20.2159 7.83198C20.4159 6.77198 20.1069 5.70298 19.3659 4.96198L18.7149 4.31098C17.9339 3.52998 16.6679 3.52998 15.8869 4.31098L14.7139 5.48398C14.1279 6.06998 14.1279 7.01998 14.7139 7.60498L15.6179 8.50798C15.8349 8.72498 15.9079 9.05398 15.7839 9.33498C15.1969 10.664 14.3139 11.974 13.1439 13.144Z" stroke="#2A2522" stroke-width="1.5" stroke-linecap="round" stroke-linejoin="round"/>
</svg>
