<svg width="24" height="24" viewBox="0 0 24 24" fill="none" xmlns="http://www.w3.org/2000/svg">
<path fill-rule="evenodd" clip-rule="evenodd" d="M19.9979 21H4.00391C2.89891 21 2.00391 20.105 2.00391 19V5C2.00391 3.895 2.89891 3 4.00391 3H19.9979C21.1029 3 21.9979 3.895 21.9979 5V19C21.9979 20.105 21.1019 21 19.9979 21Z" stroke="#2A2522" stroke-width="1.5" stroke-linecap="round" stroke-linejoin="round"/>
<path d="M9.41422 7.58579C10.1953 8.36684 10.1953 9.63317 9.41422 10.4142C8.63317 11.1953 7.36684 11.1953 6.58579 10.4142C5.80474 9.63317 5.80474 8.36684 6.58579 7.58579C7.36684 6.80474 8.63317 6.80474 9.41422 7.58579" stroke="#2A2522" stroke-width="1.5" stroke-linecap="round" stroke-linejoin="round"/>
<path d="M22 16L17.781 12.625C17.35 12.28 16.72 12.35 16.375 12.781L13.039 16.951C12.694 17.382 12.065 17.452 11.633 17.107L9.765 15.612C9.34 15.272 8.721 15.334 8.372 15.753L4 21" stroke="#2A2522" stroke-width="1.5" stroke-linecap="round" stroke-linejoin="round"/>
</svg>
