<svg width="22" height="22" viewBox="0 0 22 22" fill="none" xmlns="http://www.w3.org/2000/svg">
<path d="M8.35633 13.0047C5.0985 13.4337 2.75 14.63 2.75 16.0417C2.75 17.8136 6.44325 19.25 11 19.25C15.5568 19.25 19.25 17.8136 19.25 16.0417C19.25 14.63 16.9015 13.4337 13.6437 13.0047" stroke="#2A2522" stroke-linecap="round" stroke-linejoin="round"/>
<path fill-rule="evenodd" clip-rule="evenodd" d="M16.5 7.18025C16.5 4.22766 14.0378 1.83333 11 1.83333C7.96217 1.83333 5.5 4.22766 5.5 7.18025C5.5 11.1907 11 15.5833 11 15.5833C11 15.5833 16.5 11.1907 16.5 7.18025Z" stroke="#2A2522" stroke-linecap="round" stroke-linejoin="round"/>
<path d="M12.2967 6.03697C13.0127 6.75293 13.0127 7.91374 12.2967 8.6297C11.5807 9.34566 10.4199 9.34566 9.70396 8.6297C8.988 7.91374 8.988 6.75293 9.70396 6.03697C10.4199 5.32101 11.5807 5.32101 12.2967 6.03697" stroke="#2A2522" stroke-linecap="round" stroke-linejoin="round"/>
</svg>
