<svg width="32" height="32" viewBox="0 0 32 32" fill="none" xmlns="http://www.w3.org/2000/svg">
<path fill-rule="evenodd" clip-rule="evenodd" d="M15.9998 28L10.6665 29.3333V26.9333C10.6665 26.8 10.7998 26.5333 10.9332 26.4L13.3332 24.2667V17.8667L3.59984 22.1333C3.19984 22.4 2.6665 22.1333 2.6665 21.6V19.3333C2.6665 18.9333 2.93317 18.5333 3.19984 18.2667L13.3332 11.6V5.33332C13.3332 3.86666 14.5332 2.66666 15.9998 2.66666C17.4665 2.66666 18.6665 3.86666 18.6665 5.33332V11.6L28.7998 18.2667C29.1998 18.5333 29.3332 18.9333 29.3332 19.3333V21.6C29.3332 22.1333 28.7998 22.4 28.3998 22.2667L18.6665 18V24.4L21.0665 26.5333C21.1998 26.6667 21.3332 26.8 21.3332 27.0667V29.3333L15.9998 28Z" stroke="#2A2522" stroke-opacity="0.8" stroke-width="1.5" stroke-linecap="round" stroke-linejoin="round"/>
</svg>
