<svg width="24" height="24" viewBox="0 0 24 24" fill="none" xmlns="http://www.w3.org/2000/svg">
<path fill-rule="evenodd" clip-rule="evenodd" d="M5.63601 5.636V5.636C9.15101 2.121 14.849 2.121 18.364 5.636V5.636C21.879 9.151 21.879 14.849 18.364 18.364V18.364C14.849 21.879 9.15101 21.879 5.63601 18.364V18.364C2.12101 14.849 2.12101 9.151 5.63601 5.636Z" stroke="#253A7B" stroke-width="1.5" stroke-linecap="round" stroke-linejoin="round"/>
<path fill-rule="evenodd" clip-rule="evenodd" d="M7.90402 15.507L9.04002 9.825C9.12002 9.429 9.42902 9.12 9.82502 9.041L15.507 7.905C15.857 7.835 16.165 8.143 16.095 8.493L14.959 14.175C14.88 14.571 14.57 14.88 14.175 14.959L8.49302 16.095C8.14302 16.166 7.83402 15.857 7.90402 15.507Z" stroke="#253A7B" stroke-width="1.5" stroke-linecap="round" stroke-linejoin="round"/>
<path d="M11.999 11.75C11.861 11.75 11.749 11.862 11.75 12C11.75 12.138 11.862 12.25 12 12.25C12.138 12.25 12.25 12.138 12.25 12C12.25 11.862 12.138 11.75 11.999 11.75" stroke="#253A7B" stroke-width="1.5" stroke-linecap="round" stroke-linejoin="round"/>
</svg>
