<svg width="32" height="32" viewBox="0 0 32 32" fill="none" xmlns="http://www.w3.org/2000/svg">
<path fill-rule="evenodd" clip-rule="evenodd" d="M22.6696 28.005H9.33067C6.38393 28.005 3.99512 25.6162 3.99512 22.6695V11.9983C3.99512 10.525 5.18952 9.33057 6.66289 9.33057H25.3373C26.8107 9.33057 28.0051 10.525 28.0051 11.9983V22.6695C28.0051 25.6162 25.6163 28.005 22.6696 28.005Z" stroke="#323232" stroke-width="1.5" stroke-linecap="round" stroke-linejoin="round"/>
<path d="M10.6646 9.33055V6.66277C10.6646 5.1894 11.859 3.995 13.3323 3.995H18.6679C20.1413 3.995 21.3357 5.1894 21.3357 6.66277V9.33055" stroke="#323232" stroke-width="1.5" stroke-linecap="round" stroke-linejoin="round"/>
<rect x="13.3325" y="14.6661" width="5.33556" height="4.00167" rx="0.5" stroke="#323232" stroke-width="1.5" stroke-linecap="round" stroke-linejoin="round"/>
<path d="M18.668 16.667H23.3366C25.915 16.667 28.0052 14.5768 28.0052 11.9984V11.9984" stroke="#323232" stroke-width="1.5" stroke-linecap="round" stroke-linejoin="round"/>
<path d="M13.3323 16.667H8.66373C6.08533 16.667 3.99512 14.5768 3.99512 11.9984V11.9984" stroke="#323232" stroke-width="1.5" stroke-linecap="round" stroke-linejoin="round"/>
</svg>
