<svg width="33" height="33" viewBox="0 0 33 33" fill="none" xmlns="http://www.w3.org/2000/svg">
<path fill-rule="evenodd" clip-rule="evenodd" d="M23.343 25.3439H8.67022C7.19627 25.3439 6.00244 24.1501 6.00244 22.6761V9.33723C6.00244 6.39067 8.39144 4.00168 11.338 4.00168H20.6752C23.6218 4.00168 26.0108 6.39067 26.0108 9.33723V22.6761C26.0108 24.1501 24.8169 25.3439 23.343 25.3439Z" stroke="#2A2522" stroke-opacity="0.8" stroke-width="1.5" stroke-linecap="round" stroke-linejoin="round"/>
<path d="M10.0039 21.3422H11.3378" stroke="#2A2522" stroke-opacity="0.8" stroke-width="1.5" stroke-linecap="round" stroke-linejoin="round"/>
<path d="M20.6753 21.3422H22.0092" stroke="#2A2522" stroke-opacity="0.8" stroke-width="1.5" stroke-linecap="round" stroke-linejoin="round"/>
<path d="M6.00244 17.3406H26.0108" stroke="#2A2522" stroke-opacity="0.8" stroke-width="1.5" stroke-linecap="round" stroke-linejoin="round"/>
<path d="M10.986 25.3439V27.3447C10.986 28.0811 10.3885 28.6786 9.65215 28.6786H8.31826C7.58196 28.6786 6.98438 28.0811 6.98438 27.3447V24.7357" stroke="#2A2522" stroke-opacity="0.8" stroke-width="1.5" stroke-linecap="round" stroke-linejoin="round"/>
<path d="M25.029 24.7357V27.3447C25.029 28.0811 24.4314 28.6786 23.6951 28.6786H22.3612C21.6249 28.6786 21.0273 28.0811 21.0273 27.3447V25.3439" stroke="#2A2522" stroke-opacity="0.8" stroke-width="1.5" stroke-linecap="round" stroke-linejoin="round"/>
<path d="M16.0068 9.33725V17.3406" stroke="#2A2522" stroke-opacity="0.8" stroke-width="1.5" stroke-linecap="round" stroke-linejoin="round"/>
<path d="M26.0108 9.33723H6.00244" stroke="#2A2522" stroke-opacity="0.8" stroke-width="1.5" stroke-linecap="round" stroke-linejoin="round"/>
<path d="M6.0022 16.0067H4.00137C3.26506 16.0067 2.66748 15.4091 2.66748 14.6728V12.005C2.66748 11.2687 3.26506 10.6711 4.00137 10.6711H6.0022" stroke="#2A2522" stroke-opacity="0.8" stroke-width="1.5" stroke-linecap="round" stroke-linejoin="round"/>
<path d="M26.0107 10.6711H28.0116C28.7479 10.6711 29.3455 11.2687 29.3455 12.005V14.6728C29.3455 15.4091 28.7479 16.0067 28.0116 16.0067H26.0107" stroke="#2A2522" stroke-opacity="0.8" stroke-width="1.5" stroke-linecap="round" stroke-linejoin="round"/>
</svg>
