<svg width="24" height="24" viewBox="0 0 24 24" fill="none" xmlns="http://www.w3.org/2000/svg">
<path fill-rule="evenodd" clip-rule="evenodd" d="M8.38413 14.387C8.89913 14.387 9.38413 14.493 9.80813 14.706C10.1261 12.61 11.9451 11 14.1261 11C16.5051 11 18.4441 12.914 18.5051 15.283C19.9291 15.465 21.0351 16.68 21.0351 18.184C21.0351 19.794 19.7321 21.1 18.1261 21.1H8.38413C6.53613 21.1 5.03613 19.596 5.03613 17.744C5.03613 15.89 6.53613 14.387 8.38413 14.387Z" stroke="#2A2522" stroke-opacity="0.8" stroke-width="1.5" stroke-linecap="round" stroke-linejoin="round"/>
<path d="M10.96 2.79999V1.99999" stroke="#2A2522" stroke-opacity="0.8" stroke-width="1.5" stroke-linecap="round" stroke-linejoin="round"/>
<path d="M16.0608 4.91L16.6208 4.34" stroke="#2A2522" stroke-opacity="0.8" stroke-width="1.5" stroke-linecap="round" stroke-linejoin="round"/>
<path d="M2.96035 10H3.76035" stroke="#2A2522" stroke-opacity="0.8" stroke-width="1.5" stroke-linecap="round" stroke-linejoin="round"/>
<path d="M5.31082 4.34L5.87082 4.91" stroke="#2A2522" stroke-opacity="0.8" stroke-width="1.5" stroke-linecap="round" stroke-linejoin="round"/>
<path d="M13.7929 7.172C13.0689 6.448 12.0689 6 10.9639 6C8.75487 6 6.96387 7.791 6.96387 10" stroke="#2A2522" stroke-opacity="0.8" stroke-width="1.5" stroke-linecap="round" stroke-linejoin="round"/>
</svg>
